font.ufo
<glyph name="exclam" format="1">
  <advance width="228"/>
  <unicode hex="0021"/>
  <outline>
    <contour>
      <point x="135" y="229" type="line"/>
      <point x="140" y="722" type="line"/>
      <point x="89" y="722" type="line"/>
      <point x="94" y="229" type="line"/>
    </contour>
    <contour>
      <point x="142" y="19" type="curve"/>
      <point x="142" y="36"/>
      <point x="131" y="45"/>
      <point x="115" y="45" type="curve"/>
      <point x="99" y="45"/>
      <point x="88" y="35"/>
      <point x="88" y="19" type="curve"/>
      <point x="137" y="19"/>
      <point x="94" y="19"/>
      <point x="142" y="19" type="curve"/>
      <point x="142" y="3"/>
      <point x="131" y="-6"/>
      <point x="115" y="-6" type="curve"/>
      <point x="98" y="-6"/>
      <point x="88" y="3"/>
      <point x="88" y="19" type="curve"/>
      <point x="137" y="19"/>
      <point x="94" y="19"/>
    </contour>
  </outline>
</glyph>
<glyph name="quotedbl" format="1">
  <advance width="386"/>
  <unicode hex="0022"/>
  <outline>
    <contour>
      <point x="131" y="575" type="line"/>
      <point x="135" y="768" type="line"/>
      <point x="87" y="768" type="line"/>
      <point x="91" y="575" type="line"/>
    </contour>
    <contour>
      <point x="295" y="575" type="line"/>
      <point x="299" y="768" type="line"/>
      <point x="251" y="768" type="line"/>
      <point x="255" y="575" type="line"/>
    </contour>
  </outline>
</glyph>
<glyph name="dollar" format="1">
  <advance width="503"/>
  <unicode hex="0024"/>
  <outline>
    <contour>
      <point x="97" y="98" type="curve"/>
      <point x="97" y="218"/>
      <point x="97" y="99"/>
      <point x="97" y="219" type="curve"/>
      <point x="61" y="219"/>
      <point x="97" y="219"/>
      <point x="61" y="219" type="curve"/>
      <point x="61" y="99"/>
      <point x="61" y="218"/>
      <point x="61" y="98" type="curve"/>
      <point x="97" y="98"/>
      <point x="61" y="98"/>
    </contour>
    <contour>
      <point x="393" y="632" type="curve"/>
      <point x="393" y="512"/>
      <point x="393" y="631"/>
      <point x="393" y="511" type="curve"/>
      <point x="428" y="511"/>
      <point x="393" y="511"/>
      <point x="428" y="511" type="curve"/>
      <point x="428" y="631"/>
      <point x="428" y="512"/>
      <point x="428" y="632" type="curve"/>
      <point x="393" y="632"/>
      <point x="428" y="632"/>
    </contour>
    <contour>
      <point x="259" y="-43" type="curve"/>
      <point x="259" y="-9"/>
      <point x="259" y="31"/>
      <point x="259" y="65" type="curve"/>
      <point x="217" y="65"/>
      <point x="259" y="65"/>
      <point x="217" y="65" type="curve"/>
      <point x="217" y="31"/>
      <point x="217" y="-9"/>
      <point x="217" y="-43" type="curve"/>
      <point x="259" y="-43"/>
      <point x="217" y="-43"/>
    </contour>
    <contour>
      <point x="270" y="665" type="curve"/>
      <point x="270" y="699"/>
      <point x="270" y="740"/>
      <point x="270" y="773" type="curve"/>
      <point x="228" y="773"/>
      <point x="270" y="773"/>
      <point x="228" y="773" type="curve"/>
      <point x="228" y="740"/>
      <point x="228" y="699"/>
      <point x="228" y="665" type="curve"/>
      <point x="270" y="665"/>
      <point x="228" y="665"/>
    </contour>
    <contour>
      <point x="61" y="98" type="curve"/>
      <point x="109" y="71"/>
      <point x="168" y="47"/>
      <point x="236" y="47" type="curve"/>
      <point x="357" y="47"/>
      <point x="447" y="102"/>
      <point x="447" y="202" type="curve"/>
      <point x="447" y="296"/>
      <point x="360" y="344"/>
      <point x="263" y="391" type="curve"/>
      <point x="183" y="431"/>
      <point x="120" y="464"/>
      <point x="120" y="539" type="curve"/>
      <point x="120" y="607"/>
      <point x="174" y="649"/>
      <point x="253" y="649" type="curve"/>
      <point x="314" y="649"/>
      <point x="355" y="632"/>
      <point x="406" y="602" type="curve"/>
      <point x="428" y="632"/>
      <point x="406" y="602"/>
      <point x="428" y="632" type="curve"/>
      <point x="370" y="666"/>
      <point x="323" y="684"/>
      <point x="254" y="684" type="curve"/>
      <point x="150" y="684"/>
      <point x="77" y="630"/>
      <point x="77" y="539" type="curve"/>
      <point x="77" y="448"/>
      <point x="146" y="404"/>
      <point x="239" y="359" type="curve"/>
      <point x="324" y="319"/>
      <point x="405" y="280"/>
      <point x="405" y="200" type="curve"/>
      <point x="405" y="123"/>
      <point x="334" y="81"/>
      <point x="240" y="81" type="curve"/>
      <point x="179" y="81"/>
      <point x="127" y="106"/>
      <point x="84" y="129" type="curve"/>
      <point x="61" y="98"/>
      <point x="84" y="129"/>
    </contour>
  </outline>
</glyph>
<glyph name="percent" format="1">
  <advance width="912"/>
  <unicode hex="0025"/>
  <outline>
    <contour>
      <point x="300" y="-84" type="line"/>
      <point x="674" y="750" type="line"/>
      <point x="630" y="750" type="line"/>
      <point x="257" y="-84" type="line"/>
    </contour>
    <contour>
      <point x="79" y="546" type="curve"/>
      <point x="79" y="646"/>
      <point x="108" y="722"/>
      <point x="199" y="722" type="curve"/>
      <point x="289" y="723"/>
      <point x="319" y="646"/>
      <point x="319" y="547" type="curve"/>
      <point x="319" y="447"/>
      <point x="291" y="369"/>
      <point x="202" y="369" type="curve"/>
      <point x="110" y="369"/>
      <point x="79" y="445"/>
      <point x="79" y="546" type="curve"/>
      <point x="65" y="546"/>
      <point x="56" y="546"/>
      <point x="41" y="546" type="curve"/>
      <point x="41" y="425"/>
      <point x="88" y="336"/>
      <point x="200" y="336" type="curve"/>
      <point x="313" y="336"/>
      <point x="359" y="426"/>
      <point x="359" y="549" type="curve"/>
      <point x="359" y="668"/>
      <point x="312" y="756"/>
      <point x="201" y="756" type="curve"/>
      <point x="88" y="756"/>
      <point x="41" y="667"/>
      <point x="41" y="546" type="curve"/>
      <point x="56" y="546"/>
      <point x="65" y="546"/>
    </contour>
    <contour>
      <point x="591" y="121" type="curve"/>
      <point x="591" y="220"/>
      <point x="620" y="296"/>
      <point x="711" y="296" type="curve"/>
      <point x="801" y="297"/>
      <point x="831" y="221"/>
      <point x="831" y="121" type="curve"/>
      <point x="831" y="21"/>
      <point x="803" y="-57"/>
      <point x="714" y="-57" type="curve"/>
      <point x="622" y="-57"/>
      <point x="591" y="19"/>
      <point x="591" y="121" type="curve"/>
      <point x="576" y="121"/>
      <point x="567" y="121"/>
      <point x="552" y="121" type="curve"/>
      <point x="552" y="-1"/>
      <point x="600" y="-90"/>
      <point x="712" y="-90" type="curve"/>
      <point x="825" y="-90"/>
      <point x="871" y="0"/>
      <point x="871" y="123" type="curve"/>
      <point x="871" y="242"/>
      <point x="824" y="330"/>
      <point x="713" y="330" type="curve"/>
      <point x="600" y="330"/>
      <point x="552" y="241"/>
      <point x="552" y="121" type="curve"/>
      <point x="567" y="121"/>
      <point x="576" y="121"/>
    </contour>
  </outline>
</glyph>
<glyph name="ampersand" format="1">
  <advance width="602"/>
  <unicode hex="0026"/>
  <outline>
    <contour>
      <point x="578" y="14" type="line"/>
      <point x="481" y="126"/>
      <point x="386" y="241"/>
      <point x="287" y="353" type="curve"/>
      <point x="231" y="423"/>
      <point x="162" y="480"/>
      <point x="162" y="573" type="curve"/>
      <point x="162" y="640"/>
      <point x="196" y="691"/>
      <point x="256" y="691" type="curve"/>
      <point x="321" y="691"/>
      <point x="358" y="644"/>
      <point x="358" y="575" type="curve"/>
      <point x="358" y="487"/>
      <point x="297" y="441"/>
      <point x="223" y="393" type="curve"/>
      <point x="135" y="335"/>
      <point x="62" y="284"/>
      <point x="62" y="181" type="curve"/>
      <point x="62" y="68"/>
      <point x="137" y="-5"/>
      <point x="250" y="-5" type="curve"/>
      <point x="426" y="-5"/>
      <point x="499" y="139"/>
      <point x="550" y="317" type="curve"/>
      <point x="513" y="325"/>
      <point x="550" y="317"/>
      <point x="513" y="325" type="curve"/>
      <point x="468" y="165"/>
      <point x="402" y="30"/>
      <point x="252" y="30" type="curve"/>
      <point x="162" y="30"/>
      <point x="104" y="89"/>
      <point x="104" y="181" type="curve"/>
      <point x="104" y="270"/>
      <point x="168" y="314"/>
      <point x="243" y="363" type="curve"/>
      <point x="328" y="421"/>
      <point x="400" y="474"/>
      <point x="400" y="576" type="curve"/>
      <point x="400" y="666"/>
      <point x="346" y="727"/>
      <point x="258" y="727" type="curve"/>
      <point x="172" y="727"/>
      <point x="122" y="663"/>
      <point x="122" y="573" type="curve"/>
      <point x="122" y="471"/>
      <point x="192" y="408"/>
      <point x="258" y="332" type="curve"/>
      <point x="353" y="221"/>
      <point x="455" y="101"/>
      <point x="550" y="-9" type="curve"/>
    </contour>
  </outline>
</glyph>
<glyph name="quotesingle" format="1">
  <advance width="222"/>
  <unicode hex="0027"/>
  <outline>
    <contour>
      <point x="131" y="575" type="line"/>
      <point x="135" y="768" type="line"/>
      <point x="87" y="768" type="line"/>
      <point x="91" y="575" type="line"/>
    </contour>
  </outline>
</glyph>
<glyph name="parenleft" format="1">
  <advance width="316"/>
  <unicode hex="0028"/>
  <outline>
    <contour>
      <point x="302" y="-231" type="curve"/>
      <point x="153" y="-59"/>
      <point x="98" y="98"/>
      <point x="98" y="326" type="curve"/>
      <point x="98" y="554"/>
      <point x="154" y="711"/>
      <point x="301" y="885" type="curve"/>
      <point x="275" y="907"/>
      <point x="301" y="885"/>
      <point x="275" y="907" type="curve"/>
      <point x="119" y="728"/>
      <point x="56" y="565"/>
      <point x="56" y="326" type="curve"/>
      <point x="56" y="87"/>
      <point x="120" y="-75"/>
      <point x="275" y="-256" type="curve"/>
      <point x="302" y="-231"/>
      <point x="275" y="-256"/>
    </contour>
  </outline>
</glyph>
<glyph name="parenright" format="1">
  <advance width="325"/>
  <unicode hex="0029"/>
  <outline>
    <contour>
      <point x="38" y="-271" type="curve"/>
      <point x="195" y="-83"/>
      <point x="270" y="79"/>
      <point x="270" y="327" type="curve"/>
      <point x="270" y="569"/>
      <point x="202" y="730"/>
      <point x="41" y="908" type="curve"/>
      <point x="15" y="884"/>
      <point x="41" y="908"/>
      <point x="15" y="884" type="curve"/>
      <point x="167" y="711"/>
      <point x="227" y="556"/>
      <point x="227" y="326" type="curve"/>
      <point x="227" y="91"/>
      <point x="158" y="-66"/>
      <point x="10" y="-248" type="curve"/>
      <point x="38" y="-271"/>
      <point x="10" y="-248"/>
    </contour>
  </outline>
</glyph>
<glyph name="comma" format="1">
  <advance width="203"/>
  <unicode hex="002C"/>
  <outline>
    <contour>
      <point x="49" y="-109" type="line"/>
      <point x="87" y="-88"/>
      <point x="116" y="-53"/>
      <point x="116" y="4" type="curve"/>
      <point x="116" y="35"/>
      <point x="108" y="57"/>
      <point x="85" y="57" type="curve"/>
      <point x="67" y="57"/>
      <point x="56" y="48"/>
      <point x="56" y="31" type="curve"/>
      <point x="56" y="16"/>
      <point x="63" y="7"/>
      <point x="79" y="3" type="curve"/>
      <point x="79" y="-21"/>
      <point x="69" y="-60"/>
      <point x="36" y="-83" type="curve"/>
    </contour>
  </outline>
</glyph>
<glyph name="hyphen" format="1">
  <advance width="424"/>
  <unicode hex="002D"/>
  <outline>
    <contour>
      <point x="85" y="254" type="curve"/>
      <point x="170" y="254"/>
      <point x="255" y="254"/>
      <point x="339" y="254" type="curve"/>
      <point x="339" y="293"/>
      <point x="339" y="254"/>
      <point x="339" y="293" type="curve"/>
      <point x="255" y="293"/>
      <point x="170" y="293"/>
      <point x="85" y="293" type="curve"/>
      <point x="85" y="254"/>
      <point x="85" y="293"/>
    </contour>
  </outline>
</glyph>
<glyph name="period" format="1">
  <advance width="217"/>
  <unicode hex="002E"/>
  <outline>
    <contour>
      <point x="135" y="19" type="curve"/>
      <point x="135" y="36"/>
      <point x="124" y="45"/>
      <point x="107" y="45" type="curve"/>
      <point x="91" y="45"/>
      <point x="81" y="35"/>
      <point x="81" y="19" type="curve"/>
      <point x="129" y="19"/>
      <point x="86" y="19"/>
      <point x="135" y="19" type="curve"/>
      <point x="135" y="3"/>
      <point x="124" y="-6"/>
      <point x="107" y="-6" type="curve"/>
      <point x="91" y="-6"/>
      <point x="81" y="3"/>
      <point x="81" y="19" type="curve"/>
      <point x="129" y="19"/>
      <point x="86" y="19"/>
    </contour>
  </outline>
</glyph>
<glyph name="slash" format="1">
  <advance width="489"/>
  <unicode hex="002F"/>
  <outline>
    <contour>
      <point x="79" y="-59" type="curve"/>
      <point x="203" y="238"/>
      <point x="328" y="536"/>
      <point x="452" y="834" type="curve"/>
      <point x="410" y="834"/>
      <point x="452" y="834"/>
      <point x="410" y="834" type="curve"/>
      <point x="286" y="536"/>
      <point x="161" y="238"/>
      <point x="37" y="-59" type="curve"/>
      <point x="79" y="-59"/>
      <point x="37" y="-59"/>
    </contour>
  </outline>
</glyph>
<glyph name="zero" format="1">
  <advance width="644"/>
  <unicode hex="0030"/>
  <outline>
    <contour>
      <point x="109" y="360" type="curve"/>
      <point x="109" y="546"/>
      <point x="157" y="690"/>
      <point x="322" y="690" type="curve"/>
      <point x="487" y="690"/>
      <point x="535" y="547"/>
      <point x="535" y="363" type="curve"/>
      <point x="535" y="177"/>
      <point x="486" y="33"/>
      <point x="326" y="33" type="curve"/>
      <point x="164" y="33"/>
      <point x="109" y="174"/>
      <point x="109" y="360" type="curve"/>
      <point x="68" y="360"/>
      <point x="107" y="360"/>
      <point x="67" y="360" type="curve"/>
      <point x="67" y="151"/>
      <point x="132" y="-5"/>
      <point x="324" y="-5" type="curve"/>
      <point x="515" y="-5"/>
      <point x="577" y="152"/>
      <point x="577" y="363" type="curve"/>
      <point x="577" y="571"/>
      <point x="515" y="727"/>
      <point x="325" y="727" type="curve"/>
      <point x="133" y="727"/>
      <point x="67" y="571"/>
      <point x="67" y="360" type="curve"/>
      <point x="107" y="360"/>
      <point x="68" y="360"/>
    </contour>
  </outline>
</glyph>
<glyph name="one" format="1">
  <advance width="402"/>
  <unicode hex="0031"/>
  <outline>
    <contour>
      <point x="241" y="0" type="curve"/>
      <point x="284" y="0"/>
      <point x="328" y="0"/>
      <point x="373" y="0" type="curve"/>
      <point x="373" y="35"/>
      <point x="373" y="0"/>
      <point x="373" y="35" type="curve"/>
      <point x="241" y="35"/>
      <point x="373" y="35"/>
      <point x="241" y="35" type="curve"/>
      <point x="241" y="0"/>
      <point x="241" y="35"/>
    </contour>
    <contour>
      <point x="241" y="35" type="curve"/>
      <point x="103" y="35"/>
      <point x="241" y="35"/>
      <point x="103" y="35" type="curve"/>
      <point x="103" y="0"/>
      <point x="103" y="35"/>
      <point x="103" y="0" type="curve"/>
      <point x="149" y="0"/>
      <point x="194" y="0"/>
      <point x="241" y="0" type="curve"/>
      <point x="241" y="35"/>
      <point x="241" y="0"/>
    </contour>
    <contour>
      <point x="68" y="528" type="curve"/>
      <point x="252" y="703"/>
      <point x="68" y="528"/>
      <point x="252" y="703" type="curve"/>
      <point x="218" y="722"/>
      <point x="252" y="703"/>
      <point x="218" y="722" type="curve"/>
      <point x="43" y="556"/>
      <point x="218" y="722"/>
      <point x="43" y="556" type="curve"/>
      <point x="68" y="528"/>
      <point x="43" y="556"/>
    </contour>
    <contour>
      <point x="260" y="0" type="curve"/>
      <point x="260" y="241"/>
      <point x="260" y="481"/>
      <point x="260" y="722" type="curve"/>
      <point x="218" y="722"/>
      <point x="260" y="722"/>
      <point x="218" y="722" type="curve"/>
      <point x="218" y="481"/>
      <point x="218" y="241"/>
      <point x="218" y="0" type="curve"/>
      <point x="260" y="0"/>
      <point x="218" y="0"/>
    </contour>
  </outline>
</glyph>
<glyph name="two" format="1">
  <advance width="520"/>
  <unicode hex="0032"/>
  <outline>
    <contour>
      <point x="449" y="35" type="curve"/>
      <point x="449" y="153"/>
      <point x="449" y="33"/>
      <point x="449" y="151" type="curve"/>
      <point x="414" y="151"/>
      <point x="449" y="151"/>
      <point x="414" y="151" type="curve"/>
      <point x="414" y="33"/>
      <point x="414" y="153"/>
      <point x="414" y="35" type="curve"/>
      <point x="449" y="35"/>
      <point x="414" y="35"/>
    </contour>
    <contour>
      <point x="51" y="0" type="curve"/>
      <point x="198" y="0"/>
      <point x="318" y="0"/>
      <point x="449" y="0" type="curve"/>
      <point x="449" y="35"/>
      <point x="449" y="0"/>
      <point x="449" y="35" type="curve"/>
      <point x="311" y="35"/>
      <point x="188" y="35"/>
      <point x="51" y="35" type="curve"/>
      <point x="51" y="0"/>
      <point x="51" y="35"/>
    </contour>
    <contour>
      <point x="97" y="556" type="curve"/>
      <point x="135" y="632"/>
      <point x="174" y="689"/>
      <point x="255" y="689" type="curve"/>
      <point x="348" y="689"/>
      <point x="392" y="624"/>
      <point x="392" y="522" type="curve"/>
      <point x="392" y="403"/>
      <point x="311" y="306"/>
      <point x="248" y="244" type="curve"/>
      <point x="182" y="174"/>
      <point x="117" y="105"/>
      <point x="51" y="35" type="curve"/>
      <point x="60" y="0"/>
      <point x="51" y="35"/>
      <point x="60" y="0" type="curve"/>
      <point x="138" y="71"/>
      <point x="207" y="144"/>
      <point x="275" y="217" type="curve"/>
      <point x="347" y="287"/>
      <point x="432" y="388"/>
      <point x="432" y="524" type="curve"/>
      <point x="432" y="648"/>
      <point x="374" y="727"/>
      <point x="257" y="727" type="curve"/>
      <point x="161" y="727"/>
      <point x="104" y="663"/>
      <point x="64" y="574" type="curve"/>
      <point x="97" y="556"/>
      <point x="64" y="574"/>
    </contour>
  </outline>
</glyph>
<glyph name="four" format="1">
  <advance width="557"/>
  <unicode hex="0034"/>
  <outline>
    <contour>
      <point x="336" y="35" type="line"/>
      <point x="207" y="35" type="line"/>
      <point x="207" y="0" type="line"/>
      <point x="336" y="0" type="line"/>
    </contour>
    <contour>
      <point x="336" y="0" type="line"/>
      <point x="459" y="0" type="line"/>
      <point x="459" y="35" type="line"/>
      <point x="336" y="35" type="line"/>
    </contour>
    <contour>
      <point x="57" y="270" type="line"/>
      <point x="351" y="711" type="line"/>
      <point x="316" y="718" type="line"/>
      <point x="33" y="296" type="line"/>
    </contour>
    <contour>
      <point x="507" y="296" type="line"/>
      <point x="33" y="296" type="line"/>
      <point x="33" y="259" type="line"/>
      <point x="507" y="259" type="line"/>
    </contour>
    <contour>
      <point x="358" y="7" type="line"/>
      <point x="358" y="718" type="line"/>
      <point x="316" y="718" type="line"/>
      <point x="316" y="7" type="line"/>
    </contour>
  </outline>
</glyph>
<glyph name="five" format="1">
  <advance width="478"/>
  <unicode hex="0035"/>
  <outline>
    <contour>
      <point x="95" y="722" type="curve"/>
      <point x="95" y="620"/>
      <point x="95" y="514"/>
      <point x="95" y="400" type="curve"/>
      <point x="135" y="387"/>
      <point x="95" y="400"/>
      <point x="135" y="387" type="curve"/>
      <point x="135" y="487"/>
      <point x="135" y="588"/>
      <point x="135" y="687" type="curve"/>
      <point x="95" y="722"/>
      <point x="135" y="687"/>
    </contour>
    <contour>
      <point x="135" y="387" type="curve"/>
      <point x="154" y="401"/>
      <point x="195" y="414"/>
      <point x="227" y="414" type="curve"/>
      <point x="328" y="414"/>
      <point x="377" y="334"/>
      <point x="377" y="227" type="curve"/>
      <point x="377" y="119"/>
      <point x="318" y="33"/>
      <point x="215" y="33" type="curve"/>
      <point x="162" y="33"/>
      <point x="125" y="48"/>
      <point x="77" y="76" type="curve"/>
      <point x="55" y="44"/>
      <point x="77" y="76"/>
      <point x="55" y="44" type="curve"/>
      <point x="105" y="13"/>
      <point x="153" y="-5"/>
      <point x="213" y="-5" type="curve"/>
      <point x="342" y="-5"/>
      <point x="420" y="94"/>
      <point x="420" y="227" type="curve"/>
      <point x="420" y="355"/>
      <point x="354" y="452"/>
      <point x="231" y="452" type="curve"/>
      <point x="183" y="452"/>
      <point x="128" y="435"/>
      <point x="95" y="403" type="curve"/>
      <point x="135" y="387"/>
      <point x="95" y="403"/>
    </contour>
    <contour>
      <point x="398" y="722" type="curve"/>
      <point x="295" y="722"/>
      <point x="198" y="722"/>
      <point x="95" y="722" type="curve"/>
      <point x="135" y="687"/>
      <point x="95" y="722"/>
      <point x="135" y="687" type="curve"/>
      <point x="224" y="687"/>
      <point x="309" y="687"/>
      <point x="398" y="687" type="curve"/>
      <point x="398" y="722"/>
      <point x="398" y="687"/>
    </contour>
  </outline>
</glyph>
<glyph name="six" format="1">
  <advance width="528"/>
  <unicode hex="0036"/>
  <outline>
    <contour>
      <point x="96" y="228" type="curve"/>
      <point x="121" y="308"/>
      <point x="179" y="378"/>
      <point x="271" y="378" type="curve"/>
      <point x="370" y="378"/>
      <point x="419" y="311"/>
      <point x="419" y="206" type="curve"/>
      <point x="419" y="111"/>
      <point x="370" y="34"/>
      <point x="274" y="34" type="curve"/>
      <point x="157" y="34"/>
      <point x="102" y="120"/>
      <point x="102" y="245" type="curve"/>
      <point x="102" y="481"/>
      <point x="242" y="626"/>
      <point x="465" y="701" type="curve"/>
      <point x="452" y="734"/>
      <point x="465" y="701"/>
      <point x="452" y="734" type="curve"/>
      <point x="214" y="657"/>
      <point x="60" y="503"/>
      <point x="60" y="243" type="curve"/>
      <point x="60" y="95"/>
      <point x="132" y="-6"/>
      <point x="273" y="-6" type="curve"/>
      <point x="397" y="-6"/>
      <point x="463" y="79"/>
      <point x="463" y="206" type="curve"/>
      <point x="463" y="333"/>
      <point x="396" y="415"/>
      <point x="276" y="415" type="curve"/>
      <point x="164" y="415"/>
      <point x="97" y="337"/>
      <point x="69" y="242" type="curve"/>
      <point x="94" y="228"/>
      <point x="71" y="242"/>
    </contour>
  </outline>
</glyph>
<glyph name="nine" format="1">
  <advance width="528"/>
  <unicode hex="0039"/>
  <outline>
    <contour>
      <point x="433" y="489" type="curve"/>
      <point x="401" y="409"/>
      <point x="353" y="344"/>
      <point x="258" y="344" type="curve"/>
      <point x="158" y="344"/>
      <point x="107" y="412"/>
      <point x="107" y="517" type="curve"/>
      <point x="107" y="619"/>
      <point x="157" y="688"/>
      <point x="252" y="688" type="curve"/>
      <point x="370" y="688"/>
      <point x="425" y="601"/>
      <point x="425" y="477" type="curve"/>
      <point x="425" y="241"/>
      <point x="296" y="97"/>
      <point x="67" y="22" type="curve"/>
      <point x="81" y="-15"/>
      <point x="67" y="22"/>
      <point x="81" y="-15" type="curve"/>
      <point x="325" y="63"/>
      <point x="467" y="219"/>
      <point x="467" y="479" type="curve"/>
      <point x="467" y="627"/>
      <point x="397" y="728"/>
      <point x="254" y="728" type="curve"/>
      <point x="130" y="728"/>
      <point x="66" y="643"/>
      <point x="66" y="516" type="curve"/>
      <point x="66" y="389"/>
      <point x="131" y="307"/>
      <point x="255" y="307" type="curve"/>
      <point x="363" y="307"/>
      <point x="422" y="377"/>
      <point x="456" y="477" type="curve"/>
      <point x="433" y="489"/>
      <point x="456" y="477"/>
    </contour>
  </outline>
</glyph>
<glyph name="colon" format="1">
  <advance width="224"/>
  <unicode hex="003A"/>
  <outline>
    <contour>
      <point x="139" y="407" type="curve"/>
      <point x="139" y="423"/>
      <point x="128" y="433"/>
      <point x="111" y="433" type="curve"/>
      <point x="95" y="433"/>
      <point x="85" y="423"/>
      <point x="85" y="407" type="curve"/>
      <point x="133" y="407"/>
      <point x="90" y="407"/>
      <point x="139" y="407" type="curve"/>
      <point x="139" y="390"/>
      <point x="128" y="382"/>
      <point x="111" y="382" type="curve"/>
      <point x="95" y="382"/>
      <point x="85" y="390"/>
      <point x="85" y="407" type="curve"/>
      <point x="133" y="407"/>
      <point x="90" y="407"/>
    </contour>
    <contour>
      <point x="139" y="21" type="curve"/>
      <point x="139" y="37"/>
      <point x="128" y="46"/>
      <point x="111" y="46" type="curve"/>
      <point x="95" y="46"/>
      <point x="85" y="36"/>
      <point x="85" y="21" type="curve"/>
      <point x="133" y="21"/>
      <point x="90" y="21"/>
      <point x="139" y="21" type="curve"/>
      <point x="139" y="4"/>
      <point x="128" y="-5"/>
      <point x="111" y="-5" type="curve"/>
      <point x="94" y="-5"/>
      <point x="85" y="4"/>
      <point x="85" y="21" type="curve"/>
      <point x="133" y="21"/>
      <point x="90" y="21"/>
    </contour>
  </outline>
</glyph>
<glyph name="semicolon" format="1">
  <advance width="260"/>
  <unicode hex="003B"/>
  <outline>
    <contour>
      <point x="91" y="-110" type="line"/>
      <point x="129" y="-89"/>
      <point x="159" y="-54"/>
      <point x="159" y="4" type="curve"/>
      <point x="159" y="34"/>
      <point x="150" y="57"/>
      <point x="126" y="57" type="curve"/>
      <point x="108" y="57"/>
      <point x="97" y="48"/>
      <point x="97" y="31" type="curve"/>
      <point x="97" y="16"/>
      <point x="104" y="7"/>
      <point x="121" y="2" type="curve"/>
      <point x="120" y="-22"/>
      <point x="110" y="-61"/>
      <point x="77" y="-83" type="curve"/>
    </contour>
    <contour>
      <point x="157" y="420" type="curve"/>
      <point x="157" y="437"/>
      <point x="145" y="446"/>
      <point x="129" y="446" type="curve"/>
      <point x="113" y="446"/>
      <point x="103" y="436"/>
      <point x="103" y="420" type="curve"/>
      <point x="151" y="420"/>
      <point x="108" y="420"/>
      <point x="157" y="420" type="curve"/>
      <point x="157" y="404"/>
      <point x="145" y="395"/>
      <point x="129" y="395" type="curve"/>
      <point x="113" y="395"/>
      <point x="103" y="404"/>
      <point x="103" y="420" type="curve"/>
      <point x="151" y="420"/>
      <point x="108" y="420"/>
    </contour>
  </outline>
</glyph>
<glyph name="less" format="1">
  <advance width="642"/>
  <unicode hex="003C"/>
  <outline>
    <contour>
      <point x="573" y="589" type="curve"/>
      <point x="396" y="499"/>
      <point x="219" y="409"/>
      <point x="41" y="319" type="curve"/>
      <point x="41" y="281"/>
      <point x="41" y="319"/>
      <point x="41" y="281" type="curve"/>
      <point x="219" y="371"/>
      <point x="396" y="461"/>
      <point x="573" y="551" type="curve"/>
      <point x="573" y="589"/>
      <point x="573" y="551"/>
    </contour>
    <contour>
      <point x="582" y="55" type="curve"/>
      <point x="402" y="143"/>
      <point x="221" y="231"/>
      <point x="41" y="319" type="curve"/>
      <point x="41" y="281"/>
      <point x="41" y="319"/>
      <point x="41" y="281" type="curve"/>
      <point x="221" y="193"/>
      <point x="402" y="105"/>
      <point x="582" y="17" type="curve"/>
      <point x="582" y="55"/>
      <point x="582" y="17"/>
    </contour>
  </outline>
</glyph>
<glyph name="equal" format="1">
  <advance width="724"/>
  <unicode hex="003D"/>
  <outline>
    <contour>
      <point x="87" y="199" type="curve"/>
      <point x="269" y="199"/>
      <point x="453" y="199"/>
      <point x="637" y="199" type="curve"/>
      <point x="637" y="236"/>
      <point x="637" y="199"/>
      <point x="637" y="236" type="curve"/>
      <point x="453" y="236"/>
      <point x="269" y="236"/>
      <point x="87" y="236" type="curve"/>
      <point x="87" y="199"/>
      <point x="87" y="236"/>
    </contour>
    <contour>
      <point x="87" y="421" type="curve"/>
      <point x="269" y="421"/>
      <point x="453" y="421"/>
      <point x="637" y="421" type="curve"/>
      <point x="637" y="458"/>
      <point x="637" y="421"/>
      <point x="637" y="458" type="curve"/>
      <point x="453" y="458"/>
      <point x="269" y="458"/>
      <point x="87" y="458" type="curve"/>
      <point x="87" y="421"/>
      <point x="87" y="458"/>
    </contour>
  </outline>
</glyph>
<glyph name="greater" format="1">
  <advance width="641"/>
  <unicode hex="003E"/>
  <outline>
    <contour>
      <point x="67" y="17" type="curve"/>
      <point x="244" y="107"/>
      <point x="423" y="197"/>
      <point x="601" y="287" type="curve"/>
      <point x="601" y="325"/>
      <point x="601" y="287"/>
      <point x="601" y="325" type="curve"/>
      <point x="423" y="235"/>
      <point x="244" y="145"/>
      <point x="67" y="55" type="curve"/>
      <point x="67" y="17"/>
      <point x="67" y="55"/>
    </contour>
    <contour>
      <point x="59" y="551" type="curve"/>
      <point x="238" y="463"/>
      <point x="420" y="375"/>
      <point x="601" y="287" type="curve"/>
      <point x="601" y="325"/>
      <point x="601" y="287"/>
      <point x="601" y="325" type="curve"/>
      <point x="420" y="413"/>
      <point x="238" y="501"/>
      <point x="59" y="589" type="curve"/>
      <point x="59" y="551"/>
      <point x="59" y="589"/>
    </contour>
  </outline>
</glyph>
<glyph name="at" format="1">
  <advance width="737"/>
  <unicode hex="0040"/>
  <outline>
    <contour>
      <point x="514" y="-82" type="curve"/>
      <point x="469" y="-110"/>
      <point x="434" y="-118"/>
      <point x="380" y="-118" type="curve"/>
      <point x="192" y="-118"/>
      <point x="99" y="5"/>
      <point x="99" y="199" type="curve"/>
      <point x="99" y="389"/>
      <point x="193" y="512"/>
      <point x="377" y="512" type="curve"/>
      <point x="548" y="512"/>
      <point x="635" y="390"/>
      <point x="635" y="212" type="curve"/>
      <point x="635" y="132"/>
      <point x="627" y="62"/>
      <point x="573" y="62" type="curve"/>
      <point x="513" y="62"/>
      <point x="504" y="128"/>
      <point x="504" y="204" type="curve"/>
      <point x="504" y="307"/>
      <point x="462" y="381"/>
      <point x="366" y="381" type="curve"/>
      <point x="264" y="381"/>
      <point x="218" y="310"/>
      <point x="218" y="205" type="curve"/>
      <point x="218" y="94"/>
      <point x="258" y="18"/>
      <point x="361" y="18" type="curve"/>
      <point x="454" y="18"/>
      <point x="485" y="93"/>
      <point x="497" y="193" type="curve"/>
      <point x="472" y="199"/>
      <point x="497" y="193"/>
      <point x="472" y="199" type="curve"/>
      <point x="455" y="121"/>
      <point x="436" y="53"/>
      <point x="366" y="53" type="curve"/>
      <point x="285" y="53"/>
      <point x="257" y="117"/>
      <point x="257" y="206" type="curve"/>
      <point x="257" y="289"/>
      <point x="286" y="345"/>
      <point x="362" y="345" type="curve"/>
      <point x="439" y="345"/>
      <point x="466" y="285"/>
      <point x="466" y="203" type="curve"/>
      <point x="466" y="107"/>
      <point x="483" y="30"/>
      <point x="570" y="30" type="curve"/>
      <point x="658" y="30"/>
      <point x="674" y="111"/>
      <point x="674" y="214" type="curve"/>
      <point x="674" y="417"/>
      <point x="577" y="548"/>
      <point x="379" y="548" type="curve"/>
      <point x="168" y="548"/>
      <point x="59" y="414"/>
      <point x="59" y="198" type="curve"/>
      <point x="59" y="-18"/>
      <point x="168" y="-153"/>
      <point x="377" y="-153" type="curve"/>
      <point x="439" y="-153"/>
      <point x="480" y="-144"/>
      <point x="531" y="-113" type="curve"/>
      <point x="514" y="-82"/>
      <point x="531" y="-113"/>
    </contour>
  </outline>
</glyph>
<glyph name="B" format="1">
  <advance width="604"/>
  <unicode hex="0042"/>
  <outline>
    <contour>
      <point x="174" y="722" type="curve"/>
      <point x="126" y="722"/>
      <point x="92" y="722"/>
      <point x="45" y="722" type="curve"/>
      <point x="45" y="687"/>
      <point x="45" y="722"/>
      <point x="45" y="687" type="curve"/>
      <point x="187" y="687"/>
      <point x="32" y="687"/>
      <point x="174" y="687" type="curve"/>
      <point x="174" y="722"/>
      <point x="174" y="687"/>
    </contour>
    <contour>
      <point x="173" y="35" type="curve"/>
      <point x="31" y="35"/>
      <point x="185" y="35"/>
      <point x="44" y="35" type="curve"/>
      <point x="44" y="0"/>
      <point x="44" y="35"/>
      <point x="44" y="0" type="curve"/>
      <point x="91" y="0"/>
      <point x="125" y="0"/>
      <point x="173" y="0" type="curve"/>
      <point x="173" y="35"/>
      <point x="173" y="0"/>
    </contour>
    <contour>
      <point x="164" y="687" type="curve"/>
      <point x="223" y="687"/>
      <point x="270" y="687"/>
      <point x="328" y="687" type="curve"/>
      <point x="412" y="687"/>
      <point x="461" y="637"/>
      <point x="461" y="552" type="curve"/>
      <point x="461" y="470"/>
      <point x="403" y="427"/>
      <point x="319" y="427" type="curve"/>
      <point x="264" y="427"/>
      <point x="220" y="427"/>
      <point x="164" y="427" type="curve"/>
      <point x="164" y="407"/>
      <point x="164" y="411"/>
      <point x="164" y="391" type="curve"/>
      <point x="213" y="391"/>
      <point x="254" y="391"/>
      <point x="303" y="391" type="curve"/>
      <point x="414" y="391"/>
      <point x="503" y="442"/>
      <point x="503" y="551" type="curve"/>
      <point x="503" y="659"/>
      <point x="437" y="722"/>
      <point x="329" y="722" type="curve"/>
      <point x="270" y="722"/>
      <point x="223" y="722"/>
      <point x="164" y="722" type="curve"/>
      <point x="164" y="703"/>
      <point x="164" y="706"/>
    </contour>
    <contour>
      <point x="195" y="0" type="curve"/>
      <point x="195" y="241"/>
      <point x="195" y="481"/>
      <point x="195" y="722" type="curve"/>
      <point x="151" y="722"/>
      <point x="195" y="722"/>
      <point x="151" y="722" type="curve"/>
      <point x="151" y="481"/>
      <point x="151" y="241"/>
      <point x="151" y="0" type="curve"/>
      <point x="195" y="0"/>
      <point x="151" y="0"/>
    </contour>
    <contour>
      <point x="164" y="391" type="curve"/>
      <point x="220" y="391"/>
      <point x="264" y="391"/>
      <point x="319" y="391" type="curve"/>
      <point x="434" y="391"/>
      <point x="502" y="324"/>
      <point x="502" y="207" type="curve"/>
      <point x="502" y="98"/>
      <point x="438" y="35"/>
      <point x="329" y="35" type="curve"/>
      <point x="270" y="35"/>
      <point x="224" y="35"/>
      <point x="164" y="35" type="curve"/>
      <point x="164" y="16"/>
      <point x="164" y="19"/>
      <point x="164" y="0" type="curve"/>
      <point x="224" y="0"/>
      <point x="271" y="0"/>
      <point x="330" y="0" type="curve"/>
      <point x="464" y="0"/>
      <point x="544" y="75"/>
      <point x="544" y="207" type="curve"/>
      <point x="544" y="351"/>
      <point x="446" y="427"/>
      <point x="303" y="427" type="curve"/>
      <point x="254" y="427"/>
      <point x="213" y="427"/>
      <point x="164" y="427" type="curve"/>
      <point x="164" y="407"/>
      <point x="164" y="411"/>
    </contour>
  </outline>
</glyph>
<glyph name="F" format="1">
  <advance width="571"/>
  <unicode hex="0046"/>
  <outline>
    <contour>
      <point x="174" y="0" type="curve"/>
      <point x="221" y="0"/>
      <point x="174" y="0"/>
      <point x="316" y="0" type="curve"/>
      <point x="316" y="35"/>
      <point x="316" y="0"/>
      <point x="316" y="35" type="curve"/>
      <point x="174" y="35"/>
      <point x="316" y="35"/>
      <point x="174" y="35" type="curve"/>
      <point x="174" y="0"/>
      <point x="174" y="35"/>
    </contour>
    <contour>
      <point x="174" y="722" type="curve"/>
      <point x="126" y="722"/>
      <point x="92" y="722"/>
      <point x="45" y="722" type="curve"/>
      <point x="45" y="687"/>
      <point x="45" y="722"/>
      <point x="45" y="687" type="curve"/>
      <point x="186" y="687"/>
      <point x="32" y="687"/>
      <point x="174" y="687" type="curve"/>
      <point x="174" y="722"/>
      <point x="174" y="687"/>
    </contour>
    <contour>
      <point x="174" y="35" type="curve"/>
      <point x="32" y="35"/>
      <point x="186" y="35"/>
      <point x="45" y="35" type="curve"/>
      <point x="45" y="0"/>
      <point x="45" y="35"/>
      <point x="45" y="0" type="curve"/>
      <point x="92" y="0"/>
      <point x="126" y="0"/>
      <point x="174" y="0" type="curve"/>
      <point x="174" y="35"/>
      <point x="174" y="0"/>
    </contour>
    <contour>
      <point x="488" y="704" type="curve"/>
      <point x="488" y="584"/>
      <point x="488" y="710"/>
      <point x="488" y="590" type="curve"/>
      <point x="524" y="590"/>
      <point x="488" y="590"/>
      <point x="524" y="590" type="curve"/>
      <point x="524" y="710"/>
      <point x="524" y="584"/>
      <point x="524" y="704" type="curve"/>
      <point x="488" y="704"/>
      <point x="524" y="704"/>
    </contour>
    <contour>
      <point x="177" y="356" type="curve"/>
      <point x="272" y="356"/>
      <point x="365" y="356"/>
      <point x="459" y="356" type="curve"/>
      <point x="459" y="391"/>
      <point x="459" y="356"/>
      <point x="459" y="391" type="curve"/>
      <point x="365" y="391"/>
      <point x="272" y="391"/>
      <point x="177" y="391" type="curve"/>
      <point x="177" y="356"/>
      <point x="177" y="391"/>
    </contour>
    <contour>
      <point x="195" y="0" type="curve"/>
      <point x="195" y="722" type="line"/>
      <point x="153" y="722"/>
      <point x="195" y="722"/>
      <point x="153" y="722" type="curve"/>
      <point x="153" y="481"/>
      <point x="153" y="241"/>
      <point x="153" y="0" type="curve"/>
      <point x="195" y="0"/>
      <point x="153" y="0"/>
    </contour>
    <contour>
      <point x="164" y="687" type="curve"/>
      <point x="284" y="687"/>
      <point x="403" y="687"/>
      <point x="524" y="687" type="curve"/>
      <point x="524" y="722"/>
      <point x="524" y="687"/>
      <point x="524" y="722" type="curve"/>
      <point x="403" y="722"/>
      <point x="284" y="722"/>
      <point x="164" y="722" type="curve"/>
      <point x="164" y="687"/>
      <point x="164" y="722"/>
    </contour>
  </outline>
</glyph>
<glyph name="G" format="1">
  <advance width="694"/>
  <unicode hex="0047"/>
  <outline>
    <contour>
      <point x="361" y="818" type="move" name="top"/>
    </contour>
    <contour>
      <point x="380" y="-48" type="move" name="bottom"/>
    </contour>
    <contour>
      <point x="574" y="642" type="curve"/>
      <point x="574" y="520"/>
      <point x="574" y="647"/>
      <point x="574" y="525" type="curve"/>
      <point x="609" y="525"/>
      <point x="574" y="525"/>
      <point x="609" y="525" type="curve"/>
      <point x="609" y="647"/>
      <point x="609" y="520"/>
      <point x="609" y="642" type="curve"/>
      <point x="574" y="642"/>
      <point x="609" y="642"/>
    </contour>
    <contour>
      <point x="612" y="327" type="curve"/>
      <point x="548" y="327"/>
      <point x="483" y="327"/>
      <point x="419" y="327" type="curve"/>
      <point x="419" y="291"/>
      <point x="419" y="327"/>
      <point x="419" y="291" type="curve"/>
      <point x="483" y="291"/>
      <point x="548" y="291"/>
      <point x="612" y="291" type="curve"/>
      <point x="612" y="327"/>
      <point x="612" y="291"/>
    </contour>
    <contour>
      <point x="624" y="77" type="curve"/>
      <point x="624" y="161"/>
      <point x="624" y="243"/>
      <point x="624" y="327" type="curve"/>
      <point x="586" y="327"/>
      <point x="624" y="327"/>
      <point x="586" y="327" type="curve"/>
      <point x="586" y="243"/>
      <point x="586" y="161"/>
      <point x="586" y="77" type="curve"/>
      <point x="624" y="77"/>
      <point x="586" y="77"/>
    </contour>
    <contour>
      <point x="609" y="642" type="curve"/>
      <point x="532" y="699"/>
      <point x="458" y="727"/>
      <point x="362" y="727" type="curve"/>
      <point x="157" y="727"/>
      <point x="63" y="582"/>
      <point x="63" y="364" type="curve"/>
      <point x="63" y="141"/>
      <point x="162" y="-5"/>
      <point x="372" y="-5" type="curve"/>
      <point x="474" y="-5"/>
      <point x="538" y="23"/>
      <point x="624" y="77" type="curve"/>
      <point x="602" y="106"/>
      <point x="624" y="77"/>
      <point x="602" y="106" type="curve"/>
      <point x="534" y="61"/>
      <point x="463" y="33"/>
      <point x="372" y="33" type="curve"/>
      <point x="185" y="33"/>
      <point x="106" y="168"/>
      <point x="106" y="368" type="curve"/>
      <point x="106" y="558"/>
      <point x="183" y="689"/>
      <point x="362" y="689" type="curve"/>
      <point x="450" y="689"/>
      <point x="517" y="664"/>
      <point x="588" y="613" type="curve"/>
      <point x="609" y="642"/>
      <point x="588" y="613"/>
    </contour>
  </outline>
</glyph>
<glyph name="H" format="1">
  <advance width="781"/>
  <unicode hex="0048"/>
  <outline>
    <contour>
      <point x="612" y="687" type="curve"/>
      <point x="756" y="687"/>
      <point x="598" y="687"/>
      <point x="742" y="687" type="curve"/>
      <point x="742" y="722"/>
      <point x="742" y="687"/>
      <point x="742" y="722" type="curve"/>
      <point x="694" y="722"/>
      <point x="660" y="722"/>
      <point x="612" y="722" type="curve"/>
      <point x="612" y="687"/>
      <point x="612" y="722"/>
    </contour>
    <contour>
      <point x="612" y="0" type="curve"/>
      <point x="660" y="0"/>
      <point x="694" y="0"/>
      <point x="742" y="0" type="curve"/>
      <point x="742" y="35"/>
      <point x="742" y="0"/>
      <point x="742" y="35" type="curve"/>
      <point x="598" y="35"/>
      <point x="756" y="35"/>
      <point x="612" y="35" type="curve"/>
      <point x="612" y="0"/>
      <point x="612" y="35"/>
    </contour>
    <contour>
      <point x="612" y="35" type="curve"/>
      <point x="469" y="35"/>
      <point x="626" y="35"/>
      <point x="483" y="35" type="curve"/>
      <point x="483" y="0"/>
      <point x="483" y="35"/>
      <point x="483" y="0" type="curve"/>
      <point x="530" y="0"/>
      <point x="565" y="0"/>
      <point x="612" y="0" type="curve"/>
      <point x="612" y="35"/>
      <point x="612" y="0"/>
    </contour>
    <contour>
      <point x="612" y="722" type="curve"/>
      <point x="565" y="722"/>
      <point x="530" y="722"/>
      <point x="483" y="722" type="curve"/>
      <point x="483" y="687"/>
      <point x="483" y="722"/>
      <point x="483" y="687" type="curve"/>
      <point x="626" y="687"/>
      <point x="469" y="687"/>
      <point x="612" y="687" type="curve"/>
      <point x="612" y="722"/>
      <point x="612" y="687"/>
    </contour>
    <contour>
      <point x="170" y="687" type="curve"/>
      <point x="313" y="687"/>
      <point x="157" y="687"/>
      <point x="300" y="687" type="curve"/>
      <point x="300" y="722"/>
      <point x="300" y="687"/>
      <point x="300" y="722" type="curve"/>
      <point x="253" y="722"/>
      <point x="218" y="722"/>
      <point x="170" y="722" type="curve"/>
      <point x="170" y="687"/>
      <point x="170" y="722"/>
    </contour>
    <contour>
      <point x="170" y="722" type="curve"/>
      <point x="122" y="722"/>
      <point x="88" y="722"/>
      <point x="41" y="722" type="curve"/>
      <point x="41" y="687"/>
      <point x="41" y="722"/>
      <point x="41" y="687" type="curve"/>
      <point x="183" y="687"/>
      <point x="27" y="687"/>
      <point x="170" y="687" type="curve"/>
      <point x="170" y="722"/>
      <point x="170" y="687"/>
    </contour>
    <contour>
      <point x="170" y="0" type="curve"/>
      <point x="218" y="0"/>
      <point x="157" y="0"/>
      <point x="300" y="0" type="curve"/>
      <point x="300" y="35"/>
      <point x="300" y="0"/>
      <point x="300" y="35" type="curve"/>
      <point x="157" y="35"/>
      <point x="313" y="35"/>
      <point x="170" y="35" type="curve"/>
      <point x="170" y="0"/>
      <point x="170" y="35"/>
    </contour>
    <contour>
      <point x="170" y="35" type="curve"/>
      <point x="27" y="35"/>
      <point x="183" y="35"/>
      <point x="41" y="35" type="curve"/>
      <point x="41" y="0"/>
      <point x="41" y="35"/>
      <point x="41" y="0" type="curve"/>
      <point x="88" y="0"/>
      <point x="122" y="0"/>
      <point x="170" y="0" type="curve"/>
      <point x="170" y="35"/>
      <point x="170" y="0"/>
    </contour>
    <contour>
      <point x="192" y="0" type="curve"/>
      <point x="192" y="722" type="line"/>
      <point x="149" y="722"/>
      <point x="192" y="722"/>
      <point x="149" y="722" type="curve"/>
      <point x="149" y="481"/>
      <point x="149" y="241"/>
      <point x="149" y="0" type="curve"/>
      <point x="192" y="0"/>
      <point x="149" y="0"/>
    </contour>
    <contour>
      <point x="609" y="381" type="curve"/>
      <point x="463" y="381"/>
      <point x="317" y="381"/>
      <point x="170" y="381" type="curve"/>
      <point x="170" y="345"/>
      <point x="170" y="381"/>
      <point x="170" y="345" type="curve"/>
      <point x="317" y="345"/>
      <point x="463" y="345"/>
      <point x="609" y="345" type="curve"/>
      <point x="609" y="381"/>
      <point x="609" y="345"/>
    </contour>
    <contour>
      <point x="632" y="8" type="curve"/>
      <point x="632" y="243"/>
      <point x="632" y="479"/>
      <point x="632" y="714" type="curve"/>
      <point x="590" y="714"/>
      <point x="632" y="714"/>
      <point x="590" y="714" type="curve"/>
      <point x="590" y="8" type="line"/>
      <point x="632" y="8"/>
      <point x="590" y="8"/>
    </contour>
  </outline>
</glyph>
<glyph name="J" format="1">
  <advance width="438"/>
  <unicode hex="004A"/>
  <outline>
    <contour>
      <point x="288" y="722" type="curve"/>
      <point x="241" y="722"/>
      <point x="208" y="722"/>
      <point x="161" y="722" type="curve"/>
      <point x="161" y="687"/>
      <point x="161" y="722"/>
      <point x="161" y="687" type="curve"/>
      <point x="302" y="687"/>
      <point x="147" y="687"/>
      <point x="288" y="687" type="curve"/>
      <point x="288" y="722"/>
      <point x="288" y="687"/>
    </contour>
    <contour>
      <point x="288" y="687" type="curve"/>
      <point x="426" y="687"/>
      <point x="274" y="687"/>
      <point x="413" y="687" type="curve"/>
      <point x="413" y="722"/>
      <point x="413" y="687"/>
      <point x="413" y="722" type="curve"/>
      <point x="367" y="722"/>
      <point x="334" y="722"/>
      <point x="288" y="722" type="curve"/>
      <point x="288" y="687"/>
      <point x="288" y="722"/>
    </contour>
    <contour>
      <point x="27" y="40" type="curve"/>
      <point x="55" y="17"/>
      <point x="91" y="-4"/>
      <point x="139" y="-4" type="curve"/>
      <point x="261" y="-4"/>
      <point x="308" y="81"/>
      <point x="308" y="220" type="curve"/>
      <point x="308" y="401"/>
      <point x="308" y="540"/>
      <point x="308" y="722" type="curve"/>
      <point x="275" y="722"/>
      <point x="298" y="722"/>
      <point x="266" y="722" type="curve"/>
      <point x="266" y="540"/>
      <point x="266" y="401"/>
      <point x="266" y="220" type="curve"/>
      <point x="266" y="112"/>
      <point x="237" y="31"/>
      <point x="139" y="31" type="curve"/>
      <point x="100" y="31"/>
      <point x="74" y="49"/>
      <point x="47" y="67" type="curve"/>
      <point x="31" y="47"/>
      <point x="42" y="61"/>
    </contour>
  </outline>
</glyph>
<glyph name="K" format="1">
  <advance width="650"/>
  <unicode hex="004B"/>
  <outline>
    <contour>
      <point x="368" y="-49" type="move" name="bottom"/>
    </contour>
    <contour>
      <point x="499" y="722" type="curve"/>
      <point x="451" y="722"/>
      <point x="423" y="722"/>
      <point x="376" y="722" type="curve"/>
      <point x="376" y="687"/>
      <point x="376" y="722"/>
      <point x="376" y="687" type="curve"/>
      <point x="519" y="687"/>
      <point x="355" y="687"/>
      <point x="499" y="687" type="curve"/>
      <point x="499" y="722"/>
      <point x="499" y="687"/>
    </contour>
    <contour>
      <point x="517" y="0" type="curve"/>
      <point x="566" y="0"/>
      <point x="588" y="0"/>
      <point x="637" y="0" type="curve"/>
      <point x="637" y="35"/>
      <point x="637" y="0"/>
      <point x="637" y="35" type="curve"/>
      <point x="489" y="35"/>
      <point x="665" y="35"/>
      <point x="517" y="35" type="curve"/>
      <point x="517" y="0"/>
      <point x="517" y="35"/>
    </contour>
    <contour>
      <point x="496" y="687" type="curve"/>
      <point x="636" y="687"/>
      <point x="473" y="687"/>
      <point x="614" y="687" type="curve"/>
      <point x="614" y="722"/>
      <point x="614" y="687"/>
      <point x="614" y="722" type="curve"/>
      <point x="567" y="722"/>
      <point x="542" y="722"/>
      <point x="496" y="722" type="curve"/>
      <point x="496" y="687"/>
      <point x="496" y="722"/>
    </contour>
    <contour>
      <point x="170" y="722" type="curve"/>
      <point x="122" y="722"/>
      <point x="88" y="722"/>
      <point x="41" y="722" type="curve"/>
      <point x="41" y="687"/>
      <point x="41" y="722"/>
      <point x="41" y="687" type="curve"/>
      <point x="183" y="687"/>
      <point x="27" y="687"/>
      <point x="170" y="687" type="curve"/>
      <point x="170" y="722"/>
      <point x="170" y="687"/>
    </contour>
    <contour>
      <point x="170" y="687" type="curve"/>
      <point x="313" y="687"/>
      <point x="147" y="687"/>
      <point x="289" y="687" type="curve"/>
      <point x="289" y="722"/>
      <point x="289" y="687"/>
      <point x="289" y="722" type="curve"/>
      <point x="241" y="722"/>
      <point x="217" y="722"/>
      <point x="170" y="722" type="curve"/>
      <point x="170" y="687"/>
      <point x="170" y="722"/>
    </contour>
    <contour>
      <point x="170" y="0" type="curve"/>
      <point x="218" y="0"/>
      <point x="146" y="0"/>
      <point x="291" y="0" type="curve"/>
      <point x="291" y="35"/>
      <point x="291" y="0"/>
      <point x="291" y="35" type="curve"/>
      <point x="146" y="35"/>
      <point x="315" y="35"/>
      <point x="170" y="35" type="curve"/>
      <point x="170" y="0"/>
      <point x="170" y="35"/>
    </contour>
    <contour>
      <point x="170" y="35" type="curve"/>
      <point x="27" y="35"/>
      <point x="183" y="35"/>
      <point x="41" y="35" type="curve"/>
      <point x="41" y="0"/>
      <point x="41" y="35"/>
      <point x="41" y="0" type="curve"/>
      <point x="88" y="0"/>
      <point x="122" y="0"/>
      <point x="170" y="0" type="curve"/>
      <point x="170" y="35"/>
      <point x="170" y="0"/>
    </contour>
    <contour>
      <point x="490" y="722" type="curve"/>
      <point x="175" y="380" type="line"/>
      <point x="229" y="380"/>
      <point x="174" y="380"/>
      <point x="228" y="380" type="curve"/>
      <point x="538" y="713" type="line"/>
      <point x="484" y="713"/>
      <point x="543" y="722"/>
    </contour>
    <contour>
      <point x="191" y="0" type="curve"/>
      <point x="191" y="722" type="line"/>
      <point x="149" y="722"/>
      <point x="191" y="722"/>
      <point x="149" y="722" type="curve"/>
      <point x="149" y="481"/>
      <point x="149" y="241"/>
      <point x="149" y="0" type="curve"/>
      <point x="191" y="0"/>
      <point x="149" y="0"/>
    </contour>
    <contour>
      <point x="561" y="8" type="curve"/>
      <point x="228" y="380" type="line"/>
      <point x="174" y="380"/>
      <point x="229" y="380"/>
      <point x="175" y="380" type="curve"/>
      <point x="510" y="0" type="line"/>
      <point x="566" y="0"/>
      <point x="504" y="8"/>
    </contour>
  </outline>
</glyph>
<glyph name="M" format="1">
  <advance width="909"/>
  <unicode hex="004D"/>
  <outline>
    <contour>
      <point x="757" y="0" type="curve"/>
      <point x="804" y="0"/>
      <point x="838" y="0"/>
      <point x="885" y="0" type="curve"/>
      <point x="885" y="35"/>
      <point x="885" y="0"/>
      <point x="885" y="35" type="curve"/>
      <point x="743" y="35"/>
      <point x="899" y="35"/>
      <point x="757" y="35" type="curve"/>
      <point x="757" y="0"/>
      <point x="757" y="35"/>
    </contour>
    <contour>
      <point x="757" y="35" type="curve"/>
      <point x="615" y="35"/>
      <point x="771" y="35"/>
      <point x="629" y="35" type="curve"/>
      <point x="629" y="0"/>
      <point x="629" y="35"/>
      <point x="629" y="0" type="curve"/>
      <point x="675" y="0"/>
      <point x="709" y="0"/>
      <point x="757" y="0" type="curve"/>
      <point x="757" y="35"/>
      <point x="757" y="0"/>
    </contour>
    <contour>
      <point x="154" y="35" type="curve"/>
      <point x="12" y="35"/>
      <point x="168" y="35"/>
      <point x="25" y="35" type="curve"/>
      <point x="25" y="0"/>
      <point x="25" y="35"/>
      <point x="25" y="0" type="curve"/>
      <point x="72" y="0"/>
      <point x="106" y="0"/>
      <point x="154" y="0" type="curve"/>
      <point x="154" y="35"/>
      <point x="154" y="0"/>
    </contour>
    <contour>
      <point x="205" y="722" type="curve"/>
      <point x="157" y="722"/>
      <point x="124" y="722"/>
      <point x="77" y="722" type="curve"/>
      <point x="77" y="687"/>
      <point x="77" y="722"/>
      <point x="77" y="687" type="curve"/>
      <point x="219" y="687"/>
      <point x="63" y="687"/>
      <point x="205" y="687" type="curve"/>
      <point x="205" y="722"/>
      <point x="205" y="687"/>
    </contour>
    <contour>
      <point x="703" y="687" type="curve"/>
      <point x="846" y="687"/>
      <point x="690" y="687"/>
      <point x="833" y="687" type="curve"/>
      <point x="833" y="722"/>
      <point x="833" y="687"/>
      <point x="833" y="722" type="curve"/>
      <point x="785" y="722"/>
      <point x="751" y="722"/>
      <point x="703" y="722" type="curve"/>
      <point x="703" y="687"/>
      <point x="703" y="722"/>
    </contour>
    <contour>
      <point x="154" y="0" type="curve"/>
      <point x="201" y="0"/>
      <point x="140" y="0"/>
      <point x="281" y="0" type="curve"/>
      <point x="281" y="35"/>
      <point x="281" y="0"/>
      <point x="281" y="35" type="curve"/>
      <point x="140" y="35"/>
      <point x="295" y="35"/>
      <point x="154" y="35" type="curve"/>
      <point x="154" y="0"/>
      <point x="154" y="35"/>
    </contour>
    <contour>
      <point x="778" y="0" type="curve"/>
      <point x="759" y="241"/>
      <point x="741" y="481"/>
      <point x="722" y="722" type="curve"/>
      <point x="684" y="722"/>
      <point x="722" y="722"/>
      <point x="684" y="722" type="curve"/>
      <point x="702" y="481"/>
      <point x="718" y="241"/>
      <point x="736" y="0" type="curve"/>
      <point x="778" y="0"/>
      <point x="736" y="0"/>
    </contour>
    <contour>
      <point x="173" y="0" type="curve"/>
      <point x="190" y="241"/>
      <point x="206" y="481"/>
      <point x="222" y="722" type="curve"/>
      <point x="184" y="722"/>
      <point x="222" y="722"/>
      <point x="184" y="722" type="curve"/>
      <point x="167" y="481"/>
      <point x="150" y="241"/>
      <point x="132" y="0" type="curve"/>
      <point x="173" y="0"/>
      <point x="132" y="0"/>
    </contour>
    <contour>
      <point x="471" y="0" type="curve"/>
      <point x="390" y="241"/>
      <point x="307" y="481"/>
      <point x="225" y="722" type="curve"/>
      <point x="186" y="722"/>
      <point x="224" y="722"/>
      <point x="186" y="722" type="curve"/>
      <point x="269" y="481"/>
      <point x="350" y="241"/>
      <point x="431" y="0" type="curve"/>
      <point x="471" y="0"/>
      <point x="431" y="0"/>
    </contour>
    <contour>
      <point x="479" y="0" type="curve"/>
      <point x="559" y="241"/>
      <point x="640" y="481"/>
      <point x="720" y="722" type="curve"/>
      <point x="682" y="722"/>
      <point x="719" y="722"/>
      <point x="681" y="722" type="curve"/>
      <point x="600" y="481"/>
      <point x="520" y="241"/>
      <point x="438" y="0" type="curve"/>
      <point x="479" y="0"/>
      <point x="438" y="0"/>
    </contour>
  </outline>
</glyph>
<glyph name="P" format="1">
  <advance width="567"/>
  <unicode hex="0050"/>
  <outline>
    <contour>
      <point x="175" y="722" type="curve"/>
      <point x="127" y="722"/>
      <point x="93" y="722"/>
      <point x="46" y="722" type="curve"/>
      <point x="46" y="687"/>
      <point x="46" y="722"/>
      <point x="46" y="687" type="curve"/>
      <point x="187" y="687"/>
      <point x="33" y="687"/>
      <point x="175" y="687" type="curve"/>
      <point x="175" y="722"/>
      <point x="175" y="687"/>
    </contour>
    <contour>
      <point x="175" y="35" type="curve"/>
      <point x="33" y="35"/>
      <point x="187" y="35"/>
      <point x="46" y="35" type="curve"/>
      <point x="46" y="0"/>
      <point x="46" y="35"/>
      <point x="46" y="0" type="curve"/>
      <point x="93" y="0"/>
      <point x="127" y="0"/>
      <point x="175" y="0" type="curve"/>
      <point x="175" y="35"/>
      <point x="175" y="0"/>
    </contour>
    <contour>
      <point x="175" y="0" type="curve"/>
      <point x="222" y="0"/>
      <point x="162" y="0"/>
      <point x="304" y="0" type="curve"/>
      <point x="304" y="35"/>
      <point x="304" y="0"/>
      <point x="304" y="35" type="curve"/>
      <point x="162" y="35"/>
      <point x="317" y="35"/>
      <point x="175" y="35" type="curve"/>
      <point x="175" y="0"/>
      <point x="175" y="35"/>
    </contour>
    <contour>
      <point x="169" y="321" type="curve"/>
      <point x="213" y="295"/>
      <point x="260" y="275"/>
      <point x="314" y="275" type="curve"/>
      <point x="439" y="278"/>
      <point x="512" y="358"/>
      <point x="512" y="492" type="curve"/>
      <point x="512" y="630"/>
      <point x="428" y="722"/>
      <point x="291" y="722" type="curve"/>
      <point x="253" y="722"/>
      <point x="215" y="722"/>
      <point x="177" y="722" type="curve"/>
      <point x="177" y="687"/>
      <point x="177" y="722"/>
      <point x="177" y="687" type="curve"/>
      <point x="213" y="687"/>
      <point x="250" y="687"/>
      <point x="285" y="687" type="curve"/>
      <point x="401" y="687"/>
      <point x="470" y="609"/>
      <point x="470" y="491" type="curve"/>
      <point x="470" y="385"/>
      <point x="414" y="311"/>
      <point x="313" y="311" type="curve"/>
      <point x="261" y="311"/>
      <point x="227" y="326"/>
      <point x="183" y="352" type="curve"/>
      <point x="170" y="322"/>
      <point x="183" y="352"/>
    </contour>
    <contour>
      <point x="195" y="0" type="curve"/>
      <point x="195" y="241"/>
      <point x="195" y="481"/>
      <point x="195" y="722" type="curve"/>
      <point x="152" y="722"/>
      <point x="195" y="722"/>
      <point x="152" y="722" type="curve"/>
      <point x="152" y="481"/>
      <point x="152" y="241"/>
      <point x="152" y="0" type="curve"/>
      <point x="195" y="0"/>
      <point x="152" y="0"/>
    </contour>
  </outline>
</glyph>
<glyph name="Q" format="1">
  <advance width="697"/>
  <unicode hex="0051"/>
  <outline>
    <contour>
      <point x="329" y="7" type="curve"/>
      <point x="415" y="-161"/>
      <point x="516" y="-236"/>
      <point x="695" y="-236" type="curve"/>
      <point x="695" y="-199"/>
      <point x="695" y="-236"/>
      <point x="695" y="-199" type="curve"/>
      <point x="534" y="-199"/>
      <point x="444" y="-128"/>
      <point x="366" y="25" type="curve"/>
      <point x="329" y="7"/>
      <point x="366" y="25"/>
    </contour>
    <contour>
      <point x="107" y="360" type="curve"/>
      <point x="107" y="544"/>
      <point x="170" y="689"/>
      <point x="339" y="689" type="curve"/>
      <point x="507" y="689"/>
      <point x="572" y="546"/>
      <point x="572" y="363" type="curve"/>
      <point x="572" y="178"/>
      <point x="511" y="33"/>
      <point x="342" y="33" type="curve"/>
      <point x="172" y="33"/>
      <point x="107" y="175"/>
      <point x="107" y="360" type="curve"/>
      <point x="65" y="360"/>
      <point x="107" y="360"/>
      <point x="65" y="360" type="curve"/>
      <point x="65" y="151"/>
      <point x="148" y="-5"/>
      <point x="340" y="-5" type="curve"/>
      <point x="534" y="-5"/>
      <point x="614" y="154"/>
      <point x="614" y="364" type="curve"/>
      <point x="614" y="572"/>
      <point x="534" y="728"/>
      <point x="342" y="728" type="curve"/>
      <point x="148" y="728"/>
      <point x="65" y="569"/>
      <point x="65" y="360" type="curve"/>
      <point x="107" y="360"/>
      <point x="65" y="360"/>
    </contour>
  </outline>
</glyph>
<glyph name="V" format="1">
  <advance width="728"/>
  <unicode hex="0056"/>
  <outline>
    <contour>
      <point x="582" y="722" type="curve"/>
      <point x="536" y="722"/>
      <point x="495" y="722"/>
      <point x="448" y="722" type="curve"/>
      <point x="448" y="687"/>
      <point x="448" y="722"/>
      <point x="448" y="687" type="curve"/>
      <point x="588" y="687"/>
      <point x="442" y="687"/>
      <point x="582" y="687" type="curve"/>
      <point x="582" y="722"/>
      <point x="582" y="687"/>
    </contour>
    <contour>
      <point x="111" y="722" type="curve"/>
      <point x="67" y="722"/>
      <point x="28" y="722"/>
      <point x="-16" y="722" type="curve"/>
      <point x="-16" y="687"/>
      <point x="-16" y="722"/>
      <point x="-16" y="687" type="curve"/>
      <point x="117" y="687"/>
      <point x="-22" y="687"/>
      <point x="111" y="687" type="curve"/>
      <point x="111" y="722"/>
      <point x="111" y="687"/>
    </contour>
    <contour>
      <point x="584" y="687" type="curve"/>
      <point x="717" y="687"/>
      <point x="579" y="687"/>
      <point x="712" y="687" type="curve"/>
      <point x="712" y="722"/>
      <point x="712" y="687"/>
      <point x="712" y="722" type="curve"/>
      <point x="667" y="722"/>
      <point x="629" y="722"/>
      <point x="584" y="722" type="curve"/>
      <point x="584" y="687"/>
      <point x="584" y="722"/>
    </contour>
    <contour>
      <point x="113" y="687" type="curve"/>
      <point x="254" y="687"/>
      <point x="107" y="687"/>
      <point x="248" y="687" type="curve"/>
      <point x="248" y="722"/>
      <point x="248" y="687"/>
      <point x="248" y="722" type="curve"/>
      <point x="202" y="722"/>
      <point x="159" y="722"/>
      <point x="113" y="722" type="curve"/>
      <point x="113" y="687"/>
      <point x="113" y="722"/>
    </contour>
    <contour>
      <point x="573" y="722" type="curve"/>
      <point x="492" y="481"/>
      <point x="412" y="241"/>
      <point x="332" y="0" type="curve"/>
      <point x="377" y="0"/>
      <point x="330" y="0"/>
      <point x="375" y="0" type="curve"/>
      <point x="456" y="241"/>
      <point x="537" y="481"/>
      <point x="618" y="722" type="curve"/>
      <point x="573" y="722"/>
      <point x="618" y="722"/>
    </contour>
    <contour>
      <point x="78" y="722" type="curve"/>
      <point x="160" y="481"/>
      <point x="242" y="241"/>
      <point x="324" y="0" type="curve"/>
      <point x="369" y="0"/>
      <point x="324" y="0"/>
      <point x="369" y="0" type="curve"/>
      <point x="287" y="241"/>
      <point x="205" y="481"/>
      <point x="123" y="722" type="curve"/>
      <point x="78" y="722"/>
      <point x="123" y="722"/>
    </contour>
  </outline>
</glyph>
<glyph name="Z" format="1">
  <advance width="602"/>
  <unicode hex="005A"/>
  <outline>
    <contour>
      <point x="305" y="818" type="move" name="top"/>
    </contour>
    <contour>
      <point x="77" y="704" type="curve"/>
      <point x="77" y="584"/>
      <point x="77" y="710"/>
      <point x="77" y="590" type="curve"/>
      <point x="111" y="590"/>
      <point x="77" y="590"/>
      <point x="111" y="590" type="curve"/>
      <point x="111" y="710"/>
      <point x="111" y="584"/>
      <point x="111" y="704" type="curve"/>
      <point x="77" y="704"/>
      <point x="111" y="704"/>
    </contour>
    <contour>
      <point x="559" y="18" type="curve"/>
      <point x="559" y="138"/>
      <point x="559" y="12"/>
      <point x="559" y="132" type="curve"/>
      <point x="524" y="132"/>
      <point x="559" y="132"/>
      <point x="524" y="132" type="curve"/>
      <point x="524" y="12"/>
      <point x="524" y="138"/>
      <point x="524" y="18" type="curve"/>
      <point x="559" y="18"/>
      <point x="524" y="18"/>
    </contour>
    <contour>
      <point x="77" y="687" type="curve"/>
      <point x="218" y="687"/>
      <point x="367" y="687"/>
      <point x="509" y="687" type="curve"/>
      <point x="506" y="691"/>
      <point x="500" y="692"/>
      <point x="497" y="696" type="curve"/>
      <point x="494" y="698"/>
      <point x="493" y="703"/>
      <point x="490" y="705" type="curve"/>
      <point x="486" y="701"/>
      <point x="482" y="699"/>
      <point x="478" y="695" type="curve"/>
      <point x="41" y="35" type="line"/>
      <point x="41" y="17"/>
      <point x="41" y="35"/>
      <point x="41" y="17" type="curve"/>
      <point x="41" y="0"/>
      <point x="41" y="17"/>
      <point x="41" y="0" type="curve"/>
      <point x="54" y="0"/>
      <point x="41" y="0"/>
      <point x="54" y="0" type="curve"/>
      <point x="560" y="0"/>
      <point x="390" y="0"/>
      <point x="559" y="0" type="curve"/>
      <point x="559" y="35"/>
      <point x="559" y="0"/>
      <point x="559" y="35" type="curve"/>
      <point x="390" y="35"/>
      <point x="222" y="35"/>
      <point x="54" y="35" type="curve"/>
      <point x="57" y="32"/>
      <point x="61" y="31"/>
      <point x="64" y="28" type="curve"/>
      <point x="68" y="25"/>
      <point x="69" y="19"/>
      <point x="74" y="17" type="curve"/>
      <point x="77" y="22"/>
      <point x="82" y="23"/>
      <point x="86" y="27" type="curve"/>
      <point x="525" y="687" type="line"/>
      <point x="525" y="705"/>
      <point x="525" y="687"/>
      <point x="525" y="705" type="curve"/>
      <point x="525" y="722"/>
      <point x="525" y="705"/>
      <point x="525" y="722" type="curve"/>
      <point x="508" y="722"/>
      <point x="525" y="722"/>
      <point x="508" y="722" type="curve"/>
      <point x="366" y="722"/>
      <point x="218" y="722"/>
      <point x="77" y="722" type="curve"/>
      <point x="77" y="687"/>
      <point x="77" y="722"/>
    </contour>
  </outline>
</glyph>
<glyph name="bracketleft" format="1">
  <advance width="270"/>
  <unicode hex="005B"/>
  <outline>
    <contour>
      <point x="230" y="771" type="curve"/>
      <point x="185" y="771"/>
      <point x="141" y="771"/>
      <point x="96" y="771" type="curve"/>
      <point x="91" y="771"/>
      <point x="85" y="771"/>
      <point x="81" y="771" type="curve"/>
      <point x="81" y="767"/>
      <point x="81" y="762"/>
      <point x="81" y="757" type="curve"/>
      <point x="81" y="468"/>
      <point x="81" y="179"/>
      <point x="81" y="-111" type="curve"/>
      <point x="81" y="-114"/>
      <point x="81" y="-118"/>
      <point x="81" y="-122" type="curve"/>
      <point x="84" y="-122"/>
      <point x="91" y="-122"/>
      <point x="95" y="-122" type="curve"/>
      <point x="140" y="-122"/>
      <point x="184" y="-122"/>
      <point x="230" y="-122" type="curve"/>
      <point x="230" y="-84"/>
      <point x="230" y="-122"/>
      <point x="230" y="-84" type="curve"/>
      <point x="184" y="-84"/>
      <point x="140" y="-84"/>
      <point x="95" y="-84" type="curve"/>
      <point x="122" y="-84"/>
      <point x="95" y="-84"/>
      <point x="122" y="-84" type="curve"/>
      <point x="122" y="-111"/>
      <point x="122" y="-84"/>
      <point x="122" y="-111" type="curve"/>
      <point x="122" y="179"/>
      <point x="122" y="468"/>
      <point x="122" y="757" type="curve"/>
      <point x="122" y="732"/>
      <point x="122" y="757"/>
      <point x="122" y="732" type="curve"/>
      <point x="96" y="732"/>
      <point x="122" y="732"/>
      <point x="96" y="732" type="curve"/>
      <point x="141" y="732"/>
      <point x="185" y="732"/>
      <point x="230" y="732" type="curve"/>
      <point x="230" y="771"/>
      <point x="230" y="732"/>
    </contour>
  </outline>
</glyph>
<glyph name="backslash" format="1">
  <advance width="466"/>
  <unicode hex="005C"/>
  <outline>
    <contour>
      <point x="427" y="-68" type="curve"/>
      <point x="312" y="236"/>
      <point x="198" y="540"/>
      <point x="83" y="844" type="curve"/>
      <point x="40" y="844"/>
      <point x="83" y="844"/>
      <point x="40" y="844" type="curve"/>
      <point x="154" y="540"/>
      <point x="269" y="236"/>
      <point x="383" y="-68" type="curve"/>
      <point x="427" y="-68"/>
      <point x="383" y="-68"/>
    </contour>
  </outline>
</glyph>
<glyph name="bracketright" format="1">
  <advance width="271"/>
  <unicode hex="005D"/>
  <outline>
    <contour>
      <point x="41" y="732" type="curve"/>
      <point x="85" y="732"/>
      <point x="130" y="732"/>
      <point x="175" y="732" type="curve"/>
      <point x="171" y="736"/>
      <point x="165" y="739"/>
      <point x="160" y="744" type="curve"/>
      <point x="156" y="748"/>
      <point x="152" y="753"/>
      <point x="148" y="757" type="curve"/>
      <point x="148" y="468"/>
      <point x="148" y="179"/>
      <point x="148" y="-111" type="curve"/>
      <point x="152" y="-105"/>
      <point x="157" y="-101"/>
      <point x="162" y="-96" type="curve"/>
      <point x="166" y="-91"/>
      <point x="172" y="-89"/>
      <point x="176" y="-84" type="curve"/>
      <point x="130" y="-84"/>
      <point x="85" y="-84"/>
      <point x="41" y="-84" type="curve"/>
      <point x="41" y="-122"/>
      <point x="41" y="-84"/>
      <point x="41" y="-122" type="curve"/>
      <point x="85" y="-122"/>
      <point x="130" y="-122"/>
      <point x="176" y="-122" type="curve"/>
      <point x="190" y="-122"/>
      <point x="176" y="-122"/>
      <point x="190" y="-122" type="curve"/>
      <point x="190" y="-111"/>
      <point x="190" y="-122"/>
      <point x="190" y="-111" type="curve"/>
      <point x="190" y="179"/>
      <point x="190" y="468"/>
      <point x="190" y="757" type="curve"/>
      <point x="190" y="771"/>
      <point x="190" y="757"/>
      <point x="190" y="771" type="curve"/>
      <point x="175" y="771"/>
      <point x="190" y="771"/>
      <point x="175" y="771" type="curve"/>
      <point x="130" y="771"/>
      <point x="85" y="771"/>
      <point x="41" y="771" type="curve"/>
      <point x="41" y="732"/>
      <point x="41" y="771"/>
    </contour>
  </outline>
</glyph>
<glyph name="asciicircum" format="1">
  <advance width="490"/>
  <unicode hex="005E"/>
  <outline>
    <contour>
      <point x="112" y="464" type="curve"/>
      <point x="164" y="577"/>
      <point x="215" y="689"/>
      <point x="265" y="802" type="curve"/>
      <point x="224" y="802"/>
      <point x="265" y="802"/>
      <point x="223" y="802" type="curve"/>
      <point x="172" y="689"/>
      <point x="121" y="577"/>
      <point x="70" y="464" type="curve"/>
      <point x="112" y="464"/>
      <point x="71" y="464"/>
    </contour>
    <contour>
      <point x="420" y="464" type="curve"/>
      <point x="370" y="573"/>
      <point x="316" y="692"/>
      <point x="266" y="802" type="curve"/>
      <point x="224" y="802"/>
      <point x="265" y="802"/>
      <point x="224" y="802" type="curve"/>
      <point x="273" y="692"/>
      <point x="328" y="573"/>
      <point x="377" y="464" type="curve"/>
      <point x="419" y="464"/>
      <point x="378" y="464"/>
    </contour>
  </outline>
</glyph>
<glyph name="underscore" format="1">
  <advance width="597"/>
  <unicode hex="005F"/>
  <outline>
    <contour>
      <point x="-1" y="-206" type="curve"/>
      <point x="199" y="-206"/>
      <point x="398" y="-206"/>
      <point x="596" y="-206" type="curve"/>
      <point x="596" y="-171"/>
      <point x="596" y="-206"/>
      <point x="596" y="-171" type="curve"/>
      <point x="398" y="-171"/>
      <point x="199" y="-171"/>
      <point x="-1" y="-171" type="curve"/>
      <point x="-1" y="-206"/>
      <point x="-1" y="-171"/>
    </contour>
  </outline>
</glyph>
<glyph name="grave" format="1">
  <advance width="379"/>
  <unicode hex="0060"/>
  <outline>
    <contour>
      <point x="187" y="588" type="move" name="_top"/>
    </contour>
    <contour>
      <point x="212" y="588" type="line"/>
      <point x="113" y="754" type="line"/>
      <point x="58" y="754" type="line"/>
      <point x="169" y="588" type="line"/>
    </contour>
  </outline>
</glyph>
<glyph name="b" format="1">
  <advance width="591"/>
  <unicode hex="0062"/>
  <outline>
    <contour>
      <point x="141" y="800" type="curve"/>
      <point x="96" y="800"/>
      <point x="57" y="800"/>
      <point x="11" y="800" type="curve"/>
      <point x="11" y="768"/>
      <point x="11" y="797"/>
      <point x="11" y="765" type="curve"/>
      <point x="143" y="765"/>
      <point x="9" y="765"/>
      <point x="141" y="765" type="curve"/>
      <point x="141" y="797"/>
      <point x="141" y="767"/>
    </contour>
    <contour>
      <point x="150" y="396" type="curve"/>
      <point x="178" y="443"/>
      <point x="241" y="502"/>
      <point x="321" y="502" type="curve"/>
      <point x="436" y="502"/>
      <point x="487" y="397"/>
      <point x="487" y="266" type="curve"/>
      <point x="487" y="142"/>
      <point x="431" y="30"/>
      <point x="321" y="31" type="curve"/>
      <point x="250" y="31"/>
      <point x="194" y="74"/>
      <point x="152" y="136" type="curve"/>
      <point x="130" y="118"/>
      <point x="153" y="131"/>
      <point x="129" y="114" type="curve"/>
      <point x="176" y="43"/>
      <point x="237" y="-5"/>
      <point x="324" y="-5" type="curve"/>
      <point x="464" y="-5"/>
      <point x="529" y="113"/>
      <point x="529" y="268" type="curve"/>
      <point x="529" y="419"/>
      <point x="465" y="538"/>
      <point x="325" y="538" type="curve"/>
      <point x="231" y="538"/>
      <point x="163" y="479"/>
      <point x="131" y="423" type="curve"/>
      <point x="148" y="402"/>
      <point x="132" y="417"/>
    </contour>
    <contour>
      <point x="160" y="0" type="curve"/>
      <point x="160" y="269"/>
      <point x="160" y="531"/>
      <point x="160" y="800" type="curve"/>
      <point x="121" y="800"/>
      <point x="156" y="800"/>
      <point x="118" y="800" type="curve"/>
      <point x="118" y="531"/>
      <point x="118" y="269"/>
      <point x="118" y="0" type="curve"/>
      <point x="156" y="0"/>
      <point x="121" y="0"/>
    </contour>
    <contour>
      <point x="141" y="35" type="curve"/>
      <point x="9" y="35"/>
      <point x="143" y="35"/>
      <point x="11" y="35" type="curve"/>
      <point x="11" y="3"/>
      <point x="11" y="32"/>
      <point x="11" y="0" type="curve"/>
      <point x="57" y="0"/>
      <point x="96" y="0"/>
      <point x="141" y="0" type="curve"/>
      <point x="141" y="32"/>
      <point x="141" y="3"/>
    </contour>
  </outline>
</glyph>
<glyph name="f" format="1">
  <advance width="428"/>
  <unicode hex="0066"/>
  <outline>
    <contour>
      <point x="382" y="775" type="curve"/>
      <point x="382" y="654"/>
      <point x="382" y="781"/>
      <point x="382" y="660" type="curve"/>
      <point x="417" y="660"/>
      <point x="382" y="660"/>
      <point x="417" y="660" type="curve"/>
      <point x="417" y="781"/>
      <point x="417" y="654"/>
      <point x="417" y="775" type="curve"/>
      <point x="382" y="775"/>
      <point x="417" y="775"/>
    </contour>
    <contour>
      <point x="198" y="0" type="curve"/>
      <point x="244" y="0"/>
      <point x="282" y="0"/>
      <point x="327" y="0" type="curve"/>
      <point x="327" y="35"/>
      <point x="327" y="0"/>
      <point x="327" y="35" type="curve"/>
      <point x="192" y="35"/>
      <point x="334" y="35"/>
      <point x="198" y="35" type="curve"/>
      <point x="198" y="0"/>
      <point x="198" y="35"/>
    </contour>
    <contour>
      <point x="198" y="35" type="curve"/>
      <point x="62" y="35"/>
      <point x="205" y="35"/>
      <point x="68" y="35" type="curve"/>
      <point x="68" y="0"/>
      <point x="68" y="35"/>
      <point x="68" y="0" type="curve"/>
      <point x="113" y="0"/>
      <point x="153" y="0"/>
      <point x="198" y="0" type="curve"/>
      <point x="198" y="35"/>
      <point x="198" y="0"/>
    </contour>
    <contour>
      <point x="37" y="498" type="curve"/>
      <point x="383" y="498" type="line"/>
      <point x="383" y="533"/>
      <point x="383" y="498"/>
      <point x="383" y="533" type="curve"/>
      <point x="37" y="533" type="line"/>
      <point x="37" y="498"/>
      <point x="37" y="533"/>
    </contour>
    <contour>
      <point x="219" y="0" type="curve"/>
      <point x="219" y="635" type="line"/>
      <point x="219" y="713"/>
      <point x="249" y="771"/>
      <point x="319" y="771" type="curve"/>
      <point x="348" y="771"/>
      <point x="376" y="761"/>
      <point x="400" y="747" type="curve"/>
      <point x="417" y="775"/>
      <point x="400" y="747"/>
      <point x="417" y="775" type="curve"/>
      <point x="387" y="791"/>
      <point x="353" y="805"/>
      <point x="319" y="805" type="curve"/>
      <point x="226" y="805"/>
      <point x="177" y="734"/>
      <point x="177" y="635" type="curve"/>
      <point x="177" y="0" type="line"/>
      <point x="219" y="0"/>
      <point x="177" y="0"/>
    </contour>
  </outline>
</glyph>
<glyph name="h" format="1">
  <advance width="595"/>
  <unicode hex="0068"/>
  <outline>
    <contour>
      <point x="462" y="0" type="curve"/>
      <point x="507" y="0"/>
      <point x="546" y="0"/>
      <point x="591" y="0" type="curve"/>
      <point x="591" y="35"/>
      <point x="591" y="0"/>
      <point x="591" y="35" type="curve"/>
      <point x="455" y="35"/>
      <point x="599" y="35"/>
      <point x="462" y="35" type="curve"/>
      <point x="462" y="0"/>
      <point x="462" y="35"/>
    </contour>
    <contour>
      <point x="137" y="0" type="curve"/>
      <point x="177" y="0"/>
      <point x="130" y="0"/>
      <point x="250" y="0" type="curve"/>
      <point x="250" y="35"/>
      <point x="250" y="0"/>
      <point x="250" y="35" type="curve"/>
      <point x="130" y="35"/>
      <point x="256" y="35"/>
      <point x="137" y="35" type="curve"/>
      <point x="137" y="0"/>
      <point x="137" y="35"/>
    </contour>
    <contour>
      <point x="137" y="800" type="curve"/>
      <point x="92" y="800"/>
      <point x="52" y="800"/>
      <point x="7" y="800" type="curve"/>
      <point x="7" y="765"/>
      <point x="7" y="800"/>
      <point x="7" y="765" type="curve"/>
      <point x="144" y="765"/>
      <point x="0" y="765"/>
      <point x="137" y="765" type="curve"/>
      <point x="137" y="800"/>
      <point x="137" y="765"/>
    </contour>
    <contour>
      <point x="137" y="35" type="curve"/>
      <point x="0" y="35"/>
      <point x="144" y="35"/>
      <point x="7" y="35" type="curve"/>
      <point x="7" y="0"/>
      <point x="7" y="35"/>
      <point x="7" y="0" type="curve"/>
      <point x="52" y="0"/>
      <point x="92" y="0"/>
      <point x="137" y="0" type="curve"/>
      <point x="137" y="35"/>
      <point x="137" y="0"/>
    </contour>
    <contour>
      <point x="148" y="344" type="curve"/>
      <point x="171" y="424"/>
      <point x="236" y="502"/>
      <point x="319" y="502" type="curve"/>
      <point x="410" y="502"/>
      <point x="442" y="433"/>
      <point x="442" y="335" type="curve"/>
      <point x="442" y="224"/>
      <point x="442" y="112"/>
      <point x="442" y="0" type="curve"/>
      <point x="484" y="0"/>
      <point x="442" y="0"/>
      <point x="484" y="0" type="curve"/>
      <point x="484" y="114"/>
      <point x="484" y="227"/>
      <point x="484" y="340" type="curve"/>
      <point x="484" y="459"/>
      <point x="440" y="537"/>
      <point x="327" y="537" type="curve"/>
      <point x="231" y="537"/>
      <point x="153" y="460"/>
      <point x="130" y="366" type="curve"/>
      <point x="150" y="346"/>
      <point x="129" y="363"/>
    </contour>
    <contour>
      <point x="158" y="0" type="curve"/>
      <point x="158" y="267"/>
      <point x="158" y="533"/>
      <point x="158" y="800" type="curve"/>
      <point x="116" y="800"/>
      <point x="158" y="800"/>
      <point x="116" y="800" type="curve"/>
      <point x="116" y="533"/>
      <point x="116" y="267"/>
      <point x="116" y="0" type="curve"/>
      <point x="158" y="0"/>
      <point x="116" y="0"/>
    </contour>
  </outline>
</glyph>
<glyph name="j" format="1">
  <advance width="280"/>
  <unicode hex="006A"/>
  <outline>
    <contour>
      <point x="159" y="533" type="curve"/>
      <point x="113" y="533"/>
      <point x="73" y="533"/>
      <point x="28" y="533" type="curve"/>
      <point x="28" y="498"/>
      <point x="28" y="533"/>
      <point x="28" y="498" type="curve"/>
      <point x="165" y="498"/>
      <point x="22" y="498"/>
      <point x="159" y="498" type="curve"/>
      <point x="159" y="533"/>
      <point x="159" y="498"/>
    </contour>
    <contour>
      <point x="3" y="-301" type="curve"/>
      <point x="11" y="-302"/>
      <point x="21" y="-304"/>
      <point x="31" y="-304" type="curve"/>
      <point x="123" y="-304"/>
      <point x="181" y="-234"/>
      <point x="181" y="-139" type="curve"/>
      <point x="181" y="85"/>
      <point x="181" y="309"/>
      <point x="181" y="533" type="curve"/>
      <point x="139" y="533"/>
      <point x="181" y="533"/>
      <point x="139" y="533" type="curve"/>
      <point x="139" y="309"/>
      <point x="139" y="85"/>
      <point x="139" y="-139" type="curve"/>
      <point x="139" y="-207"/>
      <point x="100" y="-267"/>
      <point x="33" y="-267" type="curve"/>
      <point x="25" y="-267"/>
      <point x="16" y="-266"/>
      <point x="11" y="-265" type="curve"/>
      <point x="4" y="-299"/>
      <point x="10" y="-268"/>
    </contour>
    <contour>
      <point x="188" y="683" type="curve"/>
      <point x="188" y="700"/>
      <point x="177" y="709"/>
      <point x="161" y="709" type="curve"/>
      <point x="144" y="709"/>
      <point x="134" y="699"/>
      <point x="134" y="683" type="curve"/>
      <point x="183" y="683"/>
      <point x="140" y="683"/>
      <point x="188" y="683" type="curve"/>
      <point x="188" y="667"/>
      <point x="177" y="658"/>
      <point x="161" y="658" type="curve"/>
      <point x="144" y="658"/>
      <point x="134" y="667"/>
      <point x="134" y="683" type="curve"/>
      <point x="183" y="683"/>
      <point x="140" y="683"/>
    </contour>
  </outline>
</glyph>
<glyph name="l" format="1">
  <advance width="293"/>
  <unicode hex="006C"/>
  <outline>
    <contour>
      <point x="147" y="893" type="move" name="top"/>
    </contour>
    <contour>
      <point x="157" y="-49" type="move" name="bottom"/>
    </contour>
    <contour>
      <point x="146" y="35" type="curve"/>
      <point x="10" y="35"/>
      <point x="146" y="35"/>
      <point x="10" y="35" type="curve"/>
      <point x="10" y="0"/>
      <point x="10" y="35"/>
      <point x="10" y="0" type="curve"/>
      <point x="56" y="0"/>
      <point x="101" y="0"/>
      <point x="146" y="0" type="curve"/>
      <point x="146" y="35"/>
      <point x="146" y="0"/>
    </contour>
    <contour>
      <point x="149" y="800" type="curve"/>
      <point x="103" y="800"/>
      <point x="58" y="800"/>
      <point x="12" y="800" type="curve"/>
      <point x="12" y="765"/>
      <point x="12" y="800"/>
      <point x="12" y="765" type="curve"/>
      <point x="149" y="765"/>
      <point x="12" y="765"/>
      <point x="149" y="765" type="curve"/>
      <point x="149" y="800"/>
      <point x="149" y="765"/>
    </contour>
    <contour>
      <point x="146" y="0" type="curve"/>
      <point x="193" y="0"/>
      <point x="238" y="0"/>
      <point x="284" y="0" type="curve"/>
      <point x="284" y="35"/>
      <point x="284" y="0"/>
      <point x="284" y="35" type="curve"/>
      <point x="146" y="35"/>
      <point x="284" y="35"/>
      <point x="146" y="35" type="curve"/>
      <point x="146" y="0"/>
      <point x="146" y="35"/>
    </contour>
    <contour>
      <point x="167" y="0" type="curve"/>
      <point x="167" y="267"/>
      <point x="167" y="533"/>
      <point x="167" y="800" type="curve"/>
      <point x="124" y="800"/>
      <point x="167" y="800"/>
      <point x="124" y="800" type="curve"/>
      <point x="124" y="533"/>
      <point x="124" y="267"/>
      <point x="124" y="0" type="curve"/>
      <point x="167" y="0"/>
      <point x="124" y="0"/>
    </contour>
  </outline>
</glyph>
<glyph name="n" format="1">
  <advance width="621"/>
  <unicode hex="006E"/>
  <outline>
    <contour>
      <point x="336" y="661" type="move" name="top"/>
    </contour>
    <contour>
      <point x="352" y="-48" type="move" name="bottom"/>
    </contour>
    <contour>
      <point x="175" y="331" type="curve"/>
      <point x="194" y="428"/>
      <point x="264" y="502"/>
      <point x="344" y="502" type="curve"/>
      <point x="433" y="502"/>
      <point x="468" y="434"/>
      <point x="468" y="336" type="curve"/>
      <point x="468" y="224"/>
      <point x="468" y="113"/>
      <point x="468" y="0" type="curve"/>
      <point x="506" y="0"/>
      <point x="472" y="0"/>
      <point x="510" y="0" type="curve"/>
      <point x="510" y="114"/>
      <point x="510" y="226"/>
      <point x="510" y="340" type="curve"/>
      <point x="510" y="458"/>
      <point x="466" y="538"/>
      <point x="355" y="538" type="curve"/>
      <point x="257" y="538"/>
      <point x="177" y="466"/>
      <point x="157" y="353" type="curve"/>
      <point x="174" y="335"/>
      <point x="157" y="349"/>
    </contour>
    <contour>
      <point x="488" y="0" type="curve"/>
      <point x="533" y="0"/>
      <point x="572" y="0"/>
      <point x="617" y="0" type="curve"/>
      <point x="617" y="35"/>
      <point x="617" y="0"/>
      <point x="617" y="35" type="curve"/>
      <point x="481" y="35"/>
      <point x="624" y="35"/>
      <point x="488" y="35" type="curve"/>
      <point x="488" y="0"/>
      <point x="488" y="35"/>
    </contour>
    <contour>
      <point x="163" y="35" type="curve"/>
      <point x="27" y="35"/>
      <point x="170" y="35"/>
      <point x="34" y="35" type="curve"/>
      <point x="34" y="0"/>
      <point x="34" y="35"/>
      <point x="34" y="0" type="curve"/>
      <point x="79" y="0"/>
      <point x="117" y="0"/>
      <point x="163" y="0" type="curve"/>
      <point x="163" y="35"/>
      <point x="163" y="0"/>
    </contour>
    <contour>
      <point x="163" y="0" type="curve"/>
      <point x="203" y="0"/>
      <point x="152" y="0"/>
      <point x="274" y="0" type="curve"/>
      <point x="274" y="35"/>
      <point x="274" y="0"/>
      <point x="274" y="35" type="curve"/>
      <point x="152" y="35"/>
      <point x="284" y="35"/>
      <point x="163" y="35" type="curve"/>
      <point x="163" y="0"/>
      <point x="163" y="35"/>
    </contour>
    <contour>
      <point x="184" y="0" type="curve"/>
      <point x="184" y="178"/>
      <point x="184" y="355"/>
      <point x="184" y="533" type="curve"/>
      <point x="142" y="533"/>
      <point x="184" y="533"/>
      <point x="142" y="533" type="curve"/>
      <point x="142" y="355"/>
      <point x="142" y="178"/>
      <point x="142" y="0" type="curve"/>
      <point x="184" y="0"/>
      <point x="142" y="0"/>
    </contour>
    <contour>
      <point x="163" y="533" type="curve"/>
      <point x="117" y="533"/>
      <point x="79" y="533"/>
      <point x="34" y="533" type="curve"/>
      <point x="34" y="498"/>
      <point x="34" y="533"/>
      <point x="34" y="498" type="curve"/>
      <point x="170" y="498"/>
      <point x="27" y="498"/>
      <point x="163" y="498" type="curve"/>
      <point x="163" y="533"/>
      <point x="163" y="498"/>
    </contour>
  </outline>
</glyph>
<glyph name="p" format="1">
  <advance width="594"/>
  <unicode hex="0070"/>
  <outline>
    <contour>
      <point x="138" y="-265" type="curve"/>
      <point x="-1" y="-265"/>
      <point x="144" y="-265"/>
      <point x="6" y="-265" type="curve"/>
      <point x="6" y="-300"/>
      <point x="6" y="-265"/>
      <point x="6" y="-300" type="curve"/>
      <point x="53" y="-300"/>
      <point x="92" y="-300"/>
      <point x="138" y="-300" type="curve"/>
      <point x="138" y="-265"/>
      <point x="138" y="-300"/>
    </contour>
    <contour>
      <point x="138" y="-300" type="curve"/>
      <point x="182" y="-300"/>
      <point x="218" y="-300"/>
      <point x="261" y="-300" type="curve"/>
      <point x="261" y="-265"/>
      <point x="261" y="-300"/>
      <point x="261" y="-265" type="curve"/>
      <point x="131" y="-265"/>
      <point x="268" y="-265"/>
      <point x="138" y="-265" type="curve"/>
      <point x="138" y="-300"/>
      <point x="138" y="-265"/>
    </contour>
    <contour>
      <point x="139" y="533" type="curve"/>
      <point x="93" y="533"/>
      <point x="54" y="533"/>
      <point x="7" y="533" type="curve"/>
      <point x="7" y="498"/>
      <point x="7" y="533"/>
      <point x="7" y="498" type="curve"/>
      <point x="146" y="498"/>
      <point x="1" y="498"/>
      <point x="139" y="498" type="curve"/>
      <point x="139" y="533"/>
      <point x="139" y="498"/>
    </contour>
    <contour>
      <point x="149" y="393" type="curve"/>
      <point x="176" y="445"/>
      <point x="243" y="504"/>
      <point x="322" y="504" type="curve"/>
      <point x="442" y="504"/>
      <point x="491" y="402"/>
      <point x="491" y="274" type="curve"/>
      <point x="492" y="139"/>
      <point x="442" y="29"/>
      <point x="322" y="30" type="curve"/>
      <point x="247" y="30"/>
      <point x="196" y="71"/>
      <point x="151" y="129" type="curve"/>
      <point x="131" y="112"/>
      <point x="149" y="127"/>
      <point x="129" y="109" type="curve"/>
      <point x="179" y="39"/>
      <point x="238" y="-5"/>
      <point x="327" y="-5" type="curve"/>
      <point x="474" y="-5"/>
      <point x="533" y="120"/>
      <point x="532" y="277" type="curve"/>
      <point x="532" y="423"/>
      <point x="471" y="538"/>
      <point x="328" y="538" type="curve"/>
      <point x="235" y="538"/>
      <point x="167" y="481"/>
      <point x="132" y="423" type="curve"/>
      <point x="150" y="396"/>
      <point x="131" y="419"/>
    </contour>
    <contour>
      <point x="159" y="-300" type="curve"/>
      <point x="159" y="-22"/>
      <point x="159" y="255"/>
      <point x="159" y="533" type="curve"/>
      <point x="117" y="533"/>
      <point x="159" y="533"/>
      <point x="117" y="533" type="curve"/>
      <point x="117" y="255"/>
      <point x="117" y="-22"/>
      <point x="117" y="-300" type="curve"/>
      <point x="159" y="-300"/>
      <point x="117" y="-300"/>
    </contour>
  </outline>
</glyph>
<glyph name="r" format="1">
  <advance width="414"/>
  <unicode hex="0072"/>
  <outline>
    <contour>
      <point x="174" y="662" type="move" name="top"/>
    </contour>
    <contour>
      <point x="183" y="-48" type="move" name="bottom"/>
    </contour>
    <contour>
      <point x="167" y="0" type="curve"/>
      <point x="210" y="0"/>
      <point x="246" y="0"/>
      <point x="288" y="0" type="curve"/>
      <point x="288" y="32"/>
      <point x="288" y="3"/>
      <point x="288" y="35" type="curve"/>
      <point x="165" y="35"/>
      <point x="290" y="35"/>
      <point x="167" y="35" type="curve"/>
      <point x="167" y="3"/>
      <point x="167" y="32"/>
    </contour>
    <contour>
      <point x="167" y="35" type="curve"/>
      <point x="35" y="35"/>
      <point x="169" y="35"/>
      <point x="37" y="35" type="curve"/>
      <point x="37" y="3"/>
      <point x="37" y="32"/>
      <point x="37" y="0" type="curve"/>
      <point x="82" y="0"/>
      <point x="122" y="0"/>
      <point x="167" y="0" type="curve"/>
      <point x="167" y="32"/>
      <point x="167" y="3"/>
    </contour>
    <contour>
      <point x="167" y="533" type="curve"/>
      <point x="121" y="533"/>
      <point x="82" y="533"/>
      <point x="37" y="533" type="curve"/>
      <point x="37" y="501"/>
      <point x="37" y="530"/>
      <point x="37" y="498" type="curve"/>
      <point x="168" y="498"/>
      <point x="35" y="498"/>
      <point x="167" y="498" type="curve"/>
      <point x="167" y="530"/>
      <point x="167" y="501"/>
    </contour>
    <contour>
      <point x="188" y="0" type="curve"/>
      <point x="188" y="179"/>
      <point x="188" y="354"/>
      <point x="188" y="533" type="curve"/>
      <point x="150" y="533"/>
      <point x="184" y="533"/>
      <point x="146" y="533" type="curve"/>
      <point x="146" y="354"/>
      <point x="146" y="179"/>
      <point x="146" y="0" type="curve"/>
      <point x="184" y="0"/>
      <point x="150" y="0"/>
    </contour>
    <contour>
      <point x="178" y="353" type="curve"/>
      <point x="210" y="452"/>
      <point x="293" y="501"/>
      <point x="386" y="501" type="curve"/>
      <point x="386" y="538"/>
      <point x="386" y="501"/>
      <point x="386" y="538" type="curve"/>
      <point x="284" y="538"/>
      <point x="194" y="481"/>
      <point x="161" y="382" type="curve"/>
      <point x="178" y="362"/>
      <point x="163" y="370"/>
    </contour>
  </outline>
</glyph>
<glyph name="s" format="1">
  <advance width="449"/>
  <unicode hex="0073"/>
  <outline>
    <contour>
      <point x="225" y="662" type="move" name="top"/>
    </contour>
    <contour>
      <point x="244" y="-50" type="move" name="bottom"/>
    </contour>
    <contour>
      <point x="61" y="50" type="curve"/>
      <point x="117" y="18"/>
      <point x="170" y="-5"/>
      <point x="232" y="-5" type="curve"/>
      <point x="330" y="-5"/>
      <point x="389" y="46"/>
      <point x="389" y="137" type="curve"/>
      <point x="388" y="231"/>
      <point x="322" y="263"/>
      <point x="231" y="294" type="curve" smooth="yes"/>
      <point x="166" y="318"/>
      <point x="122" y="348"/>
      <point x="122" y="414" type="curve"/>
      <point x="122" y="469"/>
      <point x="159" y="502"/>
      <point x="219" y="502" type="curve"/>
      <point x="264" y="502"/>
      <point x="306" y="485"/>
      <point x="339" y="460" type="curve"/>
      <point x="354" y="484"/>
      <point x="343" y="468"/>
      <point x="358" y="491" type="curve"/>
      <point x="321" y="519"/>
      <point x="272" y="538"/>
      <point x="220" y="538" type="curve"/>
      <point x="138" y="538"/>
      <point x="84" y="493"/>
      <point x="84" y="414" type="curve"/>
      <point x="84" y="330"/>
      <point x="136" y="290"/>
      <point x="218" y="260" type="curve" smooth="yes"/>
      <point x="290" y="234"/>
      <point x="349" y="211"/>
      <point x="348" y="136" type="curve"/>
      <point x="348" y="71"/>
      <point x="304" y="31"/>
      <point x="237" y="31" type="curve"/>
      <point x="180" y="31"/>
      <point x="133" y="52"/>
      <point x="82" y="81" type="curve"/>
      <point x="61" y="50"/>
      <point x="83" y="81"/>
    </contour>
    <contour>
      <point x="323" y="491" type="curve"/>
      <point x="323" y="370"/>
      <point x="323" y="497"/>
      <point x="323" y="376" type="curve"/>
      <point x="358" y="376"/>
      <point x="323" y="376"/>
      <point x="358" y="376" type="curve"/>
      <point x="358" y="497"/>
      <point x="358" y="370"/>
      <point x="358" y="491" type="curve"/>
      <point x="331" y="491"/>
      <point x="350" y="491"/>
    </contour>
    <contour>
      <point x="97" y="50" type="curve"/>
      <point x="97" y="171"/>
      <point x="97" y="44"/>
      <point x="97" y="166" type="curve"/>
      <point x="61" y="166"/>
      <point x="97" y="166"/>
      <point x="61" y="166" type="curve"/>
      <point x="61" y="44"/>
      <point x="61" y="171"/>
      <point x="61" y="50" type="curve"/>
      <point x="97" y="50"/>
      <point x="61" y="50"/>
    </contour>
  </outline>
</glyph>
<glyph name="t" format="1">
  <advance width="382"/>
  <unicode hex="0074"/>
  <outline>
    <contour>
      <point x="260" y="-49" type="move" name="bottom"/>
    </contour>
    <contour>
      <point x="19" y="498" type="curve"/>
      <point x="360" y="498" type="line"/>
      <point x="360" y="533"/>
      <point x="360" y="498"/>
      <point x="360" y="533" type="curve"/>
      <point x="19" y="533" type="line"/>
      <point x="19" y="498"/>
      <point x="19" y="533"/>
    </contour>
    <contour>
      <point x="336" y="59" type="curve"/>
      <point x="309" y="43"/>
      <point x="288" y="32"/>
      <point x="257" y="32" type="curve"/>
      <point x="196" y="32"/>
      <point x="175" y="77"/>
      <point x="175" y="150" type="curve"/>
      <point x="175" y="680" type="line"/>
      <point x="154" y="667"/>
      <point x="154" y="661"/>
      <point x="133" y="648" type="curve"/>
      <point x="133" y="147" type="line"/>
      <point x="133" y="53"/>
      <point x="167" y="-5"/>
      <point x="252" y="-5" type="curve"/>
      <point x="292" y="-5"/>
      <point x="319" y="6"/>
      <point x="354" y="26" type="curve"/>
      <point x="336" y="59"/>
      <point x="354" y="26"/>
    </contour>
  </outline>
</glyph>
<glyph name="v" format="1">
  <advance width="611"/>
  <unicode hex="0076"/>
  <outline>
    <contour>
      <point x="129" y="533" type="curve"/>
      <point x="86" y="533"/>
      <point x="47" y="533"/>
      <point x="4" y="533" type="curve"/>
      <point x="4" y="498"/>
      <point x="4" y="533"/>
      <point x="4" y="498" type="curve"/>
      <point x="135" y="498"/>
      <point x="-2" y="498"/>
      <point x="129" y="498" type="curve"/>
      <point x="129" y="533"/>
      <point x="129" y="498"/>
    </contour>
    <contour>
      <point x="129" y="498" type="curve"/>
      <point x="246" y="498"/>
      <point x="124" y="498"/>
      <point x="241" y="498" type="curve"/>
      <point x="241" y="533"/>
      <point x="241" y="498"/>
      <point x="241" y="533" type="curve"/>
      <point x="201" y="533"/>
      <point x="168" y="533"/>
      <point x="129" y="533" type="curve"/>
      <point x="129" y="498"/>
      <point x="129" y="533"/>
    </contour>
    <contour>
      <point x="488" y="533" type="curve"/>
      <point x="448" y="533"/>
      <point x="412" y="533"/>
      <point x="371" y="533" type="curve"/>
      <point x="371" y="498"/>
      <point x="371" y="533"/>
      <point x="371" y="498" type="curve"/>
      <point x="494" y="498"/>
      <point x="365" y="498"/>
      <point x="488" y="498" type="curve"/>
      <point x="488" y="533"/>
      <point x="488" y="498"/>
    </contour>
    <contour>
      <point x="488" y="498" type="curve"/>
      <point x="613" y="498"/>
      <point x="483" y="498"/>
      <point x="607" y="498" type="curve"/>
      <point x="607" y="533"/>
      <point x="607" y="498"/>
      <point x="607" y="533" type="curve"/>
      <point x="566" y="533"/>
      <point x="530" y="533"/>
      <point x="488" y="533" type="curve"/>
      <point x="488" y="498"/>
      <point x="488" y="533"/>
    </contour>
    <contour>
      <point x="98" y="533" type="curve"/>
      <point x="158" y="355"/>
      <point x="220" y="178"/>
      <point x="280" y="0" type="curve"/>
      <point x="321" y="0"/>
      <point x="280" y="0"/>
      <point x="321" y="0" type="curve"/>
      <point x="261" y="178"/>
      <point x="202" y="355"/>
      <point x="143" y="533" type="curve"/>
      <point x="98" y="533"/>
      <point x="143" y="533"/>
    </contour>
    <contour>
      <point x="476" y="533" type="curve"/>
      <point x="287" y="0" type="line"/>
      <point x="329" y="0"/>
      <point x="287" y="0"/>
      <point x="329" y="0" type="curve"/>
      <point x="392" y="178"/>
      <point x="456" y="355"/>
      <point x="520" y="533" type="curve"/>
      <point x="476" y="533"/>
      <point x="520" y="533"/>
    </contour>
  </outline>
</glyph>
<glyph name="w" format="1">
  <advance width="900"/>
  <unicode hex="0077"/>
  <outline>
    <contour>
      <point x="769" y="498" type="curve"/>
      <point x="902" y="498"/>
      <point x="763" y="498"/>
      <point x="896" y="498" type="curve"/>
      <point x="896" y="533"/>
      <point x="896" y="498"/>
      <point x="896" y="533" type="curve"/>
      <point x="853" y="533"/>
      <point x="813" y="533"/>
      <point x="769" y="533" type="curve"/>
      <point x="769" y="498"/>
      <point x="769" y="533"/>
    </contour>
    <contour>
      <point x="769" y="533" type="curve"/>
      <point x="725" y="533"/>
      <point x="699" y="533"/>
      <point x="654" y="533" type="curve"/>
      <point x="654" y="498"/>
      <point x="654" y="533"/>
      <point x="654" y="498" type="curve"/>
      <point x="787" y="498"/>
      <point x="638" y="498"/>
      <point x="769" y="498" type="curve"/>
      <point x="769" y="533"/>
      <point x="769" y="498"/>
    </contour>
    <contour>
      <point x="130" y="533" type="curve"/>
      <point x="87" y="533"/>
      <point x="47" y="533"/>
      <point x="3" y="533" type="curve"/>
      <point x="3" y="498"/>
      <point x="3" y="533"/>
      <point x="3" y="498" type="curve"/>
      <point x="136" y="498"/>
      <point x="-3" y="498"/>
      <point x="130" y="498" type="curve"/>
      <point x="130" y="533"/>
      <point x="130" y="498"/>
    </contour>
    <contour>
      <point x="130" y="498" type="curve"/>
      <point x="262" y="498"/>
      <point x="119" y="498"/>
      <point x="251" y="498" type="curve"/>
      <point x="251" y="533"/>
      <point x="251" y="498"/>
      <point x="251" y="533" type="curve"/>
      <point x="208" y="533"/>
      <point x="174" y="533"/>
      <point x="130" y="533" type="curve"/>
      <point x="130" y="498"/>
      <point x="130" y="533"/>
    </contour>
    <contour>
      <point x="296" y="0" type="curve"/>
      <point x="356" y="178"/>
      <point x="415" y="355"/>
      <point x="474" y="533" type="curve"/>
      <point x="432" y="533"/>
      <point x="474" y="533"/>
      <point x="432" y="533" type="curve"/>
      <point x="374" y="355"/>
      <point x="315" y="178"/>
      <point x="257" y="0" type="curve"/>
      <point x="296" y="0"/>
      <point x="257" y="0"/>
    </contour>
    <contour>
      <point x="762" y="533" type="curve"/>
      <point x="708" y="355"/>
      <point x="652" y="178"/>
      <point x="599" y="0" type="curve"/>
      <point x="638" y="0"/>
      <point x="599" y="0"/>
      <point x="638" y="0" type="curve"/>
      <point x="693" y="178"/>
      <point x="749" y="355"/>
      <point x="805" y="533" type="curve"/>
      <point x="762" y="533"/>
      <point x="805" y="533"/>
    </contour>
    <contour>
      <point x="438" y="533" type="curve"/>
      <point x="491" y="355"/>
      <point x="544" y="178"/>
      <point x="597" y="0" type="curve"/>
      <point x="636" y="0"/>
      <point x="597" y="0"/>
      <point x="636" y="0" type="curve"/>
      <point x="584" y="178"/>
      <point x="530" y="355"/>
      <point x="478" y="533" type="curve"/>
      <point x="438" y="533"/>
      <point x="478" y="533"/>
    </contour>
    <contour>
      <point x="96" y="533" type="curve"/>
      <point x="149" y="355"/>
      <point x="204" y="178"/>
      <point x="256" y="0" type="curve"/>
      <point x="295" y="0"/>
      <point x="256" y="0"/>
      <point x="295" y="0" type="curve"/>
      <point x="242" y="178"/>
      <point x="190" y="355"/>
      <point x="138" y="533" type="curve"/>
      <point x="96" y="533"/>
      <point x="138" y="533"/>
    </contour>
  </outline>
</glyph>
<glyph name="braceleft" format="1">
  <advance width="289"/>
  <unicode hex="007B"/>
  <outline>
    <contour>
      <point x="241" y="-87" type="curve"/>
      <point x="179" y="-87"/>
      <point x="159" y="-35"/>
      <point x="159" y="32" type="curve"/>
      <point x="159" y="90"/>
      <point x="159" y="148"/>
      <point x="159" y="205" type="curve"/>
      <point x="159" y="293"/>
      <point x="122" y="357"/>
      <point x="39" y="357" type="curve"/>
      <point x="39" y="320"/>
      <point x="39" y="357"/>
      <point x="39" y="320" type="curve"/>
      <point x="98" y="320"/>
      <point x="121" y="273"/>
      <point x="121" y="209" type="curve"/>
      <point x="121" y="151"/>
      <point x="121" y="92"/>
      <point x="121" y="34" type="curve"/>
      <point x="121" y="-56"/>
      <point x="158" y="-122"/>
      <point x="241" y="-122" type="curve"/>
      <point x="241" y="-87"/>
      <point x="241" y="-122"/>
    </contour>
    <contour>
      <point x="241" y="799" type="curve"/>
      <point x="158" y="799"/>
      <point x="121" y="735"/>
      <point x="121" y="645" type="curve"/>
      <point x="121" y="585"/>
      <point x="121" y="526"/>
      <point x="121" y="467" type="curve"/>
      <point x="121" y="403"/>
      <point x="98" y="357"/>
      <point x="39" y="357" type="curve"/>
      <point x="39" y="320"/>
      <point x="39" y="357"/>
      <point x="39" y="320" type="curve"/>
      <point x="121" y="320"/>
      <point x="159" y="384"/>
      <point x="159" y="472" type="curve"/>
      <point x="159" y="530"/>
      <point x="159" y="587"/>
      <point x="159" y="645" type="curve"/>
      <point x="159" y="712"/>
      <point x="179" y="763"/>
      <point x="241" y="763" type="curve"/>
      <point x="241" y="799"/>
      <point x="241" y="763"/>
    </contour>
  </outline>
</glyph>
<glyph name="bar" format="1">
  <advance width="205"/>
  <unicode hex="007C"/>
  <outline>
    <contour>
      <point x="123" y="-300" type="curve"/>
      <point x="123" y="67"/>
      <point x="123" y="433"/>
      <point x="123" y="800" type="curve"/>
      <point x="82" y="800"/>
      <point x="123" y="800"/>
      <point x="82" y="800" type="curve"/>
      <point x="82" y="433"/>
      <point x="82" y="67"/>
      <point x="82" y="-300" type="curve"/>
      <point x="123" y="-300"/>
      <point x="82" y="-300"/>
    </contour>
  </outline>
</glyph>
<glyph name="braceright" format="1">
  <advance width="289"/>
  <unicode hex="007D"/>
  <outline>
    <contour>
      <point x="48" y="-122" type="curve"/>
      <point x="132" y="-122"/>
      <point x="169" y="-57"/>
      <point x="169" y="34" type="curve"/>
      <point x="169" y="92"/>
      <point x="169" y="151"/>
      <point x="169" y="209" type="curve"/>
      <point x="169" y="273"/>
      <point x="191" y="320"/>
      <point x="250" y="320" type="curve"/>
      <point x="250" y="357"/>
      <point x="250" y="320"/>
      <point x="250" y="357" type="curve"/>
      <point x="169" y="357"/>
      <point x="130" y="292"/>
      <point x="130" y="205" type="curve"/>
      <point x="130" y="148"/>
      <point x="130" y="90"/>
      <point x="130" y="32" type="curve"/>
      <point x="130" y="-35"/>
      <point x="110" y="-87"/>
      <point x="48" y="-87" type="curve"/>
      <point x="48" y="-122"/>
      <point x="48" y="-87"/>
    </contour>
    <contour>
      <point x="48" y="763" type="curve"/>
      <point x="110" y="763"/>
      <point x="130" y="712"/>
      <point x="130" y="645" type="curve"/>
      <point x="130" y="587"/>
      <point x="130" y="530"/>
      <point x="130" y="472" type="curve"/>
      <point x="130" y="383"/>
      <point x="168" y="320"/>
      <point x="250" y="320" type="curve"/>
      <point x="250" y="357"/>
      <point x="250" y="320"/>
      <point x="250" y="357" type="curve"/>
      <point x="192" y="357"/>
      <point x="169" y="403"/>
      <point x="169" y="467" type="curve"/>
      <point x="169" y="526"/>
      <point x="169" y="585"/>
      <point x="169" y="645" type="curve"/>
      <point x="169" y="734"/>
      <point x="131" y="799"/>
      <point x="48" y="799" type="curve"/>
      <point x="48" y="763"/>
      <point x="48" y="799"/>
    </contour>
  </outline>
</glyph>
<glyph name="asciitilde" format="1">
  <advance width="623"/>
  <unicode hex="007E"/>
  <outline>
    <contour>
      <point x="504" y="349" type="curve"/>
      <point x="489" y="303"/>
      <point x="474" y="251"/>
      <point x="421" y="251" type="curve"/>
      <point x="380" y="251"/>
      <point x="355" y="267"/>
      <point x="325" y="296" type="curve"/>
      <point x="290" y="330"/>
      <point x="260" y="352"/>
      <point x="211" y="352" type="curve"/>
      <point x="133" y="352"/>
      <point x="104" y="303"/>
      <point x="85" y="228" type="curve"/>
      <point x="109" y="220"/>
      <point x="95" y="224"/>
      <point x="119" y="217" type="curve"/>
      <point x="133" y="270"/>
      <point x="152" y="316"/>
      <point x="209" y="316" type="curve"/>
      <point x="246" y="316"/>
      <point x="267" y="301"/>
      <point x="294" y="275" type="curve"/>
      <point x="333" y="238"/>
      <point x="364" y="216"/>
      <point x="419" y="216" type="curve"/>
      <point x="494" y="216"/>
      <point x="518" y="270"/>
      <point x="539" y="339" type="curve"/>
      <point x="514" y="346"/>
      <point x="529" y="343"/>
    </contour>
  </outline>
</glyph>
<glyph name="cent" format="1">
  <advance width="575"/>
  <unicode hex="00A2"/>
  <outline>
    <contour>
      <point x="321" y="-53" type="curve"/>
      <point x="321" y="-13"/>
      <point x="321" y="27"/>
      <point x="321" y="67" type="curve"/>
      <point x="279" y="67"/>
      <point x="321" y="67"/>
      <point x="279" y="67" type="curve"/>
      <point x="279" y="27"/>
      <point x="279" y="-13"/>
      <point x="279" y="-53" type="curve"/>
      <point x="321" y="-53"/>
      <point x="279" y="-53"/>
    </contour>
    <contour>
      <point x="297" y="778" type="curve"/>
      <point x="297" y="742"/>
      <point x="297" y="706"/>
      <point x="297" y="670" type="curve"/>
      <point x="338" y="670"/>
      <point x="297" y="670"/>
      <point x="338" y="670" type="curve"/>
      <point x="338" y="706"/>
      <point x="338" y="742"/>
      <point x="338" y="778" type="curve"/>
      <point x="297" y="778"/>
      <point x="338" y="778"/>
    </contour>
    <contour>
      <point x="515" y="606" type="curve"/>
      <point x="454" y="658"/>
      <point x="400" y="680"/>
      <point x="322" y="680" type="curve"/>
      <point x="147" y="680"/>
      <point x="59" y="551"/>
      <point x="59" y="366" type="curve"/>
      <point x="59" y="187"/>
      <point x="130" y="53"/>
      <point x="297" y="53" type="curve"/>
      <point x="387" y="53"/>
      <point x="447" y="85"/>
      <point x="514" y="147" type="curve"/>
      <point x="488" y="174"/>
      <point x="514" y="147"/>
      <point x="488" y="174" type="curve"/>
      <point x="430" y="120"/>
      <point x="379" y="89"/>
      <point x="301" y="89" type="curve"/>
      <point x="158" y="89"/>
      <point x="101" y="209"/>
      <point x="101" y="367" type="curve"/>
      <point x="101" y="528"/>
      <point x="172" y="643"/>
      <point x="318" y="643" type="curve"/>
      <point x="389" y="643"/>
      <point x="437" y="623"/>
      <point x="491" y="579" type="curve"/>
      <point x="515" y="606"/>
      <point x="491" y="579"/>
    </contour>
    <contour>
      <point x="479" y="606" type="curve"/>
      <point x="479" y="486"/>
      <point x="479" y="603"/>
      <point x="479" y="482" type="curve"/>
      <point x="515" y="482"/>
      <point x="479" y="482"/>
      <point x="515" y="482" type="curve"/>
      <point x="515" y="603"/>
      <point x="515" y="486"/>
      <point x="515" y="606" type="curve"/>
      <point x="479" y="606"/>
      <point x="515" y="606"/>
    </contour>
  </outline>
</glyph>
<glyph name="sterling" format="1">
  <advance width="469"/>
  <unicode hex="00A3"/>
  <outline>
    <contour>
      <point x="401" y="35" type="curve"/>
      <point x="281" y="35"/>
      <point x="165" y="35"/>
      <point x="47" y="35" type="curve"/>
      <point x="47" y="0"/>
      <point x="47" y="35"/>
      <point x="47" y="0" type="curve"/>
      <point x="165" y="0"/>
      <point x="283" y="0"/>
      <point x="401" y="0" type="curve"/>
      <point x="401" y="35"/>
      <point x="401" y="0"/>
    </contour>
    <contour>
      <point x="359" y="394" type="curve"/>
      <point x="264" y="394"/>
      <point x="170" y="394"/>
      <point x="76" y="394" type="curve"/>
      <point x="76" y="359"/>
      <point x="76" y="394"/>
      <point x="76" y="359" type="curve"/>
      <point x="170" y="359"/>
      <point x="264" y="359"/>
      <point x="359" y="359" type="curve"/>
      <point x="359" y="394"/>
      <point x="359" y="359"/>
    </contour>
    <contour>
      <point x="414" y="674" type="curve"/>
      <point x="375" y="708"/>
      <point x="342" y="724"/>
      <point x="292" y="724" type="curve"/>
      <point x="138" y="724"/>
      <point x="117" y="561"/>
      <point x="152" y="373" type="curve"/>
      <point x="184" y="197"/>
      <point x="184" y="35"/>
      <point x="47" y="35" type="curve"/>
      <point x="47" y="0"/>
      <point x="47" y="35"/>
      <point x="47" y="0" type="curve"/>
      <point x="218" y="0"/>
      <point x="227" y="179"/>
      <point x="191" y="380" type="curve"/>
      <point x="163" y="542"/>
      <point x="172" y="690"/>
      <point x="289" y="690" type="curve"/>
      <point x="332" y="690"/>
      <point x="360" y="674"/>
      <point x="392" y="648" type="curve"/>
      <point x="414" y="674"/>
      <point x="392" y="648"/>
    </contour>
  </outline>
</glyph>
<glyph name="currency" format="1">
  <advance width="604"/>
  <unicode hex="00A4"/>
  <outline>
    <contour>
      <point x="193" y="311" type="curve"/>
      <point x="193" y="390"/>
      <point x="228" y="449"/>
      <point x="303" y="449" type="curve"/>
      <point x="378" y="449"/>
      <point x="409" y="392"/>
      <point x="409" y="311" type="curve"/>
      <point x="409" y="230"/>
      <point x="381" y="167"/>
      <point x="306" y="167" type="curve"/>
      <point x="227" y="167"/>
      <point x="193" y="228"/>
      <point x="193" y="311" type="curve"/>
      <point x="152" y="311"/>
      <point x="194" y="311"/>
      <point x="153" y="311" type="curve"/>
      <point x="153" y="205"/>
      <point x="204" y="132"/>
      <point x="305" y="132" type="curve"/>
      <point x="403" y="132"/>
      <point x="452" y="208"/>
      <point x="452" y="312" type="curve"/>
      <point x="452" y="413"/>
      <point x="402" y="485"/>
      <point x="306" y="485" type="curve"/>
      <point x="205" y="485"/>
      <point x="153" y="414"/>
      <point x="153" y="311" type="curve"/>
      <point x="194" y="311"/>
      <point x="152" y="311"/>
    </contour>
    <contour>
      <point x="398" y="409" type="line"/>
      <point x="537" y="543" type="line"/>
      <point x="504" y="577" type="line"/>
      <point x="370" y="438" type="line"/>
    </contour>
    <contour>
      <point x="371" y="184" type="line"/>
      <point x="505" y="45" type="line"/>
      <point x="539" y="78" type="line"/>
      <point x="399" y="212" type="line"/>
    </contour>
    <contour>
      <point x="203" y="213" type="line"/>
      <point x="64" y="79" type="line"/>
      <point x="98" y="45" type="line"/>
      <point x="231" y="185" type="line"/>
    </contour>
    <contour>
      <point x="235" y="439" type="line"/>
      <point x="101" y="578" type="line"/>
      <point x="67" y="544" type="line"/>
      <point x="207" y="410" type="line"/>
    </contour>
  </outline>
</glyph>
<glyph name="yen" format="1">
  <advance width="731"/>
  <unicode hex="00A5"/>
  <outline>
    <contour>
      <point x="560" y="379" type="curve"/>
      <point x="497" y="379"/>
      <point x="436" y="379"/>
      <point x="375" y="379" type="curve"/>
      <point x="375" y="341"/>
      <point x="375" y="379"/>
      <point x="375" y="341" type="curve"/>
      <point x="436" y="341"/>
      <point x="497" y="341"/>
      <point x="560" y="341" type="curve"/>
      <point x="560" y="379"/>
      <point x="560" y="341"/>
    </contour>
    <contour>
      <point x="350" y="379" type="curve"/>
      <point x="289" y="379"/>
      <point x="228" y="379"/>
      <point x="168" y="379" type="curve"/>
      <point x="168" y="341"/>
      <point x="168" y="379"/>
      <point x="168" y="341" type="curve"/>
      <point x="228" y="341"/>
      <point x="289" y="341"/>
      <point x="350" y="341" type="curve"/>
      <point x="350" y="379"/>
      <point x="350" y="341"/>
    </contour>
    <contour>
      <point x="560" y="256" type="curve"/>
      <point x="429" y="256"/>
      <point x="299" y="256"/>
      <point x="168" y="256" type="curve"/>
      <point x="168" y="217"/>
      <point x="168" y="256"/>
      <point x="168" y="217" type="curve"/>
      <point x="299" y="217"/>
      <point x="429" y="217"/>
      <point x="560" y="217" type="curve"/>
      <point x="560" y="256"/>
      <point x="560" y="217"/>
    </contour>
    <contour>
      <point x="359" y="35" type="curve"/>
      <point x="217" y="35"/>
      <point x="365" y="35"/>
      <point x="223" y="35" type="curve"/>
      <point x="223" y="0"/>
      <point x="223" y="35"/>
      <point x="223" y="0" type="curve"/>
      <point x="270" y="0"/>
      <point x="312" y="0"/>
      <point x="359" y="0" type="curve"/>
      <point x="359" y="35"/>
      <point x="359" y="0"/>
    </contour>
    <contour>
      <point x="359" y="0" type="curve"/>
      <point x="407" y="0"/>
      <point x="449" y="0"/>
      <point x="496" y="0" type="curve"/>
      <point x="496" y="35"/>
      <point x="496" y="0"/>
      <point x="496" y="35" type="curve"/>
      <point x="353" y="35"/>
      <point x="502" y="35"/>
      <point x="359" y="35" type="curve"/>
      <point x="359" y="0"/>
      <point x="359" y="35"/>
    </contour>
    <contour>
      <point x="562" y="722" type="curve"/>
      <point x="515" y="722"/>
      <point x="473" y="722"/>
      <point x="426" y="722" type="curve"/>
      <point x="426" y="687"/>
      <point x="426" y="722"/>
      <point x="426" y="687" type="curve"/>
      <point x="567" y="687"/>
      <point x="420" y="687"/>
      <point x="562" y="687" type="curve"/>
      <point x="562" y="722"/>
      <point x="562" y="687"/>
    </contour>
    <contour>
      <point x="167" y="722" type="curve"/>
      <point x="121" y="722"/>
      <point x="80" y="722"/>
      <point x="35" y="722" type="curve"/>
      <point x="35" y="687"/>
      <point x="35" y="722"/>
      <point x="35" y="687" type="curve"/>
      <point x="172" y="687"/>
      <point x="29" y="687"/>
      <point x="167" y="687" type="curve"/>
      <point x="167" y="722"/>
      <point x="167" y="687"/>
    </contour>
    <contour>
      <point x="169" y="687" type="curve"/>
      <point x="309" y="687"/>
      <point x="163" y="687"/>
      <point x="304" y="687" type="curve"/>
      <point x="304" y="722"/>
      <point x="304" y="687"/>
      <point x="304" y="722" type="curve"/>
      <point x="258" y="722"/>
      <point x="215" y="722"/>
      <point x="169" y="722" type="curve"/>
      <point x="169" y="687"/>
      <point x="169" y="722"/>
    </contour>
    <contour>
      <point x="564" y="687" type="curve"/>
      <point x="701" y="687"/>
      <point x="558" y="687"/>
      <point x="696" y="687" type="curve"/>
      <point x="696" y="722"/>
      <point x="696" y="687"/>
      <point x="696" y="722" type="curve"/>
      <point x="650" y="722"/>
      <point x="610" y="722"/>
      <point x="564" y="722" type="curve"/>
      <point x="564" y="687"/>
      <point x="564" y="722"/>
    </contour>
    <contour>
      <point x="133" y="720" type="curve"/>
      <point x="201" y="593"/>
      <point x="269" y="465"/>
      <point x="337" y="336" type="curve"/>
      <point x="380" y="336"/>
      <point x="335" y="336"/>
      <point x="378" y="336" type="curve"/>
      <point x="310" y="466"/>
      <point x="243" y="594"/>
      <point x="176" y="722" type="curve"/>
      <point x="133" y="722"/>
      <point x="176" y="720"/>
    </contour>
    <contour>
      <point x="554" y="722" type="curve"/>
      <point x="482" y="593"/>
      <point x="411" y="465"/>
      <point x="339" y="336" type="curve"/>
      <point x="382" y="336"/>
      <point x="338" y="336"/>
      <point x="381" y="336" type="curve"/>
      <point x="454" y="465"/>
      <point x="525" y="593"/>
      <point x="597" y="721" type="curve"/>
      <point x="554" y="721"/>
      <point x="597" y="722"/>
    </contour>
    <contour>
      <point x="381" y="0" type="curve"/>
      <point x="381" y="114"/>
      <point x="381" y="228"/>
      <point x="381" y="342" type="curve"/>
      <point x="337" y="342"/>
      <point x="381" y="342"/>
      <point x="337" y="342" type="curve"/>
      <point x="337" y="228"/>
      <point x="337" y="114"/>
      <point x="337" y="0" type="curve"/>
      <point x="381" y="0"/>
      <point x="337" y="0"/>
    </contour>
  </outline>
</glyph>
<glyph name="section" format="1">
  <advance width="456"/>
  <unicode hex="00A7"/>
  <outline>
    <contour>
      <point x="363" y="708" type="curve"/>
      <point x="318" y="736"/>
      <point x="283" y="751"/>
      <point x="231" y="751" type="curve"/>
      <point x="146" y="751"/>
      <point x="96" y="702"/>
      <point x="96" y="622" type="curve"/>
      <point x="96" y="548"/>
      <point x="140" y="505"/>
      <point x="209" y="476" type="curve"/>
      <point x="282" y="448"/>
      <point x="353" y="433"/>
      <point x="353" y="361" type="curve"/>
      <point x="353" y="294"/>
      <point x="317" y="252"/>
      <point x="249" y="236" type="curve"/>
      <point x="273" y="208"/>
      <point x="249" y="236"/>
      <point x="273" y="208" type="curve"/>
      <point x="352" y="230"/>
      <point x="394" y="280"/>
      <point x="394" y="361" type="curve"/>
      <point x="393" y="450"/>
      <point x="318" y="477"/>
      <point x="230" y="509" type="curve"/>
      <point x="175" y="531"/>
      <point x="137" y="564"/>
      <point x="137" y="622" type="curve"/>
      <point x="137" y="679"/>
      <point x="169" y="716"/>
      <point x="228" y="716" type="curve"/>
      <point x="274" y="716"/>
      <point x="305" y="703"/>
      <point x="343" y="680" type="curve"/>
      <point x="363" y="708"/>
      <point x="343" y="680"/>
    </contour>
    <contour>
      <point x="181" y="515" type="curve"/>
      <point x="109" y="489"/>
      <point x="66" y="444"/>
      <point x="66" y="367" type="curve"/>
      <point x="66" y="281"/>
      <point x="132" y="247"/>
      <point x="216" y="216" type="curve"/>
      <point x="277" y="192"/>
      <point x="328" y="167"/>
      <point x="328" y="105" type="curve"/>
      <point x="328" y="45"/>
      <point x="292" y="6"/>
      <point x="231" y="6" type="curve"/>
      <point x="178" y="6"/>
      <point x="144" y="24"/>
      <point x="102" y="56" type="curve"/>
      <point x="78" y="30"/>
      <point x="102" y="56"/>
      <point x="78" y="30" type="curve"/>
      <point x="126" y="-10"/>
      <point x="169" y="-29"/>
      <point x="229" y="-29" type="curve"/>
      <point x="314" y="-29"/>
      <point x="369" y="20"/>
      <point x="369" y="105" type="curve"/>
      <point x="368" y="182"/>
      <point x="317" y="222"/>
      <point x="243" y="249" type="curve"/>
      <point x="172" y="276"/>
      <point x="108" y="298"/>
      <point x="108" y="367" type="curve"/>
      <point x="108" y="430"/>
      <point x="141" y="467"/>
      <point x="202" y="489" type="curve"/>
      <point x="181" y="515"/>
      <point x="202" y="489"/>
    </contour>
    <contour>
      <point x="113" y="30" type="curve"/>
      <point x="113" y="150"/>
      <point x="113" y="30"/>
      <point x="113" y="150" type="curve"/>
      <point x="78" y="150"/>
      <point x="113" y="150"/>
      <point x="78" y="150" type="curve"/>
      <point x="78" y="30"/>
      <point x="78" y="150"/>
      <point x="78" y="30" type="curve"/>
      <point x="113" y="30"/>
      <point x="78" y="30"/>
    </contour>
    <contour>
      <point x="363" y="588" type="curve"/>
      <point x="363" y="708"/>
      <point x="363" y="588"/>
      <point x="363" y="708" type="curve"/>
      <point x="327" y="708"/>
      <point x="363" y="708"/>
      <point x="327" y="708" type="curve"/>
      <point x="327" y="588"/>
      <point x="327" y="708"/>
      <point x="327" y="588" type="curve"/>
      <point x="363" y="588"/>
      <point x="327" y="588"/>
    </contour>
  </outline>
</glyph>
<glyph name="dieresis" format="1">
  <advance width="356"/>
  <unicode hex="00A8"/>
  <outline>
    <contour>
      <point x="137" y="643" type="move" name="_top"/>
    </contour>
    <contour>
      <point x="103" y="665" type="curve"/>
      <point x="103" y="682"/>
      <point x="92" y="690"/>
      <point x="76" y="690" type="curve"/>
      <point x="59" y="690"/>
      <point x="50" y="681"/>
      <point x="50" y="665" type="curve"/>
      <point x="97" y="665"/>
      <point x="55" y="665"/>
      <point x="103" y="665" type="curve"/>
      <point x="103" y="649"/>
      <point x="92" y="640"/>
      <point x="76" y="640" type="curve"/>
      <point x="59" y="640"/>
      <point x="50" y="649"/>
      <point x="50" y="665" type="curve"/>
      <point x="97" y="665"/>
      <point x="55" y="665"/>
    </contour>
    <contour>
      <point x="223" y="665" type="curve"/>
      <point x="223" y="682"/>
      <point x="212" y="690"/>
      <point x="196" y="690" type="curve"/>
      <point x="180" y="690"/>
      <point x="169" y="681"/>
      <point x="169" y="665" type="curve"/>
      <point x="218" y="665"/>
      <point x="175" y="665"/>
      <point x="223" y="665" type="curve"/>
      <point x="223" y="649"/>
      <point x="212" y="640"/>
      <point x="196" y="640" type="curve"/>
      <point x="180" y="640"/>
      <point x="169" y="649"/>
      <point x="169" y="665" type="curve"/>
      <point x="218" y="665"/>
      <point x="175" y="665"/>
    </contour>
  </outline>
</glyph>
<glyph name="copyright" format="1">
  <advance width="695"/>
  <unicode hex="00A9"/>
  <outline>
    <contour>
      <point x="102" y="320" type="curve"/>
      <point x="102" y="488"/>
      <point x="190" y="615"/>
      <point x="351" y="615" type="curve"/>
      <point x="508" y="615"/>
      <point x="594" y="487"/>
      <point x="594" y="319" type="curve"/>
      <point x="594" y="154"/>
      <point x="511" y="29"/>
      <point x="356" y="29" type="curve"/>
      <point x="196" y="29"/>
      <point x="102" y="150"/>
      <point x="102" y="320" type="curve"/>
      <point x="64" y="320"/>
      <point x="102" y="320"/>
      <point x="64" y="320" type="curve"/>
      <point x="64" y="133"/>
      <point x="173" y="-3"/>
      <point x="355" y="-3" type="curve"/>
      <point x="531" y="-3"/>
      <point x="631" y="135"/>
      <point x="631" y="320" type="curve"/>
      <point x="631" y="507"/>
      <point x="529" y="646"/>
      <point x="351" y="646" type="curve"/>
      <point x="171" y="646"/>
      <point x="64" y="508"/>
      <point x="64" y="320" type="curve"/>
      <point x="102" y="320"/>
      <point x="64" y="320"/>
    </contour>
    <contour>
      <point x="428" y="447" type="curve"/>
      <point x="428" y="425"/>
      <point x="428" y="402"/>
      <point x="428" y="380" type="curve"/>
      <point x="462" y="380"/>
      <point x="428" y="380"/>
      <point x="463" y="380" type="curve"/>
      <point x="463" y="408"/>
      <point x="463" y="437"/>
      <point x="463" y="464" type="curve"/>
      <point x="428" y="447"/>
      <point x="462" y="464"/>
    </contour>
    <contour>
      <point x="463" y="464" type="curve"/>
      <point x="429" y="489"/>
      <point x="399" y="499"/>
      <point x="356" y="499" type="curve"/>
      <point x="256" y="499"/>
      <point x="205" y="425"/>
      <point x="205" y="320" type="curve"/>
      <point x="205" y="218"/>
      <point x="249" y="145"/>
      <point x="345" y="145" type="curve"/>
      <point x="396" y="145"/>
      <point x="433" y="157"/>
      <point x="471" y="194" type="curve"/>
      <point x="448" y="215"/>
      <point x="471" y="194"/>
      <point x="448" y="215" type="curve"/>
      <point x="417" y="188"/>
      <point x="389" y="176"/>
      <point x="346" y="176" type="curve"/>
      <point x="270" y="176"/>
      <point x="242" y="239"/>
      <point x="242" y="321" type="curve"/>
      <point x="242" y="405"/>
      <point x="275" y="467"/>
      <point x="355" y="467" type="curve"/>
      <point x="386" y="467"/>
      <point x="406" y="460"/>
      <point x="428" y="447" type="curve"/>
      <point x="462" y="464"/>
      <point x="428" y="447"/>
    </contour>
  </outline>
</glyph>
<glyph name="guillemotleft" format="1">
  <advance width="575"/>
  <unicode hex="00AB"/>
  <outline>
    <contour>
      <point x="282" y="412" type="curve"/>
      <point x="274" y="407"/>
      <point x="79" y="303"/>
      <point x="71" y="298" type="curve"/>
      <point x="71" y="259"/>
      <point x="71" y="296"/>
      <point x="71" y="257" type="curve"/>
      <point x="79" y="262"/>
      <point x="274" y="367"/>
      <point x="282" y="372" type="curve"/>
      <point x="282" y="411"/>
      <point x="282" y="373"/>
    </contour>
    <contour>
      <point x="282" y="183" type="curve"/>
      <point x="274" y="188"/>
      <point x="79" y="293"/>
      <point x="71" y="298" type="curve"/>
      <point x="71" y="259"/>
      <point x="71" y="296"/>
      <point x="71" y="257" type="curve"/>
      <point x="79" y="252"/>
      <point x="274" y="150"/>
      <point x="282" y="145" type="curve"/>
      <point x="282" y="182"/>
      <point x="282" y="146"/>
    </contour>
    <contour>
      <point x="481" y="412" type="curve"/>
      <point x="474" y="407"/>
      <point x="279" y="303"/>
      <point x="272" y="298" type="curve"/>
      <point x="272" y="259"/>
      <point x="272" y="296"/>
      <point x="272" y="257" type="curve"/>
      <point x="279" y="262"/>
      <point x="474" y="367"/>
      <point x="481" y="372" type="curve"/>
      <point x="481" y="411"/>
      <point x="481" y="373"/>
    </contour>
    <contour>
      <point x="482" y="183" type="curve"/>
      <point x="475" y="188"/>
      <point x="279" y="293"/>
      <point x="272" y="298" type="curve"/>
      <point x="272" y="259"/>
      <point x="272" y="296"/>
      <point x="272" y="257" type="curve"/>
      <point x="279" y="252"/>
      <point x="475" y="150"/>
      <point x="482" y="145" type="curve"/>
      <point x="482" y="182"/>
      <point x="482" y="146"/>
    </contour>
  </outline>
</glyph>
<glyph name="registered" format="1">
  <advance width="697"/>
  <unicode hex="00AE"/>
  <outline>
    <contour>
      <point x="99" y="320" type="curve"/>
      <point x="99" y="490"/>
      <point x="189" y="616"/>
      <point x="352" y="616" type="curve"/>
      <point x="512" y="616"/>
      <point x="598" y="489"/>
      <point x="598" y="318" type="curve"/>
      <point x="598" y="152"/>
      <point x="515" y="27"/>
      <point x="358" y="27" type="curve"/>
      <point x="194" y="27"/>
      <point x="99" y="148"/>
      <point x="99" y="320" type="curve"/>
      <point x="73" y="320"/>
      <point x="90" y="320"/>
      <point x="64" y="320" type="curve"/>
      <point x="64" y="131"/>
      <point x="173" y="-4"/>
      <point x="356" y="-4" type="curve"/>
      <point x="534" y="-4"/>
      <point x="633" y="133"/>
      <point x="633" y="320" type="curve"/>
      <point x="633" y="508"/>
      <point x="531" y="646"/>
      <point x="352" y="646" type="curve"/>
      <point x="170" y="646"/>
      <point x="64" y="509"/>
      <point x="64" y="320" type="curve"/>
      <point x="90" y="320"/>
      <point x="73" y="320"/>
    </contour>
    <contour>
      <point x="433" y="148" type="curve"/>
      <point x="457" y="148"/>
      <point x="475" y="148"/>
      <point x="499" y="148" type="curve"/>
      <point x="499" y="179"/>
      <point x="499" y="148"/>
      <point x="499" y="179" type="curve"/>
      <point x="485" y="179"/>
      <point x="473" y="179"/>
      <point x="458" y="179" type="curve"/>
      <point x="435" y="160"/>
      <point x="452" y="182"/>
    </contour>
    <contour>
      <point x="305" y="494" type="curve"/>
      <point x="275" y="494"/>
      <point x="247" y="494"/>
      <point x="217" y="494" type="curve"/>
      <point x="217" y="462"/>
      <point x="217" y="494"/>
      <point x="217" y="462" type="curve"/>
      <point x="234" y="462"/>
      <point x="250" y="462"/>
      <point x="266" y="462" type="curve"/>
      <point x="305" y="494"/>
      <point x="266" y="462"/>
    </contour>
    <contour>
      <point x="305" y="179" type="curve"/>
      <point x="275" y="179"/>
      <point x="247" y="179"/>
      <point x="217" y="179" type="curve"/>
      <point x="217" y="148"/>
      <point x="217" y="179"/>
      <point x="217" y="148" type="curve"/>
      <point x="234" y="148"/>
      <point x="250" y="148"/>
      <point x="266" y="148" type="curve"/>
      <point x="305" y="179"/>
      <point x="266" y="148"/>
    </contour>
    <contour>
      <point x="266" y="148" type="curve"/>
      <point x="293" y="148"/>
      <point x="318" y="148"/>
      <point x="345" y="148" type="curve"/>
      <point x="345" y="179"/>
      <point x="345" y="148"/>
      <point x="345" y="179" type="curve"/>
      <point x="330" y="179"/>
      <point x="318" y="179"/>
      <point x="304" y="179" type="curve"/>
      <point x="266" y="148"/>
      <point x="304" y="179"/>
    </contour>
    <contour>
      <point x="351" y="311" type="curve"/>
      <point x="375" y="262"/>
      <point x="410" y="195"/>
      <point x="433" y="148" type="curve"/>
      <point x="459" y="173"/>
      <point x="439" y="151"/>
      <point x="458" y="179" type="curve"/>
      <point x="392" y="311" type="line"/>
      <point x="347" y="310"/>
      <point x="396" y="311"/>
    </contour>
    <contour>
      <point x="303" y="179" type="curve"/>
      <point x="303" y="284"/>
      <point x="303" y="389"/>
      <point x="303" y="494" type="curve"/>
      <point x="265" y="462"/>
      <point x="305" y="494"/>
      <point x="266" y="462" type="curve"/>
      <point x="266" y="357"/>
      <point x="266" y="252"/>
      <point x="266" y="148" type="curve"/>
      <point x="305" y="179"/>
      <point x="265" y="148"/>
    </contour>
    <contour>
      <point x="287" y="291" type="curve"/>
      <point x="305" y="291"/>
      <point x="323" y="291"/>
      <point x="340" y="291" type="curve"/>
      <point x="409" y="291"/>
      <point x="451" y="322"/>
      <point x="451" y="392" type="curve"/>
      <point x="451" y="455"/>
      <point x="412" y="494"/>
      <point x="350" y="494" type="curve"/>
      <point x="335" y="494"/>
      <point x="320" y="494"/>
      <point x="305" y="494" type="curve"/>
      <point x="266" y="462"/>
      <point x="305" y="494"/>
      <point x="266" y="462" type="curve"/>
      <point x="292" y="462"/>
      <point x="318" y="462"/>
      <point x="344" y="462" type="curve"/>
      <point x="388" y="462"/>
      <point x="415" y="435"/>
      <point x="415" y="390" type="curve"/>
      <point x="415" y="344"/>
      <point x="389" y="323"/>
      <point x="346" y="323" type="curve"/>
      <point x="327" y="323"/>
      <point x="306" y="323"/>
      <point x="287" y="323" type="curve"/>
      <point x="287" y="291"/>
      <point x="287" y="323"/>
    </contour>
  </outline>
</glyph>
<glyph name="degree" format="1">
  <advance width="442"/>
  <unicode hex="00B0"/>
  <outline>
    <contour>
      <point x="372" y="454" type="curve"/>
      <point x="372" y="570"/>
      <point x="328" y="657"/>
      <point x="221" y="657" type="curve"/>
      <point x="113" y="657"/>
      <point x="70" y="570"/>
      <point x="70" y="456" type="curve"/>
      <point x="100" y="456"/>
      <point x="78" y="456"/>
      <point x="108" y="456" type="curve"/>
      <point x="108" y="549"/>
      <point x="132" y="624"/>
      <point x="218" y="624" type="curve"/>
      <point x="304" y="624"/>
      <point x="334" y="549"/>
      <point x="334" y="454" type="curve"/>
      <point x="334" y="356"/>
      <point x="308" y="278"/>
      <point x="221" y="278" type="curve"/>
      <point x="132" y="278"/>
      <point x="108" y="358"/>
      <point x="108" y="456" type="curve"/>
      <point x="78" y="456"/>
      <point x="100" y="456"/>
      <point x="70" y="456" type="curve"/>
      <point x="70" y="336"/>
      <point x="110" y="244"/>
      <point x="220" y="244" type="curve"/>
      <point x="330" y="244"/>
      <point x="372" y="335"/>
    </contour>
  </outline>
</glyph>
<glyph name="plusminus" format="1">
  <advance width="668"/>
  <unicode hex="00B1"/>
  <outline>
    <contour>
      <point x="72" y="21" type="line"/>
      <point x="597" y="21" type="line"/>
      <point x="597" y="60" type="line"/>
      <point x="72" y="60" type="line"/>
    </contour>
    <contour>
      <point x="72" y="291" type="curve"/>
      <point x="597" y="291" type="line"/>
      <point x="597" y="329"/>
      <point x="597" y="291"/>
      <point x="597" y="329" type="curve"/>
      <point x="72" y="329" type="line"/>
      <point x="72" y="291"/>
      <point x="72" y="329"/>
    </contour>
    <contour>
      <point x="354" y="22" type="curve"/>
      <point x="354" y="587" type="line"/>
      <point x="312" y="587"/>
      <point x="355" y="587"/>
      <point x="313" y="587" type="curve"/>
      <point x="313" y="22" type="line"/>
      <point x="355" y="22"/>
      <point x="312" y="22"/>
    </contour>
  </outline>
</glyph>
<glyph name="twosuperior" format="1">
  <advance width="450"/>
  <unicode hex="00B2"/>
  <outline>
    <contour>
      <point x="240" y="713" type="move" name="_top"/>
    </contour>
    <contour>
      <point x="215" y="294" type="move" name="_bottom"/>
    </contour>
    <contour>
      <point x="367" y="295" type="curve"/>
      <point x="367" y="333"/>
      <point x="367" y="351"/>
      <point x="367" y="389" type="curve"/>
      <point x="333" y="389"/>
      <point x="369" y="389"/>
      <point x="335" y="389" type="curve"/>
      <point x="335" y="362"/>
      <point x="335" y="354"/>
      <point x="335" y="328" type="curve"/>
      <point x="370" y="296"/>
      <point x="332" y="327"/>
    </contour>
    <contour>
      <point x="78" y="295" type="curve"/>
      <point x="178" y="295"/>
      <point x="274" y="295"/>
      <point x="367" y="295" type="curve"/>
      <point x="332" y="327"/>
      <point x="370" y="296"/>
      <point x="335" y="328" type="curve"/>
      <point x="250" y="328"/>
      <point x="163" y="328"/>
      <point x="78" y="328" type="curve"/>
      <point x="78" y="295"/>
      <point x="78" y="328"/>
    </contour>
    <contour>
      <point x="132" y="609" type="curve"/>
      <point x="154" y="651"/>
      <point x="179" y="681"/>
      <point x="228" y="681" type="curve"/>
      <point x="282" y="681"/>
      <point x="312" y="645"/>
      <point x="312" y="590" type="curve"/>
      <point x="312" y="539"/>
      <point x="283" y="512"/>
      <point x="247" y="477" type="curve"/>
      <point x="191" y="427"/>
      <point x="134" y="377"/>
      <point x="78" y="328" type="curve"/>
      <point x="87" y="295"/>
      <point x="78" y="328"/>
      <point x="88" y="295" type="curve"/>
      <point x="150" y="348"/>
      <point x="214" y="399"/>
      <point x="272" y="451" type="curve"/>
      <point x="315" y="495"/>
      <point x="350" y="529"/>
      <point x="350" y="591" type="curve"/>
      <point x="350" y="666"/>
      <point x="304" y="713"/>
      <point x="230" y="713" type="curve"/>
      <point x="168" y="713"/>
      <point x="128" y="683"/>
      <point x="103" y="624" type="curve"/>
      <point x="132" y="609"/>
      <point x="103" y="624"/>
    </contour>
  </outline>
</glyph>
<glyph name="threesuperior" format="1">
  <advance width="404"/>
  <unicode hex="00B3"/>
  <outline>
    <contour>
      <point x="211" y="712" type="move" name="_top"/>
    </contour>
    <contour>
      <point x="198" y="290" type="move" name="_bottom"/>
    </contour>
    <contour>
      <point x="109" y="638" type="curve"/>
      <point x="130" y="661"/>
      <point x="156" y="681"/>
      <point x="189" y="681" type="curve"/>
      <point x="242" y="681"/>
      <point x="276" y="653"/>
      <point x="276" y="602" type="curve"/>
      <point x="276" y="544"/>
      <point x="216" y="524"/>
      <point x="151" y="520" type="curve"/>
      <point x="151" y="492"/>
      <point x="151" y="520"/>
      <point x="151" y="492" type="curve"/>
      <point x="241" y="494"/>
      <point x="314" y="523"/>
      <point x="314" y="605" type="curve"/>
      <point x="314" y="676"/>
      <point x="267" y="712"/>
      <point x="194" y="712" type="curve"/>
      <point x="150" y="712"/>
      <point x="111" y="690"/>
      <point x="85" y="659" type="curve"/>
      <point x="109" y="638"/>
      <point x="85" y="659"/>
    </contour>
    <contour>
      <point x="80" y="324" type="curve"/>
      <point x="112" y="302"/>
      <point x="145" y="290"/>
      <point x="183" y="290" type="curve"/>
      <point x="269" y="287"/>
      <point x="330" y="325"/>
      <point x="328" y="406" type="curve"/>
      <point x="328" y="491"/>
      <point x="246" y="509"/>
      <point x="151" y="512" type="curve"/>
      <point x="151" y="488"/>
      <point x="151" y="512"/>
      <point x="151" y="488" type="curve"/>
      <point x="227" y="484"/>
      <point x="289" y="465"/>
      <point x="289" y="405" type="curve"/>
      <point x="289" y="347"/>
      <point x="247" y="319"/>
      <point x="186" y="321" type="curve"/>
      <point x="155" y="321"/>
      <point x="126" y="330"/>
      <point x="99" y="348" type="curve"/>
      <point x="80" y="324"/>
      <point x="99" y="348"/>
    </contour>
  </outline>
</glyph>
<glyph name="acute" format="1">
  <advance width="247"/>
  <unicode hex="00B4"/>
  <outline>
    <contour>
      <point x="36" y="590" type="move" name="_top"/>
    </contour>
    <contour>
      <point x="55" y="590" type="line"/>
      <point x="166" y="756" type="line"/>
      <point x="111" y="756" type="line"/>
      <point x="12" y="590" type="line"/>
    </contour>
  </outline>
</glyph>
<glyph name="paragraph" format="1">
  <advance width="644"/>
  <unicode hex="00B6"/>
  <outline>
    <contour>
      <point x="383" y="687" type="curve"/>
      <point x="533" y="687"/>
      <point x="383" y="687"/>
      <point x="533" y="687" type="curve"/>
      <point x="533" y="722"/>
      <point x="533" y="687"/>
      <point x="533" y="722" type="curve"/>
      <point x="483" y="722"/>
      <point x="433" y="722"/>
      <point x="383" y="722" type="curve"/>
      <point x="383" y="687"/>
      <point x="383" y="722"/>
    </contour>
    <contour>
      <point x="383" y="0" type="curve"/>
      <point x="433" y="0"/>
      <point x="483" y="0"/>
      <point x="533" y="0" type="curve"/>
      <point x="533" y="35"/>
      <point x="533" y="0"/>
      <point x="533" y="35" type="curve"/>
      <point x="383" y="35"/>
      <point x="533" y="35"/>
      <point x="383" y="35" type="curve"/>
      <point x="383" y="0"/>
      <point x="383" y="35"/>
    </contour>
    <contour>
      <point x="383" y="35" type="curve"/>
      <point x="251" y="35"/>
      <point x="383" y="35"/>
      <point x="251" y="35" type="curve"/>
      <point x="251" y="0"/>
      <point x="251" y="35"/>
      <point x="251" y="0" type="curve"/>
      <point x="383" y="0"/>
      <point x="339" y="0"/>
      <point x="383" y="0" type="curve"/>
      <point x="383" y="35"/>
      <point x="383" y="0"/>
    </contour>
    <contour>
      <point x="375" y="352" type="curve"/>
      <point x="331" y="326"/>
      <point x="297" y="311"/>
      <point x="245" y="311" type="curve"/>
      <point x="144" y="311"/>
      <point x="87" y="384"/>
      <point x="87" y="490" type="curve"/>
      <point x="87" y="609"/>
      <point x="156" y="687"/>
      <point x="272" y="687" type="curve"/>
      <point x="308" y="687"/>
      <point x="344" y="687"/>
      <point x="381" y="687" type="curve"/>
      <point x="381" y="722"/>
      <point x="381" y="687"/>
      <point x="381" y="722" type="curve"/>
      <point x="342" y="722"/>
      <point x="305" y="722"/>
      <point x="267" y="722" type="curve"/>
      <point x="129" y="722"/>
      <point x="45" y="630"/>
      <point x="45" y="492" type="curve"/>
      <point x="45" y="358"/>
      <point x="121" y="278"/>
      <point x="248" y="275" type="curve"/>
      <point x="301" y="275"/>
      <point x="344" y="296"/>
      <point x="389" y="321" type="curve"/>
      <point x="375" y="352"/>
      <point x="388" y="322"/>
    </contour>
    <contour>
      <point x="405" y="0" type="curve"/>
      <point x="405" y="241"/>
      <point x="405" y="481"/>
      <point x="405" y="722" type="curve"/>
      <point x="363" y="722"/>
      <point x="405" y="722"/>
      <point x="363" y="722" type="curve"/>
      <point x="363" y="481"/>
      <point x="363" y="241"/>
      <point x="363" y="0" type="curve"/>
      <point x="405" y="0"/>
      <point x="363" y="0"/>
    </contour>
    <contour>
      <point x="561" y="0" type="curve"/>
      <point x="561" y="241"/>
      <point x="561" y="481"/>
      <point x="561" y="722" type="curve"/>
      <point x="519" y="722"/>
      <point x="561" y="722"/>
      <point x="519" y="722" type="curve"/>
      <point x="519" y="481"/>
      <point x="519" y="241"/>
      <point x="519" y="0" type="curve"/>
      <point x="561" y="0"/>
      <point x="519" y="0"/>
    </contour>
  </outline>
</glyph>
<glyph name="periodcentered" format="1">
  <advance width="218"/>
  <unicode hex="00B7"/>
  <outline>
    <contour>
      <point x="136" y="440" type="curve"/>
      <point x="136" y="457"/>
      <point x="125" y="465"/>
      <point x="108" y="465" type="curve"/>
      <point x="92" y="465"/>
      <point x="82" y="455"/>
      <point x="82" y="440" type="curve"/>
      <point x="130" y="440"/>
      <point x="87" y="440"/>
      <point x="136" y="440" type="curve"/>
      <point x="136" y="423"/>
      <point x="125" y="415"/>
      <point x="108" y="415" type="curve"/>
      <point x="92" y="415"/>
      <point x="82" y="424"/>
      <point x="82" y="440" type="curve"/>
      <point x="130" y="440"/>
      <point x="87" y="440"/>
    </contour>
  </outline>
</glyph>
<glyph name="cedilla" format="1">
  <advance width="324"/>
  <unicode hex="00B8"/>
  <outline>
    <contour>
      <point x="149" y="15" type="move" name="_bottom"/>
    </contour>
    <contour>
      <point x="120" y="39" type="curve"/>
      <point x="108" y="13"/>
      <point x="89" y="-24"/>
      <point x="76" y="-50" type="curve"/>
      <point x="105" y="-78"/>
      <point x="76" y="-50"/>
      <point x="105" y="-78" type="curve"/>
      <point x="119" y="-50"/>
      <point x="139" y="-12"/>
      <point x="152" y="15" type="curve"/>
      <point x="120" y="39"/>
      <point x="152" y="15"/>
    </contour>
    <contour>
      <point x="105" y="-78" type="curve"/>
      <point x="117" y="-69"/>
      <point x="125" y="-66"/>
      <point x="141" y="-66" type="curve"/>
      <point x="168" y="-66"/>
      <point x="180" y="-87"/>
      <point x="180" y="-116" type="curve"/>
      <point x="180" y="-148"/>
      <point x="160" y="-166"/>
      <point x="128" y="-166" type="curve"/>
      <point x="106" y="-166"/>
      <point x="88" y="-162"/>
      <point x="68" y="-149" type="curve"/>
      <point x="53" y="-175"/>
      <point x="68" y="-149"/>
      <point x="53" y="-175" type="curve"/>
      <point x="77" y="-191"/>
      <point x="98" y="-198"/>
      <point x="126" y="-198" type="curve"/>
      <point x="181" y="-198"/>
      <point x="216" y="-168"/>
      <point x="216" y="-116" type="curve"/>
      <point x="216" y="-66"/>
      <point x="189" y="-32"/>
      <point x="141" y="-32" type="curve"/>
      <point x="116" y="-32"/>
      <point x="99" y="-38"/>
      <point x="77" y="-50" type="curve"/>
      <point x="105" y="-78"/>
      <point x="77" y="-50"/>
    </contour>
  </outline>
</glyph>
<glyph name="onesuperior" format="1">
  <advance width="356"/>
  <unicode hex="00B9"/>
  <outline>
    <contour>
      <point x="208" y="702" type="move" name="_top"/>
    </contour>
    <contour>
      <point x="210" y="298" type="move" name="_bottom"/>
    </contour>
    <contour>
      <point x="190" y="295" type="curve"/>
      <point x="227" y="295"/>
      <point x="250" y="295"/>
      <point x="289" y="295" type="curve"/>
      <point x="289" y="328"/>
      <point x="289" y="295"/>
      <point x="289" y="328" type="curve"/>
      <point x="263" y="328"/>
      <point x="253" y="328"/>
      <point x="228" y="328" type="curve"/>
      <point x="190" y="295"/>
      <point x="228" y="328"/>
    </contour>
    <contour>
      <point x="228" y="328" type="curve"/>
      <point x="189" y="328"/>
      <point x="165" y="328"/>
      <point x="126" y="328" type="curve"/>
      <point x="126" y="295"/>
      <point x="126" y="328"/>
      <point x="126" y="295" type="curve"/>
      <point x="152" y="295"/>
      <point x="163" y="295"/>
      <point x="190" y="295" type="curve"/>
      <point x="228" y="328"/>
      <point x="190" y="295"/>
    </contour>
    <contour>
      <point x="98" y="572" type="line"/>
      <point x="227" y="696" type="line"/>
      <point x="190" y="704" type="line"/>
      <point x="74" y="595" type="line"/>
    </contour>
    <contour>
      <point x="228" y="328" type="curve"/>
      <point x="228" y="704" type="line"/>
      <point x="190" y="704" type="line"/>
      <point x="190" y="295" type="line"/>
      <point x="228" y="328"/>
      <point x="190" y="295"/>
    </contour>
  </outline>
</glyph>
<glyph name="ordmasculine" format="1">
  <advance width="413"/>
  <unicode hex="00BA"/>
  <outline>
    <contour>
      <point x="107" y="603" type="curve"/>
      <point x="107" y="681"/>
      <point x="136" y="738"/>
      <point x="207" y="738" type="curve"/>
      <point x="277" y="738"/>
      <point x="305" y="680"/>
      <point x="305" y="601" type="curve"/>
      <point x="305" y="517"/>
      <point x="278" y="452"/>
      <point x="212" y="452" type="curve"/>
      <point x="135" y="452"/>
      <point x="107" y="517"/>
      <point x="107" y="603" type="curve"/>
      <point x="86" y="603"/>
      <point x="95" y="603"/>
      <point x="73" y="603" type="curve"/>
      <point x="73" y="498"/>
      <point x="113" y="423"/>
      <point x="210" y="423" type="curve"/>
      <point x="300" y="423"/>
      <point x="340" y="497"/>
      <point x="340" y="601" type="curve"/>
      <point x="340" y="699"/>
      <point x="300" y="767"/>
      <point x="209" y="767" type="curve"/>
      <point x="114" y="767"/>
      <point x="73" y="699"/>
      <point x="73" y="603" type="curve"/>
      <point x="95" y="603"/>
      <point x="86" y="603"/>
    </contour>
  </outline>
</glyph>
<glyph name="guillemotright" format="1">
  <advance width="575"/>
  <unicode hex="00BB"/>
  <outline>
    <contour>
      <point x="293" y="412" type="curve"/>
      <point x="301" y="407"/>
      <point x="495" y="303"/>
      <point x="503" y="298" type="curve"/>
      <point x="503" y="259"/>
      <point x="503" y="296"/>
      <point x="503" y="257" type="curve"/>
      <point x="495" y="262"/>
      <point x="301" y="367"/>
      <point x="293" y="372" type="curve"/>
      <point x="293" y="411"/>
      <point x="293" y="373"/>
    </contour>
    <contour>
      <point x="293" y="183" type="curve"/>
      <point x="300" y="188"/>
      <point x="495" y="293"/>
      <point x="503" y="298" type="curve"/>
      <point x="503" y="259"/>
      <point x="503" y="296"/>
      <point x="503" y="257" type="curve"/>
      <point x="495" y="252"/>
      <point x="300" y="150"/>
      <point x="293" y="145" type="curve"/>
      <point x="293" y="182"/>
      <point x="293" y="146"/>
    </contour>
    <contour>
      <point x="93" y="412" type="curve"/>
      <point x="100" y="407"/>
      <point x="296" y="303"/>
      <point x="303" y="298" type="curve"/>
      <point x="303" y="259"/>
      <point x="303" y="296"/>
      <point x="303" y="257" type="curve"/>
      <point x="296" y="262"/>
      <point x="100" y="367"/>
      <point x="93" y="372" type="curve"/>
      <point x="93" y="411"/>
      <point x="93" y="373"/>
    </contour>
    <contour>
      <point x="92" y="183" type="curve"/>
      <point x="100" y="188"/>
      <point x="296" y="293"/>
      <point x="303" y="298" type="curve"/>
      <point x="303" y="259"/>
      <point x="303" y="296"/>
      <point x="303" y="257" type="curve"/>
      <point x="296" y="252"/>
      <point x="100" y="150"/>
      <point x="92" y="145" type="curve"/>
      <point x="92" y="182"/>
      <point x="92" y="146"/>
    </contour>
  </outline>
</glyph>
<glyph name="onequarter" format="1">
  <advance width="850"/>
  <unicode hex="00BC"/>
  <outline>
    <contour>
      <point x="270" y="-84" type="line"/>
      <point x="643" y="750" type="line"/>
      <point x="600" y="750" type="line"/>
      <point x="227" y="-84" type="line"/>
    </contour>
    <contour>
      <point x="158" y="345" type="curve"/>
      <point x="197" y="345"/>
      <point x="219" y="345"/>
      <point x="257" y="345" type="curve"/>
      <point x="257" y="377"/>
      <point x="257" y="344"/>
      <point x="257" y="376" type="curve"/>
      <point x="232" y="376"/>
      <point x="223" y="376"/>
      <point x="197" y="376" type="curve"/>
      <point x="158" y="344"/>
      <point x="197" y="377"/>
    </contour>
    <contour>
      <point x="197" y="376" type="curve"/>
      <point x="158" y="376"/>
      <point x="135" y="376"/>
      <point x="95" y="376" type="curve"/>
      <point x="95" y="344"/>
      <point x="95" y="377"/>
      <point x="95" y="345" type="curve"/>
      <point x="122" y="345"/>
      <point x="132" y="345"/>
      <point x="158" y="345" type="curve"/>
      <point x="197" y="377"/>
      <point x="158" y="344"/>
    </contour>
    <contour>
      <point x="66" y="621" type="line"/>
      <point x="196" y="746" type="line"/>
      <point x="158" y="754" type="line"/>
      <point x="44" y="645" type="line"/>
    </contour>
    <contour>
      <point x="197" y="376" type="curve"/>
      <point x="197" y="754" type="line"/>
      <point x="158" y="754" type="line"/>
      <point x="158" y="345" type="line"/>
      <point x="197" y="377"/>
      <point x="158" y="344"/>
    </contour>
    <contour>
      <point x="824" y="62" type="line"/>
      <point x="489" y="62" type="line"/>
      <point x="489" y="31" type="line"/>
      <point x="824" y="31" type="line"/>
    </contour>
    <contour>
      <point x="507" y="33" type="line"/>
      <point x="725" y="337" type="line"/>
      <point x="692" y="348" type="line"/>
      <point x="489" y="62" type="line"/>
    </contour>
    <contour>
      <point x="730" y="-86" type="line"/>
      <point x="730" y="348" type="line"/>
      <point x="692" y="348" type="line"/>
      <point x="692" y="-86" type="line"/>
    </contour>
    <contour>
      <point x="710" y="-57" type="line"/>
      <point x="620" y="-57" type="line"/>
      <point x="620" y="-87" type="line"/>
      <point x="710" y="-87" type="line"/>
    </contour>
    <contour>
      <point x="710" y="-87" type="line"/>
      <point x="800" y="-87" type="line"/>
      <point x="800" y="-57" type="line"/>
      <point x="710" y="-57" type="line"/>
    </contour>
  </outline>
</glyph>
<glyph name="onehalf" format="1">
  <advance width="896"/>
  <unicode hex="00BD"/>
  <outline>
    <contour>
      <point x="280" y="-84" type="line"/>
      <point x="653" y="750" type="line"/>
      <point x="610" y="750" type="line"/>
      <point x="237" y="-84" type="line"/>
    </contour>
    <contour>
      <point x="155" y="345" type="curve"/>
      <point x="194" y="345"/>
      <point x="217" y="345"/>
      <point x="255" y="345" type="curve"/>
      <point x="255" y="377"/>
      <point x="255" y="344"/>
      <point x="255" y="376" type="curve"/>
      <point x="229" y="376"/>
      <point x="220" y="376"/>
      <point x="195" y="376" type="curve"/>
      <point x="155" y="344"/>
      <point x="195" y="377"/>
    </contour>
    <contour>
      <point x="195" y="376" type="curve"/>
      <point x="156" y="376"/>
      <point x="132" y="376"/>
      <point x="93" y="376" type="curve"/>
      <point x="93" y="344"/>
      <point x="93" y="377"/>
      <point x="93" y="345" type="curve"/>
      <point x="119" y="345"/>
      <point x="129" y="345"/>
      <point x="155" y="345" type="curve"/>
      <point x="195" y="377"/>
      <point x="155" y="344"/>
    </contour>
    <contour>
      <point x="64" y="621" type="line"/>
      <point x="194" y="746" type="line"/>
      <point x="155" y="754" type="line"/>
      <point x="41" y="645" type="line"/>
    </contour>
    <contour>
      <point x="195" y="376" type="curve"/>
      <point x="195" y="754" type="line"/>
      <point x="155" y="754" type="line"/>
      <point x="155" y="345" type="line"/>
      <point x="195" y="377"/>
      <point x="155" y="344"/>
    </contour>
    <contour>
      <point x="855" y="-85" type="curve"/>
      <point x="855" y="-47"/>
      <point x="855" y="-28"/>
      <point x="855" y="10" type="curve"/>
      <point x="820" y="10"/>
      <point x="857" y="10"/>
      <point x="822" y="10" type="curve"/>
      <point x="822" y="-17"/>
      <point x="822" y="-25"/>
      <point x="822" y="-52" type="curve"/>
      <point x="857" y="-84"/>
      <point x="820" y="-53"/>
    </contour>
    <contour>
      <point x="565" y="-85" type="curve"/>
      <point x="665" y="-85"/>
      <point x="762" y="-85"/>
      <point x="855" y="-85" type="curve"/>
      <point x="820" y="-53"/>
      <point x="857" y="-84"/>
      <point x="822" y="-52" type="curve"/>
      <point x="738" y="-52"/>
      <point x="651" y="-52"/>
      <point x="565" y="-52" type="curve"/>
      <point x="565" y="-84"/>
      <point x="565" y="-52"/>
    </contour>
    <contour>
      <point x="619" y="229" type="curve"/>
      <point x="641" y="271"/>
      <point x="666" y="301"/>
      <point x="715" y="301" type="curve"/>
      <point x="770" y="301"/>
      <point x="800" y="265"/>
      <point x="800" y="210" type="curve"/>
      <point x="800" y="160"/>
      <point x="771" y="133"/>
      <point x="735" y="97" type="curve"/>
      <point x="679" y="47"/>
      <point x="622" y="-3"/>
      <point x="565" y="-52" type="curve"/>
      <point x="575" y="-84"/>
      <point x="565" y="-52"/>
      <point x="575" y="-84" type="curve"/>
      <point x="637" y="-32"/>
      <point x="701" y="20"/>
      <point x="759" y="71" type="curve"/>
      <point x="803" y="116"/>
      <point x="837" y="149"/>
      <point x="837" y="211" type="curve"/>
      <point x="837" y="287"/>
      <point x="792" y="333"/>
      <point x="717" y="333" type="curve"/>
      <point x="655" y="333"/>
      <point x="616" y="303"/>
      <point x="590" y="244" type="curve"/>
      <point x="619" y="229"/>
      <point x="590" y="244"/>
    </contour>
  </outline>
</glyph>
<glyph name="questiondown" format="1">
  <advance width="459"/>
  <unicode hex="00BF"/>
  <outline>
    <contour>
      <point x="274" y="371" type="curve"/>
      <point x="274" y="408"/>
      <point x="274" y="454"/>
      <point x="274" y="491" type="curve"/>
      <point x="233" y="491"/>
      <point x="274" y="491"/>
      <point x="233" y="491" type="curve"/>
      <point x="233" y="454"/>
      <point x="233" y="408"/>
      <point x="233" y="371" type="curve"/>
      <point x="274" y="371"/>
      <point x="233" y="371"/>
    </contour>
    <contour>
      <point x="374" y="96" type="line"/>
      <point x="347" y="61"/>
      <point x="306" y="32"/>
      <point x="250" y="32" type="curve"/>
      <point x="156" y="32"/>
      <point x="104" y="97"/>
      <point x="104" y="193" type="curve"/>
      <point x="104" y="298"/>
      <point x="164" y="371"/>
      <point x="268" y="371" type="curve"/>
      <point x="268" y="393"/>
      <point x="268" y="384"/>
      <point x="268" y="406" type="curve"/>
      <point x="140" y="406"/>
      <point x="63" y="321"/>
      <point x="63" y="193" type="curve"/>
      <point x="63" y="75"/>
      <point x="133" y="-5"/>
      <point x="248" y="-5" type="curve"/>
      <point x="319" y="-5"/>
      <point x="365" y="27"/>
      <point x="399" y="70" type="curve"/>
    </contour>
    <contour>
      <point x="227" y="694" type="curve"/>
      <point x="227" y="678"/>
      <point x="238" y="670"/>
      <point x="254" y="670" type="curve"/>
      <point x="270" y="670"/>
      <point x="279" y="680"/>
      <point x="279" y="694" type="curve"/>
      <point x="227" y="694"/>
      <point x="279" y="694"/>
      <point x="227" y="694" type="curve"/>
      <point x="227" y="711"/>
      <point x="238" y="718"/>
      <point x="254" y="718" type="curve"/>
      <point x="270" y="718"/>
      <point x="279" y="710"/>
      <point x="279" y="694" type="curve"/>
      <point x="227" y="694"/>
      <point x="279" y="694"/>
    </contour>
  </outline>
</glyph>
<glyph name="Aacute" format="1">
  <advance width="723"/>
  <unicode hex="00C1"/>
  <outline>
    <contour>
      <point x="105" y="35" type="curve"/>
      <point x="-34" y="35"/>
      <point x="119" y="35"/>
      <point x="-20" y="35" type="curve"/>
      <point x="-20" y="0"/>
      <point x="-20" y="35"/>
      <point x="-20" y="0" type="curve"/>
      <point x="26" y="0"/>
      <point x="59" y="0"/>
      <point x="105" y="0" type="curve"/>
      <point x="105" y="35"/>
      <point x="105" y="0"/>
    </contour>
    <contour>
      <point x="105" y="0" type="curve"/>
      <point x="155" y="0"/>
      <point x="92" y="0"/>
      <point x="242" y="0" type="curve"/>
      <point x="242" y="35"/>
      <point x="242" y="0"/>
      <point x="242" y="35" type="curve"/>
      <point x="92" y="35"/>
      <point x="254" y="35"/>
      <point x="105" y="35" type="curve"/>
      <point x="105" y="0"/>
      <point x="105" y="35"/>
    </contour>
    <contour>
      <point x="584" y="0" type="curve"/>
      <point x="630" y="0"/>
      <point x="662" y="0"/>
      <point x="709" y="0" type="curve"/>
      <point x="709" y="35"/>
      <point x="709" y="0"/>
      <point x="709" y="35" type="curve"/>
      <point x="571" y="35"/>
      <point x="722" y="35"/>
      <point x="584" y="35" type="curve"/>
      <point x="584" y="0"/>
      <point x="584" y="35"/>
    </contour>
    <contour>
      <point x="584" y="35" type="curve"/>
      <point x="434" y="35"/>
      <point x="596" y="35"/>
      <point x="447" y="35" type="curve"/>
      <point x="447" y="0"/>
      <point x="447" y="35"/>
      <point x="447" y="0" type="curve"/>
      <point x="496" y="0"/>
      <point x="534" y="0"/>
      <point x="584" y="0" type="curve"/>
      <point x="584" y="35"/>
      <point x="584" y="0"/>
    </contour>
    <contour>
      <point x="501" y="280" type="curve"/>
      <point x="401" y="280"/>
      <point x="302" y="280"/>
      <point x="203" y="280" type="curve"/>
      <point x="185" y="243"/>
      <point x="203" y="280"/>
      <point x="185" y="243" type="curve"/>
      <point x="295" y="243"/>
      <point x="405" y="243"/>
      <point x="514" y="243" type="curve"/>
      <point x="501" y="280"/>
      <point x="514" y="243"/>
    </contour>
    <contour>
      <point x="616" y="0" type="curve"/>
      <point x="537" y="241"/>
      <point x="457" y="481"/>
      <point x="378" y="722" type="curve"/>
      <point x="339" y="722"/>
      <point x="378" y="722"/>
      <point x="339" y="722" type="curve"/>
      <point x="418" y="481"/>
      <point x="494" y="241"/>
      <point x="571" y="0" type="curve"/>
      <point x="616" y="0"/>
      <point x="571" y="0"/>
    </contour>
    <contour>
      <point x="117" y="0" type="curve"/>
      <point x="204" y="241"/>
      <point x="289" y="481"/>
      <point x="376" y="722" type="curve"/>
      <point x="337" y="722"/>
      <point x="376" y="722"/>
      <point x="337" y="722" type="curve"/>
      <point x="250" y="481"/>
      <point x="159" y="241"/>
      <point x="71" y="0" type="curve"/>
      <point x="117" y="0"/>
      <point x="71" y="0"/>
    </contour>
    <contour>
      <point x="377" y="818" type="line"/>
      <point x="488" y="984" type="line"/>
      <point x="433" y="984" type="line"/>
      <point x="334" y="818" type="line"/>
    </contour>
  </outline>
</glyph>
<glyph name="Atilde" format="1">
  <advance width="723"/>
  <unicode hex="00C3"/>
  <outline>
    <contour>
      <point x="105" y="35" type="curve"/>
      <point x="-34" y="35"/>
      <point x="119" y="35"/>
      <point x="-20" y="35" type="curve"/>
      <point x="-20" y="0"/>
      <point x="-20" y="35"/>
      <point x="-20" y="0" type="curve"/>
      <point x="26" y="0"/>
      <point x="59" y="0"/>
      <point x="105" y="0" type="curve"/>
      <point x="105" y="35"/>
      <point x="105" y="0"/>
    </contour>
    <contour>
      <point x="105" y="0" type="curve"/>
      <point x="155" y="0"/>
      <point x="92" y="0"/>
      <point x="242" y="0" type="curve"/>
      <point x="242" y="35"/>
      <point x="242" y="0"/>
      <point x="242" y="35" type="curve"/>
      <point x="92" y="35"/>
      <point x="254" y="35"/>
      <point x="105" y="35" type="curve"/>
      <point x="105" y="0"/>
      <point x="105" y="35"/>
    </contour>
    <contour>
      <point x="584" y="0" type="curve"/>
      <point x="630" y="0"/>
      <point x="662" y="0"/>
      <point x="709" y="0" type="curve"/>
      <point x="709" y="35"/>
      <point x="709" y="0"/>
      <point x="709" y="35" type="curve"/>
      <point x="571" y="35"/>
      <point x="722" y="35"/>
      <point x="584" y="35" type="curve"/>
      <point x="584" y="0"/>
      <point x="584" y="35"/>
    </contour>
    <contour>
      <point x="584" y="35" type="curve"/>
      <point x="434" y="35"/>
      <point x="596" y="35"/>
      <point x="447" y="35" type="curve"/>
      <point x="447" y="0"/>
      <point x="447" y="35"/>
      <point x="447" y="0" type="curve"/>
      <point x="496" y="0"/>
      <point x="534" y="0"/>
      <point x="584" y="0" type="curve"/>
      <point x="584" y="35"/>
      <point x="584" y="0"/>
    </contour>
    <contour>
      <point x="501" y="280" type="curve"/>
      <point x="401" y="280"/>
      <point x="302" y="280"/>
      <point x="203" y="280" type="curve"/>
      <point x="185" y="243"/>
      <point x="203" y="280"/>
      <point x="185" y="243" type="curve"/>
      <point x="295" y="243"/>
      <point x="405" y="243"/>
      <point x="514" y="243" type="curve"/>
      <point x="501" y="280"/>
      <point x="514" y="243"/>
    </contour>
    <contour>
      <point x="616" y="0" type="curve"/>
      <point x="537" y="241"/>
      <point x="457" y="481"/>
      <point x="378" y="722" type="curve"/>
      <point x="339" y="722"/>
      <point x="378" y="722"/>
      <point x="339" y="722" type="curve"/>
      <point x="418" y="481"/>
      <point x="494" y="241"/>
      <point x="571" y="0" type="curve"/>
      <point x="616" y="0"/>
      <point x="571" y="0"/>
    </contour>
    <contour>
      <point x="117" y="0" type="curve"/>
      <point x="204" y="241"/>
      <point x="289" y="481"/>
      <point x="376" y="722" type="curve"/>
      <point x="337" y="722"/>
      <point x="376" y="722"/>
      <point x="337" y="722" type="curve"/>
      <point x="250" y="481"/>
      <point x="159" y="241"/>
      <point x="71" y="0" type="curve"/>
      <point x="117" y="0"/>
      <point x="71" y="0"/>
    </contour>
    <contour>
      <point x="498" y="952" type="curve"/>
      <point x="486" y="902"/>
      <point x="475" y="857"/>
      <point x="438" y="857" type="curve"/>
      <point x="404" y="857"/>
      <point x="386" y="875"/>
      <point x="364" y="902" type="curve"/>
      <point x="339" y="932"/>
      <point x="319" y="954"/>
      <point x="280" y="954" type="curve"/>
      <point x="217" y="954"/>
      <point x="197" y="898"/>
      <point x="183" y="832" type="curve"/>
      <point x="216" y="819"/>
      <point x="183" y="833"/>
      <point x="216" y="819" type="curve"/>
      <point x="227" y="872"/>
      <point x="240" y="914"/>
      <point x="284" y="914" type="curve"/>
      <point x="315" y="914"/>
      <point x="329" y="894"/>
      <point x="348" y="871" type="curve"/>
      <point x="376" y="839"/>
      <point x="398" y="818"/>
      <point x="440" y="818" type="curve"/>
      <point x="503" y="818"/>
      <point x="517" y="875"/>
      <point x="533" y="940" type="curve"/>
      <point x="498" y="952"/>
      <point x="533" y="940"/>
    </contour>
  </outline>
</glyph>
<glyph name="Adieresis" format="1">
  <advance width="723"/>
  <unicode hex="00C4"/>
  <outline>
    <contour>
      <point x="105" y="35" type="curve"/>
      <point x="-34" y="35"/>
      <point x="119" y="35"/>
      <point x="-20" y="35" type="curve"/>
      <point x="-20" y="0"/>
      <point x="-20" y="35"/>
      <point x="-20" y="0" type="curve"/>
      <point x="26" y="0"/>
      <point x="59" y="0"/>
      <point x="105" y="0" type="curve"/>
      <point x="105" y="35"/>
      <point x="105" y="0"/>
    </contour>
    <contour>
      <point x="105" y="0" type="curve"/>
      <point x="155" y="0"/>
      <point x="92" y="0"/>
      <point x="242" y="0" type="curve"/>
      <point x="242" y="35"/>
      <point x="242" y="0"/>
      <point x="242" y="35" type="curve"/>
      <point x="92" y="35"/>
      <point x="254" y="35"/>
      <point x="105" y="35" type="curve"/>
      <point x="105" y="0"/>
      <point x="105" y="35"/>
    </contour>
    <contour>
      <point x="584" y="0" type="curve"/>
      <point x="630" y="0"/>
      <point x="662" y="0"/>
      <point x="709" y="0" type="curve"/>
      <point x="709" y="35"/>
      <point x="709" y="0"/>
      <point x="709" y="35" type="curve"/>
      <point x="571" y="35"/>
      <point x="722" y="35"/>
      <point x="584" y="35" type="curve"/>
      <point x="584" y="0"/>
      <point x="584" y="35"/>
    </contour>
    <contour>
      <point x="584" y="35" type="curve"/>
      <point x="434" y="35"/>
      <point x="596" y="35"/>
      <point x="447" y="35" type="curve"/>
      <point x="447" y="0"/>
      <point x="447" y="35"/>
      <point x="447" y="0" type="curve"/>
      <point x="496" y="0"/>
      <point x="534" y="0"/>
      <point x="584" y="0" type="curve"/>
      <point x="584" y="35"/>
      <point x="584" y="0"/>
    </contour>
    <contour>
      <point x="501" y="280" type="curve"/>
      <point x="401" y="280"/>
      <point x="302" y="280"/>
      <point x="203" y="280" type="curve"/>
      <point x="185" y="243"/>
      <point x="203" y="280"/>
      <point x="185" y="243" type="curve"/>
      <point x="295" y="243"/>
      <point x="405" y="243"/>
      <point x="514" y="243" type="curve"/>
      <point x="501" y="280"/>
      <point x="514" y="243"/>
    </contour>
    <contour>
      <point x="616" y="0" type="curve"/>
      <point x="537" y="241"/>
      <point x="457" y="481"/>
      <point x="378" y="722" type="curve"/>
      <point x="339" y="722"/>
      <point x="378" y="722"/>
      <point x="339" y="722" type="curve"/>
      <point x="418" y="481"/>
      <point x="494" y="241"/>
      <point x="571" y="0" type="curve"/>
      <point x="616" y="0"/>
      <point x="571" y="0"/>
    </contour>
    <contour>
      <point x="117" y="0" type="curve"/>
      <point x="204" y="241"/>
      <point x="289" y="481"/>
      <point x="376" y="722" type="curve"/>
      <point x="337" y="722"/>
      <point x="376" y="722"/>
      <point x="337" y="722" type="curve"/>
      <point x="250" y="481"/>
      <point x="159" y="241"/>
      <point x="71" y="0" type="curve"/>
      <point x="117" y="0"/>
      <point x="71" y="0"/>
    </contour>
    <contour>
      <point x="324" y="841" type="curve"/>
      <point x="324" y="858"/>
      <point x="312" y="866"/>
      <point x="296" y="866" type="curve"/>
      <point x="280" y="866"/>
      <point x="270" y="856"/>
      <point x="270" y="841" type="curve"/>
      <point x="318" y="841"/>
      <point x="275" y="841"/>
      <point x="324" y="841" type="curve"/>
      <point x="324" y="824"/>
      <point x="312" y="816"/>
      <point x="296" y="816" type="curve"/>
      <point x="279" y="816"/>
      <point x="270" y="825"/>
      <point x="270" y="841" type="curve"/>
      <point x="318" y="841"/>
      <point x="275" y="841"/>
    </contour>
    <contour>
      <point x="443" y="841" type="curve"/>
      <point x="443" y="858"/>
      <point x="432" y="866"/>
      <point x="416" y="866" type="curve"/>
      <point x="400" y="866"/>
      <point x="390" y="856"/>
      <point x="390" y="841" type="curve"/>
      <point x="438" y="841"/>
      <point x="395" y="841"/>
      <point x="443" y="841" type="curve"/>
      <point x="443" y="824"/>
      <point x="432" y="816"/>
      <point x="416" y="816" type="curve"/>
      <point x="400" y="816"/>
      <point x="390" y="825"/>
      <point x="390" y="841" type="curve"/>
      <point x="438" y="841"/>
      <point x="395" y="841"/>
    </contour>
  </outline>
</glyph>
<glyph name="Aring" format="1">
  <advance width="723"/>
  <unicode hex="00C5"/>
  <outline>
    <contour>
      <point x="105" y="35" type="curve"/>
      <point x="-34" y="35"/>
      <point x="119" y="35"/>
      <point x="-20" y="35" type="curve"/>
      <point x="-20" y="0"/>
      <point x="-20" y="35"/>
      <point x="-20" y="0" type="curve"/>
      <point x="26" y="0"/>
      <point x="59" y="0"/>
      <point x="105" y="0" type="curve"/>
      <point x="105" y="35"/>
      <point x="105" y="0"/>
    </contour>
    <contour>
      <point x="105" y="0" type="curve"/>
      <point x="155" y="0"/>
      <point x="92" y="0"/>
      <point x="242" y="0" type="curve"/>
      <point x="242" y="35"/>
      <point x="242" y="0"/>
      <point x="242" y="35" type="curve"/>
      <point x="92" y="35"/>
      <point x="254" y="35"/>
      <point x="105" y="35" type="curve"/>
      <point x="105" y="0"/>
      <point x="105" y="35"/>
    </contour>
    <contour>
      <point x="584" y="0" type="curve"/>
      <point x="630" y="0"/>
      <point x="662" y="0"/>
      <point x="709" y="0" type="curve"/>
      <point x="709" y="35"/>
      <point x="709" y="0"/>
      <point x="709" y="35" type="curve"/>
      <point x="571" y="35"/>
      <point x="722" y="35"/>
      <point x="584" y="35" type="curve"/>
      <point x="584" y="0"/>
      <point x="584" y="35"/>
    </contour>
    <contour>
      <point x="584" y="35" type="curve"/>
      <point x="434" y="35"/>
      <point x="596" y="35"/>
      <point x="447" y="35" type="curve"/>
      <point x="447" y="0"/>
      <point x="447" y="35"/>
      <point x="447" y="0" type="curve"/>
      <point x="496" y="0"/>
      <point x="534" y="0"/>
      <point x="584" y="0" type="curve"/>
      <point x="584" y="35"/>
      <point x="584" y="0"/>
    </contour>
    <contour>
      <point x="501" y="280" type="curve"/>
      <point x="401" y="280"/>
      <point x="302" y="280"/>
      <point x="203" y="280" type="curve"/>
      <point x="185" y="243"/>
      <point x="203" y="280"/>
      <point x="185" y="243" type="curve"/>
      <point x="295" y="243"/>
      <point x="405" y="243"/>
      <point x="514" y="243" type="curve"/>
      <point x="501" y="280"/>
      <point x="514" y="243"/>
    </contour>
    <contour>
      <point x="616" y="0" type="curve"/>
      <point x="537" y="241"/>
      <point x="457" y="481"/>
      <point x="378" y="722" type="curve"/>
      <point x="339" y="722"/>
      <point x="378" y="722"/>
      <point x="339" y="722" type="curve"/>
      <point x="418" y="481"/>
      <point x="494" y="241"/>
      <point x="571" y="0" type="curve"/>
      <point x="616" y="0"/>
      <point x="571" y="0"/>
    </contour>
    <contour>
      <point x="117" y="0" type="curve"/>
      <point x="204" y="241"/>
      <point x="289" y="481"/>
      <point x="376" y="722" type="curve"/>
      <point x="337" y="722"/>
      <point x="376" y="722"/>
      <point x="337" y="722" type="curve"/>
      <point x="250" y="481"/>
      <point x="159" y="241"/>
      <point x="71" y="0" type="curve"/>
      <point x="117" y="0"/>
      <point x="71" y="0"/>
    </contour>
    <contour>
      <point x="247" y="938" type="curve"/>
      <point x="247" y="866"/>
      <point x="287" y="817"/>
      <point x="357" y="817" type="curve"/>
      <point x="429" y="817"/>
      <point x="469" y="864"/>
      <point x="469" y="938" type="curve"/>
      <point x="469" y="1012"/>
      <point x="428" y="1059"/>
      <point x="354" y="1059" type="curve"/>
      <point x="286" y="1059"/>
      <point x="247" y="1011"/>
      <point x="247" y="938" type="curve"/>
      <point x="286" y="938"/>
      <point x="246" y="938"/>
      <point x="284" y="938" type="curve"/>
      <point x="284" y="989"/>
      <point x="306" y="1026"/>
      <point x="354" y="1026" type="curve"/>
      <point x="406" y="1026"/>
      <point x="431" y="991"/>
      <point x="431" y="938" type="curve"/>
      <point x="431" y="886"/>
      <point x="407" y="850"/>
      <point x="357" y="850" type="curve"/>
      <point x="308" y="850"/>
      <point x="284" y="886"/>
      <point x="284" y="938" type="curve"/>
      <point x="246" y="938"/>
      <point x="286" y="938"/>
    </contour>
  </outline>
</glyph>
<glyph name="AE" format="1">
  <advance width="883"/>
  <unicode hex="00C6"/>
  <outline>
    <contour>
      <point x="102" y="35" type="curve"/>
      <point x="-21" y="35"/>
      <point x="107" y="35"/>
      <point x="-16" y="35" type="curve"/>
      <point x="-16" y="0"/>
      <point x="-16" y="35"/>
      <point x="-16" y="0" type="curve"/>
      <point x="25" y="0"/>
      <point x="60" y="0"/>
      <point x="102" y="0" type="curve"/>
      <point x="102" y="35"/>
      <point x="102" y="0"/>
    </contour>
    <contour>
      <point x="102" y="0" type="curve"/>
      <point x="148" y="0"/>
      <point x="92" y="0"/>
      <point x="230" y="0" type="curve"/>
      <point x="230" y="35"/>
      <point x="230" y="0"/>
      <point x="230" y="35" type="curve"/>
      <point x="92" y="35"/>
      <point x="240" y="35"/>
      <point x="102" y="35" type="curve"/>
      <point x="102" y="0"/>
      <point x="102" y="35"/>
    </contour>
    <contour>
      <point x="453" y="268" type="curve"/>
      <point x="353" y="268"/>
      <point x="320" y="268"/>
      <point x="221" y="268" type="curve"/>
      <point x="204" y="231"/>
      <point x="221" y="268"/>
      <point x="204" y="231" type="curve"/>
      <point x="313" y="231"/>
      <point x="357" y="231"/>
      <point x="467" y="231" type="curve"/>
      <point x="453" y="268"/>
      <point x="467" y="231"/>
    </contour>
    <contour>
      <point x="114" y="0" type="curve"/>
      <point x="481" y="722" type="line"/>
      <point x="443" y="722"/>
      <point x="481" y="722"/>
      <point x="442" y="722" type="curve"/>
      <point x="68" y="0" type="line"/>
      <point x="114" y="0"/>
      <point x="69" y="0"/>
    </contour>
    <contour>
      <point x="835" y="18" type="curve"/>
      <point x="835" y="138"/>
      <point x="835" y="12"/>
      <point x="835" y="132" type="curve"/>
      <point x="799" y="132"/>
      <point x="835" y="132"/>
      <point x="799" y="132" type="curve"/>
      <point x="799" y="12"/>
      <point x="799" y="138"/>
      <point x="799" y="18" type="curve"/>
      <point x="835" y="18"/>
      <point x="799" y="18"/>
    </contour>
    <contour>
      <point x="770" y="704" type="curve"/>
      <point x="770" y="584"/>
      <point x="770" y="710"/>
      <point x="770" y="590" type="curve"/>
      <point x="806" y="590"/>
      <point x="770" y="590"/>
      <point x="806" y="590" type="curve"/>
      <point x="806" y="710"/>
      <point x="806" y="584"/>
      <point x="806" y="704" type="curve"/>
      <point x="770" y="704"/>
      <point x="806" y="704"/>
    </contour>
    <contour>
      <point x="460" y="35" type="curve"/>
      <point x="318" y="35"/>
      <point x="472" y="35"/>
      <point x="331" y="35" type="curve"/>
      <point x="331" y="0"/>
      <point x="331" y="35"/>
      <point x="331" y="0" type="curve"/>
      <point x="378" y="0"/>
      <point x="413" y="0"/>
      <point x="460" y="0" type="curve"/>
      <point x="460" y="35"/>
      <point x="460" y="0"/>
    </contour>
    <contour>
      <point x="460" y="722" type="curve"/>
      <point x="413" y="722"/>
      <point x="378" y="722"/>
      <point x="331" y="722" type="curve"/>
      <point x="331" y="687"/>
      <point x="331" y="722"/>
      <point x="331" y="687" type="curve"/>
      <point x="472" y="687"/>
      <point x="318" y="687"/>
      <point x="460" y="687" type="curve"/>
      <point x="460" y="722"/>
      <point x="460" y="687"/>
    </contour>
    <contour>
      <point x="463" y="356" type="curve"/>
      <point x="559" y="356"/>
      <point x="654" y="356"/>
      <point x="751" y="356" type="curve"/>
      <point x="751" y="391"/>
      <point x="751" y="356"/>
      <point x="751" y="391" type="curve"/>
      <point x="654" y="391"/>
      <point x="559" y="391"/>
      <point x="463" y="391" type="curve"/>
      <point x="463" y="356"/>
      <point x="463" y="391"/>
    </contour>
    <contour>
      <point x="449" y="687" type="curve"/>
      <point x="569" y="687"/>
      <point x="686" y="687"/>
      <point x="806" y="687" type="curve"/>
      <point x="806" y="722"/>
      <point x="806" y="687"/>
      <point x="806" y="722" type="curve"/>
      <point x="686" y="722"/>
      <point x="569" y="722"/>
      <point x="449" y="722" type="curve"/>
      <point x="449" y="687"/>
      <point x="449" y="722"/>
    </contour>
    <contour>
      <point x="480" y="0" type="curve"/>
      <point x="480" y="722" type="line"/>
      <point x="439" y="722"/>
      <point x="480" y="722"/>
      <point x="439" y="722" type="curve"/>
      <point x="439" y="481"/>
      <point x="439" y="241"/>
      <point x="439" y="0" type="curve"/>
      <point x="480" y="0"/>
      <point x="439" y="0"/>
    </contour>
    <contour>
      <point x="449" y="0" type="curve"/>
      <point x="579" y="0"/>
      <point x="706" y="0"/>
      <point x="835" y="0" type="curve"/>
      <point x="835" y="35"/>
      <point x="835" y="0"/>
      <point x="835" y="35" type="curve"/>
      <point x="706" y="35"/>
      <point x="579" y="35"/>
      <point x="449" y="35" type="curve"/>
      <point x="449" y="0"/>
      <point x="449" y="35"/>
    </contour>
  </outline>
</glyph>
<glyph name="Ccedilla" format="1">
  <advance width="624"/>
  <unicode hex="00C7"/>
  <outline>
    <contour>
      <point x="526" y="655" type="curve"/>
      <point x="526" y="535"/>
      <point x="526" y="653"/>
      <point x="526" y="533" type="curve"/>
      <point x="561" y="533"/>
      <point x="526" y="533"/>
      <point x="561" y="533" type="curve"/>
      <point x="561" y="653"/>
      <point x="561" y="535"/>
      <point x="561" y="655" type="curve"/>
      <point x="526" y="655"/>
      <point x="561" y="655"/>
    </contour>
    <contour>
      <point x="561" y="655" type="curve"/>
      <point x="502" y="695"/>
      <point x="436" y="727"/>
      <point x="357" y="727" type="curve"/>
      <point x="151" y="727"/>
      <point x="65" y="570"/>
      <point x="65" y="344" type="curve"/>
      <point x="65" y="137"/>
      <point x="147" y="-5"/>
      <point x="339" y="-5" type="curve"/>
      <point x="441" y="-5"/>
      <point x="506" y="31"/>
      <point x="577" y="96" type="curve"/>
      <point x="552" y="123"/>
      <point x="576" y="96"/>
      <point x="551" y="123" type="curve"/>
      <point x="488" y="65"/>
      <point x="430" y="33"/>
      <point x="341" y="33" type="curve"/>
      <point x="173" y="33"/>
      <point x="107" y="164"/>
      <point x="107" y="346" type="curve"/>
      <point x="107" y="545"/>
      <point x="177" y="689"/>
      <point x="355" y="689" type="curve"/>
      <point x="426" y="689"/>
      <point x="486" y="664"/>
      <point x="538" y="627" type="curve"/>
      <point x="561" y="655"/>
      <point x="538" y="627"/>
    </contour>
    <contour>
      <point x="314" y="24" type="curve"/>
      <point x="301" y="-2"/>
      <point x="283" y="-40"/>
      <point x="270" y="-65" type="curve"/>
      <point x="299" y="-93"/>
      <point x="270" y="-65"/>
      <point x="299" y="-93" type="curve"/>
      <point x="312" y="-66"/>
      <point x="333" y="-27"/>
      <point x="346" y="0" type="curve"/>
      <point x="314" y="24"/>
      <point x="346" y="0"/>
    </contour>
    <contour>
      <point x="299" y="-93" type="curve"/>
      <point x="310" y="-85"/>
      <point x="319" y="-81"/>
      <point x="334" y="-81" type="curve"/>
      <point x="362" y="-81"/>
      <point x="374" y="-102"/>
      <point x="374" y="-132" type="curve"/>
      <point x="374" y="-163"/>
      <point x="354" y="-181"/>
      <point x="322" y="-181" type="curve"/>
      <point x="300" y="-181"/>
      <point x="282" y="-178"/>
      <point x="262" y="-164" type="curve"/>
      <point x="246" y="-191"/>
      <point x="262" y="-164"/>
      <point x="246" y="-191" type="curve"/>
      <point x="270" y="-206"/>
      <point x="291" y="-213"/>
      <point x="320" y="-213" type="curve"/>
      <point x="375" y="-213"/>
      <point x="410" y="-184"/>
      <point x="410" y="-131" type="curve"/>
      <point x="410" y="-81"/>
      <point x="383" y="-48"/>
      <point x="334" y="-48" type="curve"/>
      <point x="309" y="-48"/>
      <point x="292" y="-54"/>
      <point x="270" y="-66" type="curve"/>
      <point x="299" y="-93"/>
      <point x="270" y="-66"/>
    </contour>
  </outline>
</glyph>
<glyph name="Edieresis" format="1">
  <advance width="597"/>
  <unicode hex="00CB"/>
  <outline>
    <contour>
      <point x="549" y="18" type="curve"/>
      <point x="549" y="138"/>
      <point x="549" y="12"/>
      <point x="549" y="132" type="curve"/>
      <point x="513" y="132"/>
      <point x="549" y="132"/>
      <point x="513" y="132" type="curve"/>
      <point x="513" y="12"/>
      <point x="513" y="138"/>
      <point x="513" y="18" type="curve"/>
      <point x="549" y="18"/>
      <point x="513" y="18"/>
    </contour>
    <contour>
      <point x="483" y="704" type="curve"/>
      <point x="483" y="584"/>
      <point x="483" y="710"/>
      <point x="483" y="590" type="curve"/>
      <point x="519" y="590"/>
      <point x="483" y="590"/>
      <point x="519" y="590" type="curve"/>
      <point x="519" y="710"/>
      <point x="519" y="584"/>
      <point x="519" y="704" type="curve"/>
      <point x="483" y="704"/>
      <point x="519" y="704"/>
    </contour>
    <contour>
      <point x="174" y="35" type="curve"/>
      <point x="32" y="35"/>
      <point x="186" y="35"/>
      <point x="45" y="35" type="curve"/>
      <point x="45" y="0"/>
      <point x="45" y="35"/>
      <point x="45" y="0" type="curve"/>
      <point x="92" y="0"/>
      <point x="126" y="0"/>
      <point x="174" y="0" type="curve"/>
      <point x="174" y="35"/>
      <point x="174" y="0"/>
    </contour>
    <contour>
      <point x="174" y="722" type="curve"/>
      <point x="126" y="722"/>
      <point x="92" y="722"/>
      <point x="45" y="722" type="curve"/>
      <point x="45" y="687"/>
      <point x="45" y="722"/>
      <point x="45" y="687" type="curve"/>
      <point x="186" y="687"/>
      <point x="32" y="687"/>
      <point x="174" y="687" type="curve"/>
      <point x="174" y="722"/>
      <point x="174" y="687"/>
    </contour>
    <contour>
      <point x="177" y="356" type="curve"/>
      <point x="273" y="356"/>
      <point x="368" y="356"/>
      <point x="464" y="356" type="curve"/>
      <point x="464" y="391"/>
      <point x="464" y="356"/>
      <point x="464" y="391" type="curve"/>
      <point x="368" y="391"/>
      <point x="273" y="391"/>
      <point x="177" y="391" type="curve"/>
      <point x="177" y="356"/>
      <point x="177" y="391"/>
    </contour>
    <contour>
      <point x="163" y="687" type="curve"/>
      <point x="283" y="687"/>
      <point x="400" y="687"/>
      <point x="519" y="687" type="curve"/>
      <point x="519" y="722"/>
      <point x="519" y="687"/>
      <point x="519" y="722" type="curve"/>
      <point x="400" y="722"/>
      <point x="283" y="722"/>
      <point x="163" y="722" type="curve"/>
      <point x="163" y="687"/>
      <point x="163" y="722"/>
    </contour>
    <contour>
      <point x="194" y="0" type="curve"/>
      <point x="194" y="722" type="line"/>
      <point x="152" y="722"/>
      <point x="194" y="722"/>
      <point x="152" y="722" type="curve"/>
      <point x="152" y="481"/>
      <point x="152" y="241"/>
      <point x="152" y="0" type="curve"/>
      <point x="194" y="0"/>
      <point x="152" y="0"/>
    </contour>
    <contour>
      <point x="163" y="0" type="curve"/>
      <point x="292" y="0"/>
      <point x="420" y="0"/>
      <point x="549" y="0" type="curve"/>
      <point x="549" y="35"/>
      <point x="549" y="0"/>
      <point x="549" y="35" type="curve"/>
      <point x="420" y="35"/>
      <point x="292" y="35"/>
      <point x="163" y="35" type="curve"/>
      <point x="163" y="0"/>
      <point x="163" y="35"/>
    </contour>
    <contour>
      <point x="273" y="841" type="curve"/>
      <point x="273" y="858"/>
      <point x="262" y="866"/>
      <point x="246" y="866" type="curve"/>
      <point x="230" y="866"/>
      <point x="219" y="856"/>
      <point x="219" y="841" type="curve"/>
      <point x="268" y="841"/>
      <point x="225" y="841"/>
      <point x="273" y="841" type="curve"/>
      <point x="273" y="824"/>
      <point x="262" y="816"/>
      <point x="246" y="816" type="curve"/>
      <point x="230" y="816"/>
      <point x="219" y="825"/>
      <point x="219" y="841" type="curve"/>
      <point x="268" y="841"/>
      <point x="225" y="841"/>
    </contour>
    <contour>
      <point x="394" y="841" type="curve"/>
      <point x="394" y="858"/>
      <point x="383" y="866"/>
      <point x="366" y="866" type="curve"/>
      <point x="349" y="866"/>
      <point x="340" y="856"/>
      <point x="340" y="841" type="curve"/>
      <point x="388" y="841"/>
      <point x="346" y="841"/>
      <point x="394" y="841" type="curve"/>
      <point x="394" y="824"/>
      <point x="383" y="816"/>
      <point x="366" y="816" type="curve"/>
      <point x="349" y="816"/>
      <point x="340" y="825"/>
      <point x="340" y="841" type="curve"/>
      <point x="388" y="841"/>
      <point x="346" y="841"/>
    </contour>
  </outline>
</glyph>
<glyph name="Igrave" format="1">
  <advance width="345"/>
  <unicode hex="00CC"/>
  <outline>
    <contour>
      <point x="175" y="722" type="curve"/>
      <point x="127" y="722"/>
      <point x="94" y="722"/>
      <point x="45" y="722" type="curve"/>
      <point x="45" y="687"/>
      <point x="45" y="722"/>
      <point x="45" y="687" type="curve"/>
      <point x="189" y="687"/>
      <point x="32" y="687"/>
      <point x="175" y="687" type="curve"/>
      <point x="175" y="722"/>
      <point x="175" y="687"/>
    </contour>
    <contour>
      <point x="175" y="687" type="curve"/>
      <point x="319" y="687"/>
      <point x="162" y="687"/>
      <point x="305" y="687" type="curve"/>
      <point x="305" y="722"/>
      <point x="305" y="687"/>
      <point x="305" y="722" type="curve"/>
      <point x="257" y="722"/>
      <point x="223" y="722"/>
      <point x="175" y="722" type="curve"/>
      <point x="175" y="687"/>
      <point x="175" y="722"/>
    </contour>
    <contour>
      <point x="175" y="0" type="curve"/>
      <point x="223" y="0"/>
      <point x="257" y="0"/>
      <point x="305" y="0" type="curve"/>
      <point x="305" y="35"/>
      <point x="305" y="0"/>
      <point x="305" y="35" type="curve"/>
      <point x="162" y="35"/>
      <point x="319" y="35"/>
      <point x="175" y="35" type="curve"/>
      <point x="175" y="0"/>
      <point x="175" y="35"/>
    </contour>
    <contour>
      <point x="175" y="35" type="curve"/>
      <point x="32" y="35"/>
      <point x="189" y="35"/>
      <point x="45" y="35" type="curve"/>
      <point x="45" y="0"/>
      <point x="45" y="35"/>
      <point x="45" y="0" type="curve"/>
      <point x="94" y="0"/>
      <point x="127" y="0"/>
      <point x="175" y="0" type="curve"/>
      <point x="175" y="35"/>
      <point x="175" y="0"/>
    </contour>
    <contour>
      <point x="196" y="0" type="curve"/>
      <point x="196" y="241"/>
      <point x="196" y="481"/>
      <point x="196" y="722" type="curve"/>
      <point x="154" y="722"/>
      <point x="196" y="722"/>
      <point x="154" y="722" type="curve"/>
      <point x="154" y="481"/>
      <point x="154" y="241"/>
      <point x="154" y="0" type="curve"/>
      <point x="196" y="0"/>
      <point x="154" y="0"/>
    </contour>
    <contour>
      <point x="200" y="818" type="line"/>
      <point x="101" y="984" type="line"/>
      <point x="45" y="984" type="line"/>
      <point x="157" y="818" type="line"/>
    </contour>
  </outline>
</glyph>
<glyph name="Icircumflex" format="1">
  <advance width="342"/>
  <unicode hex="00CE"/>
  <outline>
    <contour>
      <point x="171" y="722" type="curve"/>
      <point x="123" y="722"/>
      <point x="89" y="722"/>
      <point x="41" y="722" type="curve"/>
      <point x="41" y="687"/>
      <point x="41" y="722"/>
      <point x="41" y="687" type="curve"/>
      <point x="185" y="687"/>
      <point x="27" y="687"/>
      <point x="171" y="687" type="curve"/>
      <point x="171" y="722"/>
      <point x="171" y="687"/>
    </contour>
    <contour>
      <point x="171" y="687" type="curve"/>
      <point x="315" y="687"/>
      <point x="158" y="687"/>
      <point x="301" y="687" type="curve"/>
      <point x="301" y="722"/>
      <point x="301" y="687"/>
      <point x="301" y="722" type="curve"/>
      <point x="253" y="722"/>
      <point x="218" y="722"/>
      <point x="171" y="722" type="curve"/>
      <point x="171" y="687"/>
      <point x="171" y="722"/>
    </contour>
    <contour>
      <point x="171" y="0" type="curve"/>
      <point x="218" y="0"/>
      <point x="253" y="0"/>
      <point x="301" y="0" type="curve"/>
      <point x="301" y="35"/>
      <point x="301" y="0"/>
      <point x="301" y="35" type="curve"/>
      <point x="158" y="35"/>
      <point x="315" y="35"/>
      <point x="171" y="35" type="curve"/>
      <point x="171" y="0"/>
      <point x="171" y="35"/>
    </contour>
    <contour>
      <point x="171" y="35" type="curve"/>
      <point x="27" y="35"/>
      <point x="185" y="35"/>
      <point x="41" y="35" type="curve"/>
      <point x="41" y="0"/>
      <point x="41" y="35"/>
      <point x="41" y="0" type="curve"/>
      <point x="89" y="0"/>
      <point x="123" y="0"/>
      <point x="171" y="0" type="curve"/>
      <point x="171" y="35"/>
      <point x="171" y="0"/>
    </contour>
    <contour>
      <point x="192" y="0" type="curve"/>
      <point x="192" y="241"/>
      <point x="192" y="481"/>
      <point x="192" y="722" type="curve"/>
      <point x="150" y="722"/>
      <point x="192" y="722"/>
      <point x="150" y="722" type="curve"/>
      <point x="150" y="481"/>
      <point x="150" y="241"/>
      <point x="150" y="0" type="curve"/>
      <point x="192" y="0"/>
      <point x="150" y="0"/>
    </contour>
    <contour>
      <point x="79" y="818" type="line"/>
      <point x="191" y="984" type="line"/>
      <point x="136" y="984" type="line"/>
      <point x="37" y="818" type="line"/>
    </contour>
    <contour>
      <point x="305" y="818" type="line"/>
      <point x="207" y="984" type="line"/>
      <point x="152" y="984" type="line"/>
      <point x="263" y="818" type="line"/>
    </contour>
  </outline>
</glyph>
